<?xml version="1.0" encoding="UTF-8"?>
<svg version="1.1" xmlns="http://www.w3.org/2000/svg" width="432" height="578">
<path d="M0,0 L4,1 L8,6 L11,11 L14,12 L16,16 L16,22 L9,32 L9,42 L13,55 L13,58 L11,58 L10,72 L5,76 L4,79 L-1,81 L-1,93 L3,103 L7,109 L10,111 L17,111 L22,113 L26,119 L25,124 L-3,124 L-8,119 L-15,108 L-24,98 L-27,95 L-33,93 L-36,100 L-37,110 L-37,113 L-33,115 L-31,121 L-32,124 L-39,125 L-50,124 L-51,126 L-57,124 L-56,116 L-54,111 L-54,103 L-55,97 L-73,98 L-80,96 L-93,91 L-94,96 L-98,102 L-103,105 L-101,109 L-96,112 L-86,113 L-81,118 L-80,123 L-81,124 L-98,124 L-108,122 L-111,119 L-120,114 L-127,110 L-129,109 L-131,101 L-134,99 L-139,100 L-147,104 L-156,105 L-176,106 L-188,111 L-191,114 L-190,122 L-192,124 L-216,124 L-217,120 L-208,110 L-204,104 L-214,106 L-221,104 L-232,103 L-240,101 L-247,101 L-257,104 L-259,103 L-257,98 L-245,89 L-235,85 L-230,85 L-230,82 L-226,80 L-203,80 L-192,81 L-172,77 L-156,69 L-139,62 L-122,59 L-94,56 L-69,50 L-63,48 L-62,43 L-52,41 L-52,38 L-50,34 L-42,28 L-36,25 L-30,17 L-25,13 L-13,11 L-5,4 Z M-125,89 Z M-126,90 Z M-199,100 Z M-201,101 L-202,103 L-199,102 Z M-220,102 Z M-204,103 Z " fill="#F79616" transform="translate(326,176)"/>
<path d="M0,0 L7,0 L19,3 L23,8 L26,12 L27,2 L28,1 L38,0 L43,3 L45,8 L45,28 L47,16 L50,10 L53,1 L68,1 L72,5 L72,28 L73,19 L79,7 L82,0 L90,0 L96,1 L97,10 L102,5 L106,2 L114,0 L126,0 L136,5 L140,12 L142,21 L144,16 L146,2 L147,0 L160,1 L162,3 L162,14 L156,43 L172,43 L173,44 L174,35 L176,29 L180,3 L182,1 L213,1 L214,5 L212,12 L206,15 L198,15 L195,14 L196,21 L206,21 L207,22 L207,29 L204,34 L203,35 L191,35 L191,46 L189,56 L173,57 L171,55 L168,56 L142,56 L139,54 L138,45 L141,34 L142,26 L140,26 L139,37 L135,46 L132,50 L130,50 L130,52 L121,56 L119,57 L108,58 L98,54 L91,47 L90,45 L90,29 L92,22 L92,18 L89,29 L84,39 L81,49 L76,56 L62,56 L59,53 L58,37 L57,32 L52,48 L48,56 L34,56 L31,53 L29,43 L28,26 L27,21 L25,36 L19,47 L11,53 L6,56 L-15,57 L-24,54 L-24,46 L-22,34 L-17,4 L-16,2 Z M-2,14 L-5,27 L-6,42 L-1,43 L4,41 L7,37 L10,30 L10,21 L7,15 L5,14 Z M115,15 L110,19 L108,24 L107,30 L107,39 L111,43 L118,42 L123,33 L124,21 L122,16 L121,15 Z M172,47 L173,50 Z " fill="#F57216" transform="translate(192,304)"/>
<path d="M0,0 L12,0 L22,5 L25,12 L25,20 L27,20 L30,11 L38,4 L48,0 L59,0 L68,4 L73,11 L75,19 L74,29 L71,41 L66,49 L60,54 L50,57 L41,57 L33,55 L29,51 L29,49 L27,49 L24,43 L24,24 L20,31 L18,31 L18,33 L16,33 L16,35 L14,35 L16,39 L16,42 L20,44 L22,48 L21,53 L15,57 L8,57 L5,56 L0,46 L-1,38 L-4,38 L-5,52 L-7,56 L-22,56 L-23,53 L-20,34 L-14,3 L-11,1 Z M0,13 L-2,26 L8,24 L9,22 L9,15 L4,13 Z M49,14 L45,17 L45,19 L43,19 L40,29 L40,39 L44,43 L51,42 L51,40 L54,39 L57,33 L58,26 L58,18 L53,14 Z " fill="#074E9C" transform="translate(49,304)"/>
<path d="M0,0 L3,1 L2,4 L4,5 L4,7 L-3,8 L-6,13 L-6,15 L-4,16 L-7,21 L-12,21 L-16,23 L-19,25 L-22,25 L-23,27 L-31,22 L-31,19 L-28,17 L-25,17 L-24,13 L-30,12 L-30,14 L-33,15 L-33,13 L-38,14 L-43,12 L-57,12 L-61,12 L-64,15 L-77,17 L-87,21 L-92,26 L-90,25 L-63,26 L-58,24 L-53,25 L-54,28 L-46,28 L-46,25 L-38,22 L-32,23 L-34,28 L-40,33 L-39,41 L-35,39 L-29,31 L-21,30 L-17,29 L1,29 L8,27 L14,23 L18,23 L23,22 L25,15 L34,14 L39,13 L40,8 L45,7 L55,7 L54,11 L61,12 L61,14 L66,15 L64,16 L60,15 L63,18 L63,23 L61,23 L61,29 L56,32 L58,36 L63,39 L73,40 L78,45 L79,50 L78,51 L61,51 L51,49 L48,46 L39,41 L32,37 L30,36 L28,28 L25,26 L20,27 L12,31 L3,32 L-17,33 L-29,38 L-32,41 L-31,49 L-33,51 L-57,51 L-58,47 L-49,37 L-45,31 L-55,33 L-62,31 L-73,30 L-81,28 L-88,28 L-98,31 L-100,30 L-98,25 L-86,16 L-76,12 L-71,12 L-71,9 L-67,7 L-44,7 L-33,8 L-13,4 L-9,2 L0,2 Z M-60,10 Z M34,16 Z M33,17 Z M-40,27 Z M-42,28 L-43,30 L-40,29 Z M-61,29 Z M-45,30 Z " fill="#F67915" transform="translate(167,249)"/>
<path d="M0,0 L13,1 L15,3 L15,14 L9,43 L25,43 L26,44 L27,35 L29,29 L33,3 L35,1 L66,1 L67,5 L65,12 L59,15 L51,15 L48,14 L49,21 L59,21 L60,22 L60,29 L57,34 L56,35 L44,35 L44,46 L42,56 L26,57 L24,55 L21,56 L-5,56 L-8,54 L-9,45 L-6,34 L-6,23 L-3,16 L-1,2 Z M25,47 L26,50 Z " fill="#F47217" transform="translate(339,304)"/>
<path d="M0,0 L10,0 L16,3 L19,6 L25,1 L28,0 L39,0 L45,3 L49,9 L50,13 L50,19 L55,11 L61,1 L62,0 L72,0 L75,8 L79,24 L79,32 L69,32 L67,28 L58,28 L53,33 L44,32 L44,28 L35,33 L26,33 L18,28 L14,20 L16,10 L12,12 L7,11 L2,10 L-2,14 L-2,21 L-1,22 L5,22 L7,20 L12,21 L15,25 L13,29 L6,33 L-3,33 L-11,29 L-14,22 L-14,14 L-11,7 L-7,2 Z M31,9 L26,14 L26,20 L29,23 L35,22 L39,16 L38,11 L36,9 Z M64,14 L63,18 L66,18 L65,14 Z M48,20 Z M45,26 Z " fill="#D8652D" transform="translate(126,369)"/>
<path d="M0,0 L7,0 L19,3 L23,8 L28,17 L27,18 L25,36 L19,47 L11,53 L6,56 L-15,57 L-24,54 L-24,46 L-22,34 L-17,4 L-16,2 Z M-2,14 L-5,27 L-6,42 L-1,43 L4,41 L7,37 L10,30 L10,21 L7,15 L5,14 Z " fill="#07529E" transform="translate(192,304)"/>
<path d="M0,0 L15,0 L18,4 L22,24 L26,52 L26,54 L22,55 L14,55 L8,53 L9,45 L-6,45 L-8,55 L-19,55 L-23,54 L-23,47 L-20,39 L-16,32 L-5,9 Z M5,19 L1,29 L0,31 L7,31 L6,19 Z " fill="#034C9A" transform="translate(141,305)"/>
<path d="M0,0 L22,0 L24,5 L29,1 L32,0 L43,0 L49,3 L47,10 L42,11 L35,10 L44,15 L47,17 L47,25 L45,29 L37,33 L27,33 L20,31 L17,33 L-6,33 L-8,29 L-6,24 L-4,12 L-1,1 Z M22,8 L7,10 L7,12 L19,13 L19,21 L11,20 L6,21 L5,23 L20,23 L21,21 L26,22 L27,23 L36,23 L32,20 L24,17 L23,8 Z " fill="#EA4C11" transform="translate(274,369)"/>
<path d="M0,0 Z M32,-2 L36,-1 L36,25 L30,35 L24,40 L14,43 L5,43 L-3,41 L-7,37 L-7,35 L-9,35 L-12,29 L-12,14 L-10,7 L-5,7 L-5,2 L0,1 L4,0 L6,4 L6,6 L5,15 L5,25 L8,28 L15,28 L15,26 L18,23 L20,19 L22,3 L24,4 L24,6 L26,5 L28,1 L31,0 Z " fill="#064897" transform="translate(85,318)"/>
<path d="M0,0 L5,0 L6,5 L9,6 L5,24 L4,28 L0,28 L-1,35 L-10,42 L-12,43 L-23,44 L-33,40 L-40,33 L-41,31 L-41,17 L-37,16 L-33,18 L-33,16 L-27,11 L-25,11 L-25,22 L-23,28 L-19,29 L-18,31 L-13,30 L-7,19 L-6,6 L-4,2 Z " fill="#F56312" transform="translate(323,318)"/>
<path d="M0,0 L13,1 L15,3 L15,14 L10,39 L8,44 L23,45 L23,52 L21,54 L-5,54 L-6,53 L-6,43 L-5,39 L-7,38 L-6,34 L-6,23 L-3,16 L-1,2 Z " fill="#F47317" transform="translate(339,304)"/>
<path d="M0,0 L4,1 L8,6 L11,11 L14,12 L16,16 L16,22 L9,32 L9,42 L13,55 L13,58 L11,58 L10,72 L5,76 L4,79 L-1,81 L-1,93 L3,103 L7,109 L10,111 L17,111 L22,113 L21,115 L19,114 L7,113 L7,111 L2,109 L-2,103 L-4,99 L-6,96 L-7,77 L0,69 L3,68 L4,64 L6,64 L4,56 L6,56 L6,45 L4,41 L4,32 L6,27 L12,19 L13,17 L8,16 L4,19 L5,10 L4,6 L1,7 L-1,7 L-7,12 L-10,15 L-18,15 L-25,19 L-31,23 L-34,30 L-41,32 L-45,32 L-44,38 L-46,39 L-38,40 L-38,42 L-42,44 L-53,44 L-51,40 L-52,36 L-44,29 L-36,25 L-30,17 L-25,13 L-13,11 L-5,4 Z " fill="#F0D14A" transform="translate(326,176)"/>
<path d="M0,0 L3,1 L2,4 L4,5 L4,7 L-3,8 L-6,13 L-6,15 L-4,16 L-7,21 L-12,21 L-16,23 L-19,25 L-22,25 L-23,27 L-31,22 L-31,19 L-28,17 L-25,17 L-24,13 L-30,12 L-30,14 L-33,15 L-33,13 L-38,14 L-43,12 L-57,12 L-61,12 L-64,15 L-77,17 L-87,21 L-92,26 L-90,25 L-68,26 L-56,27 L-56,32 L-61,32 L-62,31 L-73,30 L-81,28 L-88,28 L-98,31 L-100,30 L-98,25 L-86,16 L-76,12 L-71,12 L-71,9 L-67,7 L-44,7 L-33,8 L-13,4 L-9,2 L0,2 Z M-60,10 Z M-61,29 Z " fill="#E26C3D" transform="translate(167,249)"/>
<path d="M0,0 L9,1 L11,2 L9,12 L17,12 L18,2 L20,1 L28,1 L30,4 L29,13 L26,25 L24,33 L21,34 L14,33 L14,25 L15,22 L7,22 L5,33 L-5,33 L-4,19 L-2,13 L-2,3 Z " fill="#F24B0B" transform="translate(240,368)"/>
<path d="M0,0 L10,0 L16,3 L18,5 L18,8 L15,11 L13,11 L13,13 L9,12 L3,10 L-1,13 L-2,19 L0,22 L5,22 L7,20 L12,21 L15,25 L13,29 L6,33 L-3,33 L-11,29 L-14,23 L-14,13 L-10,5 L-3,1 Z " fill="#E34E14" transform="translate(220,369)"/>
<path d="M0,0 L10,0 L13,8 L17,24 L17,32 L7,32 L5,28 L-4,28 L-8,29 L-8,31 L-15,31 L-14,26 L-11,20 L-8,21 L-7,11 L-1,1 Z M2,14 L1,18 L4,18 L3,14 Z " fill="#EE4C0E" transform="translate(188,369)"/>
<path d="M0,0 L11,0 L20,4 L25,11 L27,19 L26,29 L24,33 L23,26 L23,13 L20,12 L18,16 L16,16 L14,20 L12,20 L10,18 L5,15 L0,16 L-3,19 L-5,19 L-5,24 L-6,20 L-8,19 L-8,16 L-12,16 L-16,16 L-17,21 L-23,23 L-25,24 L-27,11 L-25,11 L-24,8 L-23,12 L-23,20 L-21,20 L-18,11 L-10,4 Z M-12,14 Z " fill="#1070B3" transform="translate(97,304)"/>
<path d="M0,0 L1,0 L2,7 L1,9 L5,10 L7,9 L6,15 L2,23 L0,23 L-1,31 L-4,31 L-5,39 L-6,41 L-18,41 L-21,38 L-21,22 L-19,16 L-16,15 L-14,13 L-14,15 L-12,15 L-10,17 L-6,15 L-6,7 L-2,2 L-2,4 L0,4 L-1,1 Z " fill="#F45C11" transform="translate(273,317)"/>
<path d="M0,0 L15,0 L19,4 L18,30 L16,29 L16,27 L13,27 L11,29 L9,29 L8,34 L8,50 L10,52 L22,53 L24,43 L27,43 L27,37 L29,35 L30,41 L27,49 L23,55 L9,55 L6,52 L5,36 L4,31 L3,27 L3,20 L5,12 L9,13 L9,15 L11,15 L10,10 L12,6 L9,5 L8,7 L3,7 L3,10 L2,14 L-2,15 L-3,14 L-5,27 L-7,27 L-6,15 L-3,9 Z M12,3 Z " fill="#F0781A" transform="translate(245,305)"/>
<path d="M0,0 L8,0 L14,1 L15,10 L20,5 L24,2 L32,0 L44,0 L53,4 L51,6 L41,3 L36,4 L31,5 L25,4 L23,8 L20,13 L17,14 L14,17 L14,26 L12,26 L11,31 L8,31 L10,22 L10,18 L7,29 L2,39 L0,38 L2,32 L5,26 L5,23 L3,25 L3,22 L0,22 L-1,17 L-4,17 L-6,20 L-6,28 L-10,30 L-9,19 L-3,7 Z " fill="#EEA91A" transform="translate(274,304)"/>
<path d="M0,0 L7,0 L9,7 L9,16 L12,18 L12,31 L13,36 L14,39 L28,42 L27,37 L25,37 L22,32 L22,15 L26,13 L27,9 L31,7 L31,10 L35,12 L35,14 L38,13 L42,17 L42,22 L44,23 L41,23 L34,15 L28,13 L25,20 L24,30 L24,33 L28,35 L30,41 L29,44 L22,45 L11,44 L10,46 L4,44 L5,36 L7,31 L7,23 L6,17 L-12,18 L-19,16 L-32,11 L-33,16 L-36,21 L-37,21 L-37,16 L-35,16 L-35,11 L-38,10 L-38,8 L-27,9 L-26,12 L-20,12 L-17,14 L2,15 L2,8 L0,8 Z M-27,8 Z " fill="#F2A017" transform="translate(265,256)"/>
<path d="M0,0 L5,2 L7,8 L13,8 L17,13 L20,14 L23,20 L22,22 L25,22 L26,19 L32,17 L34,19 L35,25 L31,26 L23,26 L17,24 L18,16 L3,16 L1,26 L-10,26 L-14,25 L-14,18 L-11,10 L-7,3 L-2,2 Z M13,11 Z " fill="#114490" transform="translate(132,334)"/>
<path d="M0,0 L10,0 L14,2 L14,6 L11,6 L11,8 L7,8 L7,5 L0,6 L-2,8 L-3,12 L-3,19 L-2,20 L4,20 L6,18 L11,19 L14,23 L12,27 L5,31 L-4,31 L-12,27 L-15,20 L-15,12 L-12,5 L-9,4 L-7,1 Z " fill="#DC6734" transform="translate(127,371)"/>
<path d="M0,0 Z M3,0 L6,4 L6,6 L5,15 L3,15 L3,26 L5,34 L1,37 L-2,37 L-5,35 L-7,37 L-7,35 L-9,35 L-12,29 L-12,14 L-10,7 L-5,7 L-5,2 L0,1 Z " fill="#054795" transform="translate(85,318)"/>
<path d="M0,0 L3,3 L2,4 L2,10 L3,15 L2,20 L2,22 L10,23 L18,21 L21,21 L23,12 L26,4 L30,3 L32,6 L33,4 L35,4 L37,8 L39,9 L39,16 L32,22 L25,26 L4,27 L-5,24 L-5,16 L-3,4 L0,3 Z M35,8 Z M2,8 Z " fill="#0D3A88" transform="translate(173,334)"/>
<path d="M0,0 L20,0 L20,6 L4,5 L6,10 L16,12 L15,16 L4,18 L4,22 L18,23 L19,28 L17,29 L-5,28 L-4,12 L-3,11 L-2,3 Z " fill="#EB4C0E" transform="translate(275,371)"/>
<path d="M0,0 L3,1 L2,4 L4,5 L4,7 L-3,8 L-6,13 L-6,15 L-4,16 L-7,21 L-12,21 L-16,23 L-19,25 L-22,25 L-23,27 L-31,22 L-31,19 L-28,17 L-25,17 L-24,13 L-28,13 L-28,11 L-19,10 L-17,7 L-12,5 L-9,2 L0,2 Z " fill="#F35812" transform="translate(167,249)"/>
<path d="M0,0 L2,0 L2,11 L4,17 L8,18 L9,21 L2,21 L-3,25 L-3,28 L2,29 L19,29 L15,32 L4,33 L-6,29 L-13,22 L-14,20 L-14,6 L-10,5 L-6,7 L-6,5 Z " fill="#F55E11" transform="translate(296,329)"/>
<path d="M0,0 L12,0 L18,3 L18,7 L20,7 L21,13 L20,17 L14,20 L14,3 L5,4 L4,7 L-1,9 L-1,21 L2,21 L2,23 L10,22 L10,24 L16,23 L16,26 L4,28 L-2,27 L-8,22 L-9,19 L-9,9 L-8,6 L-1,2 Z " fill="#EF4C0D" transform="translate(152,371)"/>
<path d="M0,0 L5,1 L7,4 L9,6 L7,6 L5,10 L3,10 L2,12 L-11,12 L-14,21 L-20,28 L-22,28 L-22,30 L-26,29 L-26,24 L-24,24 L-25,15 L-21,10 L-18,10 L-13,2 L-5,2 Z " fill="#F6841B" transform="translate(312,306)"/>
<path d="M0,0 L12,0 L20,4 L19,7 L15,8 L14,7 L12,11 L15,12 L15,15 L11,15 L10,26 L6,27 L0,26 L0,25 L8,24 L8,15 L0,13 L-1,16 L-2,11 L1,8 L3,6 L6,6 L6,4 L0,4 L-4,8 L-4,6 L-9,7 L-10,12 L-10,14 L-10,18 L-12,18 L-13,20 L-16,19 L-15,7 L-13,2 L-11,1 Z M5,7 Z M10,11 Z M-13,14 Z " fill="#2982BB" transform="translate(49,304)"/>
<path d="M0,0 L4,1 L4,6 L2,6 L4,13 L4,21 L1,26 L-1,26 L-2,28 L-8,28 L-8,32 L-9,34 L-13,33 L-16,35 L-18,31 L-17,29 L-15,29 L-14,27 L-12,23 L-10,21 L-9,10 L-6,9 L-4,10 L-4,7 L-8,6 L-5,1 L-4,3 L0,2 Z M-9,6 Z " fill="#045AA4" transform="translate(68,309)"/>
<path d="M0,0 L2,3 L2,9 L1,14 L2,14 L3,27 L-2,31 L-3,34 L-8,36 L-8,48 L-4,58 L0,64 L3,66 L10,66 L15,68 L14,70 L12,69 L0,68 L0,66 L-5,64 L-9,58 L-11,54 L-13,51 L-14,32 L-7,24 L-4,23 L-3,19 L-1,19 L-3,11 L-1,11 Z " fill="#F4C923" transform="translate(333,221)"/>
<path d="M0,0 L6,0 L5,3 L3,3 L5,7 L5,10 L9,12 L11,16 L10,21 L4,25 L-3,25 L-6,24 L-9,18 L-9,9 L-5,5 L-1,6 L-2,3 Z " fill="#083486" transform="translate(60,336)"/>
<path d="M0,0 L6,1 L4,6 L-2,11 L-1,19 L1,20 L1,26 L-15,26 L-12,16 L-7,9 L-17,11 L-19,9 L-19,6 L-25,5 L-21,2 L-15,3 L-16,6 L-8,6 L-8,3 Z M-2,5 Z M-4,6 L-5,8 L-2,7 Z M-7,8 Z " fill="#ED5416" transform="translate(129,271)"/>
<path d="M0,0 L10,0 L9,4 L16,5 L16,7 L21,8 L19,9 L15,8 L18,11 L18,16 L16,16 L16,22 L11,25 L13,30 L8,29 L7,28 L7,23 L14,19 L14,10 L2,10 L-4,12 L-9,13 L-16,13 L-15,8 L-6,6 L-5,1 Z M-11,9 Z M-12,10 Z " fill="#ED8121" transform="translate(212,256)"/>
<path d="M0,0 L4,2 L5,10 L11,11 L11,14 L14,14 L14,17 L21,15 L25,19 L27,24 L32,24 L34,21 L31,18 L30,13 L35,15 L45,16 L50,21 L51,26 L50,27 L33,27 L23,25 L20,22 L11,17 L4,13 L2,12 L0,4 L-3,1 Z " fill="#F48B1F" transform="translate(195,273)"/>
<path d="M0,0 L12,0 L17,4 L17,7 L14,10 L12,10 L12,12 L8,11 L4,9 L4,7 L-2,6 L-2,10 L-4,10 L-5,15 L-7,15 L-7,22 L-5,23 L-7,27 L-9,27 L-12,24 L-13,14 L-10,6 L-5,4 L-3,1 Z " fill="#E45215" transform="translate(221,370)"/>
<path d="M0,0 L3,0 L3,3 L6,4 L7,12 L1,17 L-4,18 L-17,18 L-23,16 L-22,12 L-18,8 L-8,8 L-5,7 L-2,2 L0,2 Z " fill="#F0520E" transform="translate(315,341)"/>
<path d="M0,0 L1,0 L2,10 L5,13 L5,16 L16,17 L14,21 L12,21 L12,23 L16,22 L16,20 L21,18 L24,16 L25,13 L27,14 L25,21 L21,25 L11,28 L2,28 L-6,26 L-9,23 L-8,19 L-3,22 L-2,20 L1,19 L-1,11 L-1,3 Z " fill="#102D73" transform="translate(88,333)"/>
<path d="M0,0 L15,0 L18,4 L17,13 L15,14 L12,9 L11,3 L9,3 L9,5 L3,7 L2,10 L0,10 L0,12 L7,12 L9,13 L9,15 L4,14 L5,17 L7,17 L7,28 L6,28 L5,21 L1,20 L-1,24 L-4,22 L-4,20 L-9,20 L-8,15 Z " fill="#1971B5" transform="translate(141,305)"/>
<path d="M0,0 L4,1 L-3,4 L-12,5 L-32,6 L-44,11 L-47,14 L-46,22 L-48,24 L-72,24 L-73,20 L-66,12 L-65,14 L-68,21 L-52,21 L-53,15 L-46,7 L-44,4 L-36,3 L-32,2 L-7,2 Z " fill="#DA6A2B" transform="translate(182,276)"/>
<path d="M0,0 L2,3 L2,11 L17,12 L17,19 L15,21 L-11,21 L-12,20 L-12,10 L-9,10 L-9,13 L-4,13 L-1,10 L-1,1 Z " fill="#F54F0B" transform="translate(345,337)"/>
<path d="M0,0 L31,0 L32,4 L30,11 L24,14 L16,14 L13,13 L13,21 L12,21 L11,13 L11,10 L13,9 L16,10 L17,7 L14,8 L14,2 L0,2 L-1,10 L-2,10 L-2,2 Z " fill="#F49421" transform="translate(374,305)"/>
<path d="M0,0 L4,2 L8,3 L8,5 L10,5 L11,13 L7,22 L3,25 L3,22 L0,22 L-1,17 L-4,17 L-6,20 L-6,28 L-10,30 L-9,19 L-3,7 Z " fill="#F58A1E" transform="translate(274,304)"/>
<path d="M0,0 L22,0 L24,5 L25,5 L26,16 L36,20 L36,22 L25,19 L23,17 L22,9 L15,10 L7,10 L6,12 L5,7 L20,7 L21,2 L1,2 L-1,13 L-2,14 L-3,29 L18,30 L20,31 L17,33 L-6,33 L-8,29 L-6,24 L-4,12 L-1,1 Z " fill="#D7734C" transform="translate(274,369)"/>
<path d="M0,0 L12,0 L13,4 L12,9 L1,9 L-1,10 L13,11 L14,8 L19,9 L20,10 L30,10 L30,12 L22,14 L20,18 L31,18 L35,17 L35,14 L38,14 L37,4 L40,5 L40,13 L38,17 L30,21 L20,21 L13,18 L12,13 L-2,13 L-3,12 L-3,7 L9,5 L10,2 L0,1 Z " fill="#DC5B27" transform="translate(281,381)"/>
<path d="M0,0 L10,4 L15,11 L17,19 L16,29 L14,33 L13,26 L13,13 L10,12 L8,16 L6,16 L4,20 L2,20 L0,18 L-4,14 L-4,9 L2,6 L5,6 L5,4 L-14,4 L-12,2 L0,2 Z " fill="#036BB1" transform="translate(107,304)"/>
<path d="M0,0 L6,1 L9,5 L8,7 L4,3 L-6,2 L-6,11 L-5,14 L-3,40 L-2,52 L1,53 L12,53 L14,41 L17,37 L18,34 L20,34 L21,32 L20,38 L17,48 L13,56 L-1,56 L-4,53 L-6,43 L-7,26 L-8,21 L-9,18 L-8,16 L-9,12 L-8,2 L-7,1 Z " fill="#D26F3C" transform="translate(227,304)"/>
<path d="M0,0 L1,3 L5,5 L5,7 L8,6 L12,10 L12,15 L14,16 L11,16 L4,8 L-2,6 L-5,13 L-6,23 L-6,26 L-2,28 L0,34 L-1,37 L-8,38 L-19,37 L-20,39 L-26,37 L-25,29 L-23,24 L-23,10 L-20,14 L-19,31 L-23,31 L-24,36 L-2,36 L-3,30 L-5,30 L-8,25 L-8,8 L-4,6 L-3,2 Z " fill="#ECBE5F" transform="translate(295,263)"/>
<path d="M0,0 L2,4 L0,7 L-10,9 L-18,13 L-21,17 L-19,16 L3,17 L15,18 L15,23 L10,23 L9,22 L-2,21 L-10,19 L-17,19 L-27,22 L-29,21 L-27,16 L-15,7 L-5,3 L0,3 Z M10,20 Z " fill="#DD561E" transform="translate(96,258)"/>
<path d="M0,0 L2,1 L-1,4 L-9,4 L-16,8 L-22,12 L-25,19 L-32,21 L-36,21 L-35,27 L-37,28 L-29,29 L-29,31 L-33,33 L-44,33 L-42,29 L-43,25 L-35,18 L-27,14 L-21,6 L-16,2 L-13,1 Z " fill="#EBBB56" transform="translate(317,187)"/>
<path d="M0,0 L10,0 L13,8 L17,24 L17,32 L7,32 L5,28 L-4,28 L-6,29 L-6,23 L-4,23 L-4,21 L0,22 L7,23 L9,27 L9,30 L15,30 L15,21 L12,20 L9,8 L8,7 L8,2 L0,2 L1,7 L-3,9 L-4,11 L-6,11 L-4,6 Z " fill="#DD6734" transform="translate(188,369)"/>
<path d="M0,0 L13,1 L15,3 L15,14 L10,39 L9,39 L9,23 L11,19 L11,7 L6,5 L3,6 L4,10 L2,10 L3,15 L1,15 L0,20 L-4,21 L-1,2 Z M8,4 Z " fill="#EAA147" transform="translate(339,304)"/>
<path d="M0,0 L3,0 L5,4 L8,16 L10,17 L10,26 L4,26 L2,20 L-5,19 L-9,17 L-9,19 L-11,19 L-12,22 L-14,22 L-15,19 L-8,15 L1,16 L1,7 L-2,4 Z " fill="#F24B0A" transform="translate(193,373)"/>
<path d="M0,0 L10,0 L12,4 L16,6 L16,26 L16,29 L14,30 L14,22 L11,23 L9,21 L12,15 L11,10 L11,5 L3,6 L5,12 L3,13 L4,15 L2,28 L1,28 L0,12 L-1,7 Z " fill="#EB962B" transform="translate(221,306)"/>
<path d="M0,0 L11,0 L17,3 L15,10 L10,11 L3,10 L12,15 L10,17 L8,15 L0,12 L1,6 L-1,6 L-1,4 L-7,5 L-3,1 Z " fill="#E45112" transform="translate(306,369)"/>
<path d="M0,0 L3,0 L3,8 L0,27 L-6,27 L-7,18 L-11,17 L-12,18 L-17,18 L-17,16 L-6,14 L-2,3 L-2,1 Z " fill="#EE490F" transform="translate(263,372)"/>
<path d="M0,0 L15,0 L19,4 L19,14 L18,14 L17,8 L15,8 L15,4 L9,5 L8,7 L3,7 L3,10 L2,14 L-2,15 L-3,14 L-5,27 L-7,27 L-6,15 L-3,9 Z " fill="#ED9B2C" transform="translate(245,305)"/>
<path d="M0,0 L2,0 L2,14 L28,14 L29,13 L30,6 L15,6 L14,3 L16,1 L16,4 L32,4 L33,8 L34,15 L49,16 L49,17 L33,18 L31,16 L28,17 L2,17 L-1,15 L-2,6 Z " fill="#D8753F" transform="translate(332,343)"/>
<path d="M0,0 L7,1 L5,11 L13,11 L14,1 L16,0 L24,0 L26,3 L25,12 L22,24 L20,32 L17,33 L10,32 L10,24 L11,21 L7,20 L10,19 L13,21 L13,30 L19,30 L20,17 L23,10 L23,2 L16,2 L14,12 L4,12 L4,2 L0,1 Z " fill="#DD8B65" transform="translate(244,369)"/>
<path d="M0,0 L4,2 L6,7 L6,10 L17,10 L22,9 L24,11 L24,15 L20,15 L20,17 L8,17 L8,15 L3,15 L0,8 Z " fill="#EE4B0E" transform="translate(115,382)"/>
<path d="M0,0 L10,0 L16,3 L18,8 L18,24 L21,25 L21,27 L26,29 L22,31 L17,26 L14,20 L16,10 L12,12 L7,11 L2,10 L-2,13 L-1,9 L1,7 L8,7 L8,10 L12,10 L12,8 L15,8 L14,4 L11,3 L1,3 L-6,4 L-8,7 L-10,7 L-8,3 L-5,1 Z " fill="#D97248" transform="translate(126,369)"/>
<path d="M0,0 L10,0 L10,2 L0,3 L12,3 L15,4 L15,6 L9,9 L6,9 L7,15 L1,14 L5,13 L4,9 L1,9 L-9,6 L-10,9 L-12,9 L-14,13 L-15,11 L-17,10 L-10,4 Z " fill="#0D7ABC" transform="translate(97,304)"/>
<path d="M0,0 L1,0 L2,7 L1,9 L5,10 L7,9 L6,15 L3,20 L2,16 L2,14 L-3,14 L-4,18 L-7,20 L-10,27 L-12,24 L-13,19 L-15,19 L-16,15 L-14,13 L-14,15 L-12,15 L-10,17 L-6,15 L-6,7 L-2,2 L-2,4 L0,4 L-1,1 Z M0,11 L1,13 Z " fill="#F67614" transform="translate(273,317)"/>
<path d="M0,0 L4,0 L5,3 L2,3 L0,25 L3,26 L5,22 L7,22 L5,33 L-5,33 L-4,19 L-2,13 L-2,3 Z " fill="#E44C10" transform="translate(240,368)"/>
<path d="M0,0 L4,0 L5,3 L5,16 L7,14 L10,14 L11,10 L11,18 L10,20 L4,20 L3,22 L0,21 L0,19 L-8,20 L-8,18 L-11,18 L-11,6 L-6,3 L-5,1 Z M-5,4 L-10,9 L-10,15 L-7,18 L-1,17 L3,11 L2,6 L0,4 Z " fill="#E94D10" transform="translate(162,374)"/>
<path d="M0,0 L5,0 L6,5 L9,6 L7,15 L5,18 L1,18 L0,11 L-3,10 L-3,12 L-5,12 L-5,3 Z " fill="#F57B17" transform="translate(323,318)"/>
<path d="M0,0 Z M-1,1 L1,5 L2,9 L4,10 L4,16 L-12,16 L-9,7 Z " fill="#F44D0C" transform="translate(126,281)"/>
<path d="M0,0 L5,1 L7,4 L9,6 L7,6 L5,10 L3,10 L2,12 L-8,11 L-9,9 L-10,9 L-10,4 L-13,3 L-13,2 L-5,2 Z " fill="#F79320" transform="translate(312,306)"/>
<path d="M0,0 L1,3 L5,4 L7,8 L7,4 L10,5 L9,7 L9,16 L-2,16 L-5,15 L-5,13 L-3,13 L-3,5 Z " fill="#032B81" transform="translate(124,344)"/>
<path d="M0,0 L10,0 L14,2 L14,6 L11,6 L11,8 L7,8 L7,5 L0,6 L-3,9 L-9,10 L-9,4 L-7,1 Z " fill="#EF4D0A" transform="translate(127,371)"/>
<path d="M0,0 L1,0 L0,8 L-2,11 L4,12 L4,2 L5,2 L6,9 L7,13 L6,14 L-4,14 L-4,9 L-9,8 L-12,5 L-14,11 L-16,11 L-17,14 L-18,11 L-13,1 L-7,1 L-4,4 Z " fill="#07549E" transform="translate(144,324)"/>
<path d="M0,0 L2,1 L2,3 L4,4 L1,9 L-4,9 L-8,11 L-16,12 L-19,11 L-19,9 L-21,8 L-19,8 L-19,6 L-9,4 L-6,3 L-3,3 L-3,1 Z " fill="#E6581A" transform="translate(159,261)"/>
<path d="M0,0 L4,2 L5,10 L11,11 L11,14 L14,14 L14,17 L21,15 L25,19 L27,24 L36,25 L37,27 L25,26 L20,22 L11,17 L4,13 L2,12 L0,4 L-3,1 Z " fill="#DE883C" transform="translate(195,273)"/>
<path d="M0,0 L26,0 L26,1 L13,2 L9,6 L9,4 L4,5 L3,10 L3,12 L3,16 L1,16 L0,18 L-3,17 L-2,5 Z M0,12 Z " fill="#0E70AA" transform="translate(36,306)"/>
<path d="M0,0 L1,0 L2,10 L5,13 L5,16 L16,17 L14,21 L12,21 L12,23 L9,24 L7,24 L-1,24 L-3,20 L1,19 L-1,11 L-1,3 Z " fill="#032984" transform="translate(88,333)"/>
<path d="M0,0 L8,0 L8,2 L4,3 L2,7 L-8,11 L-10,11 L-11,13 L-28,15 L-30,16 L-37,16 L-37,14 L-10,8 L-1,5 Z " fill="#E7993A" transform="translate(264,219)"/>
<path d="M0,0 L13,2 L18,6 L13,9 L2,9 L-4,7 L-2,2 Z " fill="#F94B07" transform="translate(297,349)"/>
<path d="M0,0 L7,0 L19,3 L23,8 L28,17 L27,18 L25,36 L22,39 L21,35 L22,34 L23,27 L23,14 L22,10 L20,10 L20,6 L7,3 L-9,2 L-9,1 Z " fill="#2E567C" transform="translate(192,304)"/>
<path d="M0,0 L31,0 L32,4 L30,11 L24,14 L16,14 L13,12 L25,12 L25,10 L28,10 L29,2 L0,2 L-1,10 L-2,10 L-2,2 Z " fill="#E7B46E" transform="translate(374,305)"/>
<path d="M0,0 L11,1 L12,4 L18,4 L21,6 L45,7 L43,9 L26,10 L19,8 L6,3 L5,8 L2,13 L1,13 L1,8 L3,8 L3,3 L0,2 Z M11,0 Z " fill="#E4932B" transform="translate(227,264)"/>
<path d="M0,0 L6,1 L8,6 L14,7 L14,8 L6,8 L6,10 L1,11 L-4,12 L-11,12 L-10,7 L-1,5 Z M-6,8 Z M-7,9 Z " fill="#E57F2F" transform="translate(207,257)"/>
<path d="M0,0 L10,0 L8,2 L-8,5 L-25,6 L-28,6 L-29,9 L-38,9 L-34,6 L-25,3 L-12,1 Z " fill="#E38F49" transform="translate(216,234)"/>
<path d="M0,0 L7,0 L10,6 L9,8 L12,8 L13,5 L19,3 L21,5 L22,11 L18,12 L10,12 L4,10 L5,1 L0,1 Z " fill="#1B2F79" transform="translate(145,348)"/>
<path d="M0,0 L5,2 L6,5 L9,6 L9,10 L12,10 L12,16 L39,16 L38,9 L42,13 L41,18 L13,18 L8,13 L1,2 Z " fill="#F7D671" transform="translate(310,282)"/>
<path d="M0,0 L4,0 L5,5 L5,13 L9,23 L13,29 L16,31 L23,31 L28,33 L27,35 L25,34 L13,33 L13,31 L8,29 L4,23 L1,6 L2,2 L0,2 Z " fill="#EFCF5F" transform="translate(320,256)"/>
<path d="M0,0 L12,0 L21,4 L19,6 L9,3 L4,4 L-1,5 L-7,4 L-9,8 L-12,13 L-14,11 L-15,10 L-10,3 Z " fill="#EAA03D" transform="translate(306,304)"/>
<path d="M0,0 L5,1 L4,5 L7,5 L5,10 L-5,12 L-16,14 L-17,15 L-24,15 L-20,13 L-16,11 L-11,8 L-7,8 L-2,7 Z " fill="#E96D18" transform="translate(192,264)"/>
<path d="M0,0 L3,3 L2,4 L2,10 L3,15 L2,20 L-1,23 L-4,20 L-5,24 L-5,16 L-3,4 L0,3 Z M2,8 Z " fill="#184185" transform="translate(173,334)"/>
<path d="M0,0 L5,1 L5,4 L3,4 L4,9 L3,16 L5,17 L3,21 L1,21 L-2,18 L-3,8 Z " fill="#F14A0B" transform="translate(211,376)"/>
<path d="M0,0 L1,0 L2,15 L4,17 L16,18 L18,8 L21,8 L21,2 L23,0 L24,6 L21,14 L17,20 L3,20 L0,17 Z " fill="#DF5723" transform="translate(251,340)"/>
<path d="M0,0 L12,0 L16,4 L16,9 L-11,9 L-12,5 L-10,3 L-9,7 L2,7 L5,8 L6,6 L8,5 L9,2 L0,1 Z " fill="#F3CF1B" transform="translate(333,289)"/>
<path d="M0,0 L11,0 L13,1 L13,8 L11,4 L10,3 L4,3 L-1,8 L-3,17 L-3,26 L0,30 L-4,29 L-6,23 L-6,10 L-2,1 Z " fill="#E4894B" transform="translate(303,317)"/>
<path d="M0,0 L4,0 L4,3 L7,4 L7,10 L5,7 L2,4 L-5,3 L-6,14 L-7,16 L-8,27 L-9,27 L-9,10 L-11,10 L-9,1 Z " fill="#0A5795" transform="translate(195,315)"/>
<path d="M0,0 L5,0 L2,3 L-2,3 L-1,6 L-2,8 L10,8 L10,10 L13,11 L-13,10 L-15,10 L-13,6 L-9,3 Z " fill="#F2510F" transform="translate(90,265)"/>
<path d="M0,0 L3,4 L4,15 L14,19 L14,21 L3,18 L1,16 L0,8 L-7,9 L-15,9 L-16,11 L-17,6 L-2,6 Z " fill="#D96938" transform="translate(296,370)"/>
<path d="M0,0 L4,1 L3,6 L2,7 L2,9 L4,9 L4,5 L10,7 L16,10 L17,14 L16,17 L12,17 L11,12 L1,10 L-1,8 L-1,1 Z " fill="#F14A08" transform="translate(300,377)"/>
<path d="M0,0 L15,0 L18,4 L18,8 L15,7 L12,4 L12,2 L1,3 L-1,8 L-2,11 L-4,11 L-6,20 L-9,20 L-8,15 Z " fill="#498EAA" transform="translate(141,305)"/>
<path d="M0,0 L6,1 L9,5 L8,7 L4,3 L-6,2 L-6,11 L-5,14 L-5,43 L-6,43 L-7,26 L-8,21 L-9,18 L-8,16 L-9,12 L-8,2 L-7,1 Z " fill="#D29B68" transform="translate(227,304)"/>
<path d="M0,0 L1,2 L-2,9 L14,9 L13,6 L16,7 L15,11 L18,12 L-6,12 L-7,8 Z " fill="#E88049" transform="translate(116,288)"/>
<path d="M0,0 L2,1 L2,3 L10,4 L9,10 L20,9 L21,11 L14,14 L8,14 L8,12 L6,11 L3,7 L-1,9 L-3,10 L-3,7 L-1,5 Z " fill="#044692" transform="translate(131,328)"/>
<path d="M0,0 L8,0 L21,4 L21,8 L23,8 L24,14 L21,14 L18,14 L15,6 L10,5 L7,2 L-1,2 Z " fill="#056BB4" transform="translate(191,306)"/>
<path d="M0,0 L12,0 L13,6 L13,15 L9,36 L8,36 L8,20 L10,16 L10,4 L5,2 L1,3 Z M7,1 Z " fill="#EE9624" transform="translate(340,307)"/>
<path d="M0,0 L2,0 L3,2 L3,14 L-12,14 L-14,9 L-10,10 L-9,11 L0,11 L0,8 L-4,9 L-4,7 L-2,7 L-2,4 L0,4 Z " fill="#DD561E" transform="translate(378,345)"/>
<path d="M0,0 L3,0 L4,6 L2,7 L10,8 L10,10 L6,12 L-5,12 L-3,8 L-4,4 Z " fill="#EEAC39" transform="translate(278,208)"/>
<path d="M0,0 L10,0 L10,1 L-2,3 L-5,7 L-9,7 L-10,13 L-11,15 L-10,26 L-9,29 L-11,29 L-14,23 L-14,13 L-10,5 L-3,1 Z " fill="#DB7546" transform="translate(220,369)"/>
<path d="M0,0 L2,1 L0,15 L-4,24 L-7,28 L-9,28 L-9,30 L-12,32 L-15,31 L-10,27 L-8,20 L-4,20 L-3,11 Z " fill="#E07B44" transform="translate(331,326)"/>
<path d="M0,0 L2,1 L1,15 L-1,25 L-6,30 L-5,19 L-3,9 Z " fill="#E58B3C" transform="translate(374,307)"/>
<path d="M0,0 L2,4 L5,4 L5,6 L0,5 L0,8 L-10,10 L-25,11 L-28,10 L-28,5 L-25,6 L-25,8 L-22,7 L-14,8 L-6,6 L-3,6 L-2,1 Z " fill="#052277" transform="translate(197,349)"/>
<path d="M0,0 L10,0 L11,1 L11,8 L8,13 L7,14 L-5,14 L-5,25 L-6,31 L-7,31 L-7,18 L-6,11 L8,11 L8,7 L10,7 L10,2 L0,2 Z " fill="#DA8B5C" transform="translate(388,325)"/>
<path d="M0,0 L1,3 L17,3 L18,7 L19,14 L34,15 L34,16 L18,17 L14,12 L15,5 L0,5 L-1,2 Z " fill="#DC5B27" transform="translate(347,344)"/>
<path d="M0,0 L2,1 L0,4 L-1,7 L-13,10 L-15,8 L-15,5 L-21,4 L-17,1 L-11,2 L-12,5 L-4,5 L-4,2 Z " fill="#E8571D" transform="translate(125,272)"/>
<path d="M0,0 L3,4 L4,21 L0,21 L-1,26 L5,26 L3,29 L-3,27 L-2,19 L0,14 Z " fill="#E9A43B" transform="translate(272,273)"/>
<path d="M0,0 L3,0 L2,5 L0,9 L2,12 L-1,14 L-2,12 L-6,10 L-6,8 L-10,10 L-9,5 Z " fill="#F1B020" transform="translate(301,256)"/>
<path d="M0,0 L5,0 L2,3 L2,5 L5,6 L1,9 L-1,9 L-1,21 L-2,21 L-3,12 L-6,11 L-6,9 L-8,9 L-8,6 L-1,2 Z " fill="#E74D11" transform="translate(152,371)"/>
<path d="M0,0 L6,1 L7,5 L7,14 L2,15 L2,8 L0,8 Z " fill="#E4982B" transform="translate(265,256)"/>
<path d="M0,0 L9,0 L11,2 L14,6 L14,11 L12,12 L9,7 L8,1 L6,1 L6,3 L0,5 L-1,8 L-4,8 L-4,10 L-6,9 L-2,1 Z " fill="#0672BC" transform="translate(144,307)"/>
<path d="M0,0 L5,5 L8,11 L9,21 L7,30 L5,28 L5,10 L1,10 L2,4 L0,4 Z " fill="#246F9C" transform="translate(115,307)"/>
<path d="M0,0 L5,1 L5,5 L3,6 L-8,6 L-10,5 L-8,1 Z " fill="#F34B0B" transform="translate(226,393)"/>
<path d="M0,0 L6,1 L6,3 L1,6 L-20,7 L-23,5 L-10,4 L-8,3 L0,3 Z " fill="#334A7D" transform="translate(197,354)"/>
<path d="M0,0 L7,2 L9,6 L14,7 L31,7 L27,10 L16,11 L6,7 Z " fill="#D37749" transform="translate(284,351)"/>
<path d="M0,0 L2,3 L2,5 L17,6 L15,9 L-1,9 L-1,1 Z " fill="#F44A09" transform="translate(273,389)"/>
<path d="M0,0 L9,1 L13,4 L12,7 L3,7 L0,6 L-1,1 Z " fill="#EB4E10" transform="translate(222,371)"/>
<path d="M0,0 L5,1 L8,5 L6,9 L-1,13 L-10,13 L-16,10 L-12,9 L-12,11 L4,9 L3,4 L4,3 Z " fill="#D47B4B" transform="translate(227,389)"/>
<path d="M0,0 L1,2 L-2,5 L-5,8 L-5,17 L-7,17 L-8,22 L-11,22 L-7,6 L-5,3 L-3,3 L-3,1 Z " fill="#E78A40" transform="translate(293,313)"/>
<path d="M0,0 L5,4 L7,9 L16,10 L17,12 L5,11 L0,7 L-6,4 L-6,2 Z " fill="#E49040" transform="translate(215,288)"/>
<path d="M0,0 L4,2 L4,7 L9,12 L12,11 L13,20 L11,20 L11,16 L7,15 L6,12 L0,8 L-1,3 Z M4,0 Z " fill="#F3B91C" transform="translate(308,272)"/>
<path d="M0,0 L7,0 L8,2 L7,11 L5,13 L6,1 L2,3 L0,9 L-1,11 L-12,12 L-13,7 L-12,10 L-2,10 L-1,2 Z " fill="#DD5019" transform="translate(260,371)"/>
<path d="M0,0 L4,0 L5,3 L2,3 L1,14 L-1,14 L-2,27 L-4,28 L-4,19 L-2,13 L-2,3 Z " fill="#D3622D" transform="translate(240,368)"/>
<path d="M0,0 L2,4 L2,12 L4,12 L7,3 L8,3 L8,13 L2,15 L0,16 L-2,3 L0,3 Z " fill="#2979AA" transform="translate(72,312)"/>
<path d="M0,0 L10,0 L12,2 L12,5 L16,7 L8,7 L5,5 L-1,4 Z " fill="#F08F22" transform="translate(240,264)"/>
<path d="M0,0 L10,0 L10,2 L-2,3 L-6,6 L-9,6 L-10,9 L-12,9 L-14,13 L-15,11 L-17,10 L-10,4 Z " fill="#448EB6" transform="translate(97,304)"/>
<path d="M0,0 L2,4 L0,7 L-10,9 L-17,12 L-19,10 L-9,4 L0,3 Z " fill="#E46231" transform="translate(96,258)"/>
<path d="M0,0 L2,0 L3,3 L13,5 L12,9 L1,11 L0,9 L3,8 L3,6 L0,6 Z " fill="#F14E0D" transform="translate(278,378)"/>
<path d="M0,0 L6,0 L6,1 L0,3 L-3,6 L-3,14 L3,14 L8,10 L8,15 L9,17 L6,18 L6,16 L-2,17 L-2,15 L-5,15 L-5,3 Z " fill="#DC7850" transform="translate(156,377)"/>
<path d="M0,0 L6,0 L8,2 L6,7 L2,8 L1,11 L0,9 L-3,8 L-1,8 L0,3 L-2,1 Z " fill="#044790" transform="translate(49,330)"/>
<path d="M0,0 L9,0 L14,5 L15,10 L14,11 L5,11 L7,10 L7,8 L9,8 L9,3 L0,1 Z " fill="#E9A652" transform="translate(231,289)"/>
<path d="M0,0 L1,3 L5,5 L5,7 L8,6 L12,10 L12,15 L14,16 L11,16 L4,8 L-3,6 L-4,3 Z " fill="#EEC657" transform="translate(295,263)"/>
<path d="M0,0 L1,4 L-4,18 L-5,22 L-5,27 L-9,29 L-8,18 L-2,6 Z " fill="#E2A057" transform="translate(273,305)"/>
<path d="M0,0 L5,2 L5,11 L11,11 L11,4 L12,4 L12,13 L9,14 L2,13 L2,5 L3,2 L-1,1 Z " fill="#CE6741" transform="translate(252,388)"/>
<path d="M0,0 L4,2 L7,12 L5,15 L3,15 L0,8 Z " fill="#F54A08" transform="translate(115,382)"/>
<path d="M0,0 L21,0 L20,11 L15,13 L7,13 L4,11 L16,11 L16,9 L19,9 L20,1 L0,1 Z " fill="#E7A954" transform="translate(383,306)"/>
<path d="M0,0 L1,2 L10,0 L18,0 L14,2 L10,3 L7,5 L-11,5 L-11,7 L-15,7 L-15,5 L0,2 Z " fill="#EF821D" transform="translate(226,233)"/>
<path d="M0,0 L2,3 L4,14 L2,14 L1,23 L0,23 L-1,16 L-2,16 L-2,11 L-1,10 Z " fill="#F0DA65" transform="translate(335,220)"/>
<path d="M0,0 L10,0 L12,5 L14,19 L12,17 L10,7 L9,6 L9,1 L1,1 L2,6 L-2,8 L-3,10 L-5,10 L-3,5 Z " fill="#D84F1C" transform="translate(187,370)"/>
<path d="M0,0 L2,3 L2,11 L17,12 L17,15 L8,15 L7,14 L0,13 L-1,10 L-1,1 Z " fill="#F15614" transform="translate(345,337)"/>
<path d="M0,0 L1,0 L1,6 L3,6 L3,4 L7,4 L5,8 L3,13 L3,16 L-2,17 L-2,19 L-4,18 L-1,13 Z " fill="#EE6C19" transform="translate(317,324)"/>
<path d="M0,0 L11,2 L15,9 L15,13 L13,13 L13,8 L10,9 L10,4 L8,4 L8,6 L3,7 L2,4 L0,3 Z " fill="#F49828" transform="translate(317,307)"/>
<path d="M0,0 L3,1 L3,9 L1,13 L-7,17 L-17,17 L-20,15 L-12,15 L-2,13 L-2,10 L1,10 Z " fill="#D1744D" transform="translate(318,385)"/>
<path d="M0,0 L2,1 L2,12 L1,14 L4,15 L2,23 L0,23 L-1,21 L-1,6 Z " fill="#2C568B" transform="translate(74,326)"/>
<path d="M0,0 L28,1 L26,3 L9,4 L2,2 Z " fill="#E1A04E" transform="translate(244,270)"/>
<path d="M0,0 L2,1 L-1,4 L-9,4 L-16,8 L-20,9 L-14,2 L-13,1 Z " fill="#ECBD42" transform="translate(317,187)"/>
<path d="M0,0 L4,1 L5,4 L4,11 L-2,11 L-3,8 Z M0,5 L-1,9 L2,9 L1,5 Z " fill="#DD5822" transform="translate(190,378)"/>
<path d="M0,0 L1,4 L-3,16 L-5,21 L-6,21 L-7,13 L-5,8 L-2,2 L0,2 Z " fill="#DE7944" transform="translate(247,336)"/>
<path d="M0,0 L1,2 L3,2 L5,4 L10,2 L8,7 L5,14 L3,11 L2,6 L0,6 L-1,2 Z " fill="#F16E1C" transform="translate(258,330)"/>
<path d="M0,0 L5,1 L4,4 L-7,3 L2,8 L0,10 L-2,8 L-10,5 L-9,1 Z " fill="#D97A50" transform="translate(316,376)"/>
<path d="M0,0 L5,1 L8,4 L8,7 L5,10 L3,10 L3,12 L-1,11 L-5,8 L4,8 L2,4 L2,1 Z " fill="#D7764D" transform="translate(230,370)"/>
<path d="M0,0 L4,5 L3,8 L6,8 L7,5 L13,3 L15,6 L12,9 L3,10 L1,8 Z " fill="#05257C" transform="translate(151,348)"/>
<path d="M0,0 L1,0 L1,9 L-10,9 L-13,8 L-13,6 L-2,4 L0,4 Z " fill="#1B2C7C" transform="translate(132,351)"/>
<path d="M0,0 L2,1 L2,23 L0,22 L-1,6 L-1,1 Z " fill="#DF832F" transform="translate(261,312)"/>
<path d="M0,0 L13,1 L12,4 L8,3 L7,6 L4,7 L2,4 L0,9 L-1,9 L-1,2 Z " fill="#0776BA" transform="translate(176,306)"/>
<path d="M0,0 L1,0 L2,7 L3,11 L2,12 L-8,12 L-8,4 L-6,4 L-5,2 L-4,6 L-6,9 L0,10 Z " fill="#2C5B8C" transform="translate(148,326)"/>
<path d="M0,0 L3,1 L2,2 L2,13 L3,15 L1,15 L1,17 L-3,16 L-3,11 L-1,11 L-2,2 Z " fill="#F27C13" transform="translate(289,319)"/>
<path d="M0,0 L10,0 L13,8 L16,19 L15,23 L15,21 L13,21 L9,1 L0,1 Z " fill="#D78967" transform="translate(188,369)"/>
<path d="M0,0 L2,0 L4,10 L6,17 L1,16 L0,14 Z " fill="#D85E1E" transform="translate(282,335)"/>
<path d="M0,0 L3,0 L4,9 L3,15 L-1,13 L-1,8 L-1,5 Z " fill="#F88B1D" transform="translate(257,309)"/>
<path d="M0,0 L10,0 L8,6 L2,6 L1,2 L-2,3 L-3,1 Z " fill="#EB7C1F" transform="translate(212,256)"/>
<path d="M0,0 L0,3 L-3,9 L-1,9 L0,25 L-2,26 L-3,23 L-4,4 Z " fill="#F1C020" transform="translate(323,249)"/>
<path d="M0,0 L1,0 L2,15 L4,17 L16,18 L16,20 L3,20 L0,17 Z " fill="#D27546" transform="translate(251,340)"/>
<path d="M0,0 L2,3 L4,9 L5,12 L13,12 L16,9 L15,14 L4,14 L1,12 L0,9 Z " fill="#ED500F" transform="translate(224,344)"/>
<path d="M0,0 L2,0 L2,2 L5,2 L5,4 L8,5 L7,15 L5,13 L4,5 L1,5 L1,10 L0,10 L-1,2 Z " fill="#285086" transform="translate(44,337)"/>
<path d="M0,0 L2,0 L2,7 L1,12 L-1,16 L-3,18 L-3,3 Z " fill="#E28020" transform="translate(336,324)"/>
<path d="M0,0 L2,0 L3,15 L3,18 L1,19 L1,11 L-2,12 L-4,10 Z " fill="#E57D2B" transform="translate(234,317)"/>
<path d="M0,0 L1,2 L0,11 L-3,14 L-5,27 L-7,27 L-6,15 L-3,9 Z " fill="#E19F53" transform="translate(245,305)"/>
<path d="M0,0 L2,3 L-3,12 L-4,20 L-6,20 L-7,22 L-7,15 L-4,7 Z " fill="#38578E" transform="translate(125,337)"/>
<path d="M0,0 L6,0 L5,3 L3,3 L5,7 L5,10 L8,11 L6,13 L6,15 L4,15 L3,7 L0,7 L-2,3 Z " fill="#1A4987" transform="translate(60,336)"/>
<path d="M0,0 L1,0 L4,18 L4,23 L0,21 L0,13 L-2,9 Z " fill="#23578A" transform="translate(162,330)"/>
<path d="M0,0 L4,1 L6,5 L6,11 L1,16 L1,10 L2,5 Z " fill="#EFD766" transform="translate(336,187)"/>
<path d="M0,0 L11,0 L12,2 L-2,2 L-4,6 L-8,8 L-11,8 L-10,6 L-3,1 Z " fill="#DA855E" transform="translate(154,369)"/>
<path d="M0,0 L1,0 L1,12 L-4,22 L-10,24 L-11,21 L-5,20 L-4,16 L-1,11 Z " fill="#D98D4C" transform="translate(315,326)"/>
<path d="M0,0 L3,3 L4,1 L6,1 L8,5 L10,6 L9,9 L2,9 Z M6,5 Z " fill="#043D8E" transform="translate(202,337)"/>
<path d="M0,0 L2,0 L0,11 L-10,11 L-10,6 L-8,8 L-2,9 L-1,1 Z " fill="#BE6441" transform="translate(245,390)"/>
<path d="M0,0 L5,2 L6,5 L9,6 L9,10 L12,10 L12,15 L9,15 L3,5 Z " fill="#EBC446" transform="translate(310,282)"/>
<path d="M0,0 L4,0 L4,3 L7,4 L7,10 L5,7 L2,4 L-9,4 L-9,1 Z " fill="#3881B2" transform="translate(195,315)"/>
<path d="M0,0 L2,1 L-3,6 L4,7 L1,9 L-6,11 L-8,10 L-6,5 Z " fill="#CC845F" transform="translate(75,269)"/>
<path d="M0,0 L3,0 L3,8 L0,7 L0,13 L-3,12 L-2,1 Z " fill="#F44906" transform="translate(263,372)"/>
<path d="M0,0 L4,0 L5,3 L4,12 L2,13 L1,6 L0,3 L-5,3 L-5,1 Z " fill="#ED5014" transform="translate(162,374)"/>
<path d="M0,0 L2,1 L0,8 L-4,12 L-7,12 L-5,6 L-1,3 Z " fill="#172C67" transform="translate(113,346)"/>
<path d="M0,0 L11,0 L13,1 L13,8 L11,4 L10,3 L3,3 L-1,2 L-3,7 L-4,4 Z " fill="#EB9F42" transform="translate(303,317)"/>
<path d="M0,0 L5,2 L12,4 L16,6 L14,7 L7,7 L3,7 L1,5 Z " fill="#E6892C" transform="translate(225,286)"/>
<path d="M0,0 L2,1 L-2,6 L0,5 L9,5 L13,7 L9,8 L-6,7 Z " fill="#D55828" transform="translate(77,269)"/>
<path d="M0,0 L5,0 L4,3 L-3,3 L-4,6 L-13,6 L-9,3 Z " fill="#DD7F49" transform="translate(191,237)"/>
<path d="M0,0 L8,0 L8,2 L4,3 L2,7 L-7,8 L-5,6 L-1,5 Z " fill="#E6AB65" transform="translate(264,219)"/>
<path d="M0,0 L7,0 L19,3 L19,4 L11,4 L7,3 L-9,2 L-9,1 Z " fill="#6B9BBC" transform="translate(192,304)"/>
<path d="M0,0 L1,2 L-1,7 L-1,12 L-6,12 L-7,8 Z " fill="#D45A2D" transform="translate(116,288)"/>
<path d="M0,0 L2,3 L2,9 L1,10 L0,21 L-2,24 L-4,23 L-3,19 L-1,19 L-3,11 L-1,11 Z " fill="#F6CB1E" transform="translate(333,221)"/>
<path d="M0,0 L2,0 L0,12 L-2,24 L-3,24 L-3,8 Z " fill="#E29C59" transform="translate(351,319)"/>
<path d="M0,0 L1,3 L0,7 L-1,10 L-3,10 L-5,19 L-8,19 L-7,14 Z " fill="#4B81AB" transform="translate(140,306)"/>
<path d="M0,0 L12,0 L16,4 L16,14 L15,14 L14,8 L12,8 L12,4 L10,3 L11,2 L0,1 Z " fill="#E8A656" transform="translate(248,305)"/>
<path d="M0,0 L12,0 L17,2 L13,3 L5,2 L3,3 L-8,3 L-5,1 Z " fill="#ECC17C" transform="translate(306,304)"/>
<path d="M0,0 L1,0 L0,13 L-3,17 L-9,17 L-5,15 L-3,15 L-3,3 L-1,3 Z M-2,6 Z " fill="#062772" transform="translate(43,341)"/>
<path d="M0,0 L5,0 L6,3 L3,8 L2,21 L1,21 Z " fill="#EA8529" transform="translate(315,316)"/>
<path d="M0,0 L5,1 L2,7 L3,10 L0,13 L-2,13 Z " fill="#F39023" transform="translate(245,307)"/>
<path d="M0,0 L4,1 L0,3 L-3,6 L-7,6 L-7,8 L-14,8 L-12,6 Z " fill="#DF7F4C" transform="translate(174,243)"/>
<path d="M0,0 L6,0 L6,7 L4,7 L4,5 L0,5 L-1,8 L-1,2 Z " fill="#EB4707" transform="translate(242,371)"/>
<path d="M0,0 L7,1 L8,6 L5,6 L5,8 L1,8 L2,3 L3,2 Z " fill="#EB4E14" transform="translate(133,371)"/>
<path d="M0,0 L1,2 L-2,13 L-7,23 L-9,22 L-7,16 L-3,6 Z " fill="#E09155" transform="translate(283,320)"/>
<path d="M0,0 L8,3 L7,7 L2,4 L-14,4 L-12,2 L0,2 Z " fill="#1A6DA6" transform="translate(107,304)"/>
<path d="M0,0 L5,0 L2,3 L0,4 L2,9 L-3,8 L-4,7 L-4,2 Z " fill="#E8903E" transform="translate(223,277)"/>
<path d="M0,0 L4,1 L-3,4 L-12,5 L-23,5 L-23,4 L-7,2 Z " fill="#DE8047" transform="translate(182,276)"/>
<path d="M0,0 L2,4 L4,4 L7,10 L2,9 L-2,12 L-1,4 Z " fill="#F1CD2C" transform="translate(332,183)"/>
<path d="M0,0 L1,0 L1,7 L-2,19 L-3,25 L-4,25 L-4,12 L-1,5 Z " fill="#E08866" transform="translate(268,374)"/>
<path d="M0,0 L7,0 L7,3 L14,2 L11,5 L6,4 L1,3 L-3,6 L-2,2 Z " fill="#D67D4F" transform="translate(127,376)"/>
<path d="M0,0 L2,0 L2,16 L-1,15 L-2,6 Z " fill="#C6653A" transform="translate(332,343)"/>
<path d="M0,0 L3,1 L2,5 L-2,5 L-2,10 L-4,10 L-4,1 Z " fill="#F7921E" transform="translate(226,307)"/>
<path d="M0,0 L1,0 L1,8 L-2,13 L-4,13 L-3,6 Z " fill="#113878" transform="translate(120,335)"/>
<path d="M0,0 L1,0 L1,16 L0,18 L-3,18 L-1,6 Z " fill="#306D97" transform="translate(32,323)"/>
<path d="M0,0 L2,2 L0,12 L2,13 L-2,13 L-5,10 L-3,6 L-1,7 Z " fill="#115792" transform="translate(47,318)"/>
<path d="M0,0 L6,1 L8,7 L3,7 L-1,6 Z " fill="#E98C39" transform="translate(207,257)"/>
<path d="M0,0 L2,1 L12,1 L12,3 L4,5 L2,9 L-2,9 L-2,7 L1,6 Z " fill="#E2703F" transform="translate(299,390)"/>
<path d="M0,0 L3,1 L3,3 L6,2 L14,4 L14,5 L3,6 L0,5 Z " fill="#09226F" transform="translate(169,354)"/>
<path d="M0,0 L6,0 L7,2 L6,13 L2,14 L-4,13 L-4,12 L4,11 L4,2 Z " fill="#4183A9" transform="translate(53,317)"/>
<path d="M0,0 L5,1 L5,3 L2,5 L-5,7 L-12,7 L-8,5 L-4,3 Z " fill="#EC6317" transform="translate(180,272)"/>
<path d="M0,0 L18,0 L21,2 L4,2 L-5,4 L-5,1 Z " fill="#CF5323" transform="translate(102,257)"/>
<path d="M0,0 L1,0 L2,10 L5,14 L1,16 L-1,11 L-1,3 Z " fill="#123871" transform="translate(88,333)"/>
<path d="M0,0 L11,0 L9,4 L7,2 L4,2 L4,4 L0,4 L-1,6 L-1,1 Z " fill="#F79823" transform="translate(376,307)"/>
<path d="M0,0 L12,1 L12,10 L11,10 L11,3 L2,3 L-1,1 Z " fill="#EBB466" transform="translate(276,304)"/>
<path d="M0,0 L1,4 L3,4 L4,10 L-1,11 L-2,6 L-3,3 Z " fill="#DE5715" transform="translate(132,288)"/>
<path d="M0,0 L4,1 L-8,5 L-15,5 L-15,3 Z " fill="#E2A867" transform="translate(242,230)"/>
<path d="M0,0 L1,0 L3,15 L4,18 L2,18 L-1,12 L-1,2 Z " fill="#D6643B" transform="translate(207,380)"/>
<path d="M0,0 L6,1 L1,5 L-1,9 L-1,14 L-4,13 L-3,8 L-2,4 L0,4 Z " fill="#DE784F" transform="translate(219,376)"/>
<path d="M0,0 L4,2 L14,2 L14,0 L17,1 L11,5 L4,5 L1,4 Z " fill="#3F588C" transform="translate(53,356)"/>
<path d="M0,0 L1,0 L1,8 L-1,12 L-9,12 L-8,10 L-3,9 L-2,4 Z " fill="#304473" transform="translate(43,348)"/>
<path d="M0,0 L4,2 L9,1 L6,6 L1,7 L-1,5 Z " fill="#F74D0A" transform="translate(254,351)"/>
<path d="M0,0 L2,0 L2,7 L1,12 L-4,12 L0,11 L0,8 L-4,9 L-4,7 L-2,7 L-2,4 L0,4 Z " fill="#F6510E" transform="translate(378,345)"/>
<path d="M0,0 L6,1 L5,5 L3,6 L-3,6 L0,2 L-2,1 Z " fill="#F6840E" transform="translate(235,292)"/>
<path d="M0,0 L2,0 L3,9 L8,14 L7,16 L0,13 Z " fill="#F0A91F" transform="translate(285,279)"/>
<path d="M0,0 L18,0 L18,4 L3,2 Z M15,1 Z " fill="#D78057" transform="translate(91,277)"/>
<path d="M0,0 L12,0 L13,4 L11,8 L8,6 L10,2 L0,1 Z " fill="#CC6E45" transform="translate(281,381)"/>
<path d="M0,0 L1,4 L-1,18 L-3,15 L-3,7 Z " fill="#D57748" transform="translate(115,376)"/>
<path d="M0,0 L12,0 L9,3 L0,3 L-2,1 Z " fill="#3B4B79" transform="translate(90,358)"/>
<path d="M0,0 L2,0 L2,8 L14,9 L14,14 L13,10 L0,10 Z " fill="#DE7A28" transform="translate(384,318)"/>
<path d="M0,0 L1,2 L3,2 L4,0 L5,3 L3,4 L4,6 L2,19 L1,19 Z " fill="#ED8123" transform="translate(221,315)"/>
<path d="M0,0 L3,2 L9,2 L9,4 L7,5 L-2,5 L-3,7 L-2,1 Z M5,3 Z " fill="#0371BB" transform="translate(188,311)"/>
<path d="M0,0 L1,3 L-3,5 L-5,8 L-9,7 L-9,4 Z " fill="#0270B9" transform="translate(112,309)"/>
<path d="M0,0 L8,0 L17,3 L15,5 L10,5 L7,2 L-1,2 Z " fill="#0876B7" transform="translate(191,306)"/>
<path d="M0,0 L2,0 L1,10 L0,17 L-2,16 L-1,4 Z " fill="#3F7AA1" transform="translate(35,307)"/>
<path d="M0,0 L7,0 L17,2 L17,3 L1,3 Z " fill="#F3A628" transform="translate(276,296)"/>
<path d="M0,0 L1,4 L-4,8 L-5,11 L-10,13 L-11,11 L-8,11 L-8,9 L-6,9 L-5,5 L-2,4 L-2,2 L0,2 Z " fill="#F3D96F" transform="translate(335,244)"/>
<path d="M0,0 L2,4 L10,3 L11,1 L15,2 L12,3 L12,5 L9,6 L2,6 L-2,2 L0,2 Z " fill="#05256F" transform="translate(55,353)"/>
<path d="M0,0 L6,0 L9,9 L11,11 L4,10 L5,1 L0,1 Z " fill="#112F66" transform="translate(145,348)"/>
<path d="M0,0 L1,0 L1,11 L-1,15 L-6,16 L-6,14 L-3,11 L-1,7 Z " fill="#42658F" transform="translate(106,330)"/>
<path d="M0,0 L2,0 L2,2 L-2,4 L-4,9 L-1,10 L-8,10 L-7,8 L-5,8 L-6,2 Z " fill="#F6A61C" transform="translate(287,206)"/>
<path d="M0,0 L4,1 L-3,5 L-12,5 L-15,3 L-6,4 L-6,2 L0,2 Z " fill="#D4714C" transform="translate(135,397)"/>
<path d="M0,0 L11,0 L17,3 L16,8 L13,4 L0,1 Z " fill="#D77F61" transform="translate(306,369)"/>
<path d="M0,0 L1,4 L2,2 L4,2 L5,0 L6,3 L3,10 L0,10 Z " fill="#E36418" transform="translate(234,332)"/>
<path d="M0,0 L1,0 L3,12 L2,14 L2,19 L0,15 L-1,5 Z " fill="#236094" transform="translate(159,314)"/>
<path d="M0,0 L2,4 L2,13 L0,13 L-2,3 L0,3 Z " fill="#538FB9" transform="translate(72,312)"/>
<path d="M0,0 L3,1 L2,4 L0,5 L1,7 L-3,7 L-4,10 L-5,5 L-2,2 Z " fill="#1977B4" transform="translate(52,310)"/>
<path d="M0,0 L2,1 L2,3 L4,4 L1,7 L-5,6 L-5,4 L-2,3 L-3,1 Z " fill="#E65E1F" transform="translate(159,261)"/>
<path d="M0,0 L2,1 L4,8 L4,15 L2,15 L2,8 L0,8 Z " fill="#EA951F" transform="translate(265,256)"/>
<path d="M0,0 L7,0 L5,3 L-5,5 L-4,2 Z " fill="#EC6416" transform="translate(178,243)"/>
<path d="M0,0 L1,0 L2,9 L1,11 L-1,11 L-1,13 L-3,13 L-4,15 L-4,12 L-2,12 L-1,1 Z " fill="#EECB35" transform="translate(334,235)"/>
<path d="M0,0 L1,3 L17,3 L18,7 L16,8 L16,4 L0,5 L-1,2 Z " fill="#D88057" transform="translate(347,344)"/>
<path d="M0,0 L6,1 L6,5 L1,7 L-2,6 L0,6 Z " fill="#EF7017" transform="translate(200,257)"/>
<path d="M0,0 L1,2 L-1,9 L3,9 L3,11 L-4,11 L-3,6 Z " fill="#DD4D15" transform="translate(177,389)"/>
<path d="M0,0 L5,1 L5,4 L3,5 L-3,5 L-4,1 Z " fill="#072D71" transform="translate(189,346)"/>
<path d="M0,0 L1,2 L-2,5 L-5,8 L-7,13 L-8,13 L-7,6 L-5,3 L-3,3 L-3,1 Z " fill="#DE8F2F" transform="translate(293,313)"/>
<path d="M0,0 L4,1 L2,13 L0,14 L1,3 L-1,2 Z " fill="#EE862C" transform="translate(250,317)"/>
<path d="M0,0 L2,2 L2,4 L-5,6 L-9,5 L-7,5 L-7,2 Z " fill="#E37629" transform="translate(192,270)"/>
<path d="M0,0 L5,1 L1,11 L-1,12 L-1,7 L1,7 Z " fill="#E1A156" transform="translate(229,265)"/>
<path d="M0,0 L4,1 L0,6 L-2,15 L-3,15 L-3,5 Z " fill="#DF9253" transform="translate(302,319)"/>
<path d="M0,0 L3,0 L2,7 L1,18 L0,18 Z " fill="#426D98" transform="translate(186,324)"/>
<path d="M0,0 L4,1 L8,7 L8,9 L4,8 L1,2 Z M4,9 Z " fill="#045FA8" transform="translate(200,317)"/>
<path d="M0,0 L12,0 L11,3 L8,4 L8,2 L3,3 Z " fill="#F64F0C" transform="translate(126,260)"/>
<path d="M0,0 L2,3 L9,4 L9,2 L11,2 L10,5 L8,6 L-1,5 Z " fill="#D79B82" transform="translate(171,396)"/>
<path d="M0,0 L6,1 L9,5 L8,7 L4,3 L-7,2 L-7,1 Z " fill="#E3B87D" transform="translate(227,304)"/>
<path d="M0,0 L1,2 L0,8 L6,8 L4,11 L-2,9 L-1,1 Z " fill="#E7B564" transform="translate(271,291)"/>
<path d="M0,0 L9,0 L18,1 L18,2 L8,3 L0,2 Z " fill="#E75E21" transform="translate(150,278)"/>
<path d="M0,0 L2,4 L1,5 L-9,7 L-13,6 L-5,3 L0,3 Z " fill="#DB815B" transform="translate(96,258)"/>
<path d="M0,0 L6,0 L7,3 L-1,4 L-1,1 Z " fill="#F04807" transform="translate(153,395)"/>
<path d="M0,0 L2,3 L0,3 L0,9 L-3,10 L-4,13 L-5,10 Z " fill="#3C6797" transform="translate(131,325)"/>
<path d="M0,0 L9,0 L9,3 L0,4 L0,2 L-2,1 Z " fill="#D6792D" transform="translate(203,262)"/>
<path d="M0,0 L5,1 L6,6 L2,6 L2,8 L0,8 L1,5 L5,5 L5,3 L-1,2 Z " fill="#DD511C" transform="translate(133,391)"/>
<path d="M0,0 L8,0 L10,3 L8,5 L7,2 L0,2 L-1,4 Z " fill="#CB7857" transform="translate(260,369)"/>
<path d="M0,0 Z M-1,1 L1,5 L1,7 L-1,7 L0,11 L-3,10 L-3,3 Z " fill="#092876" transform="translate(31,348)"/>
<path d="M0,0 L1,0 L1,11 L-2,12 L-2,5 Z " fill="#063575" transform="translate(185,335)"/>
<path d="M0,0 L2,0 L2,4 L-4,7 L-8,5 L-3,3 Z " fill="#E46F37" transform="translate(158,251)"/>
<path d="M0,0 L2,1 L-1,4 L-11,4 L-10,2 Z " fill="#F2BD25" transform="translate(317,187)"/>
<path d="M0,0 L2,1 L2,5 L0,6 L-7,6 L-3,2 L0,2 Z " fill="#E54C10" transform="translate(229,393)"/>
<path d="M0,0 L3,0 L3,6 L2,8 L-1,8 Z " fill="#E57439" transform="translate(366,346)"/>
<path d="M0,0 L2,4 L5,4 L5,6 L0,5 L0,7 L-2,7 L-2,1 Z " fill="#022B7F" transform="translate(197,349)"/>
<path d="M0,0 L6,2 L2,3 L1,5 L-1,8 L-3,3 Z " fill="#02388A" transform="translate(55,341)"/>
<path d="M0,0 L4,4 L5,11 L3,11 L3,6 L0,7 Z " fill="#E9964D" transform="translate(327,309)"/>
<path d="M0,0 L5,0 L10,8 L8,10 L7,6 L5,6 L5,2 L0,1 Z " fill="#3D7DA1" transform="translate(207,308)"/>
<path d="M0,0 L4,1 L5,3 L-1,3 L-3,7 L-7,6 Z " fill="#F4E794" transform="translate(326,176)"/>
<path d="M0,0 L5,1 L6,3 L-3,4 L-6,2 Z " fill="#D55D2E" transform="translate(226,390)"/>
<path d="M0,0 L1,0 L1,8 L0,10 L-3,10 L-3,4 L0,4 Z " fill="#DE4A14" transform="translate(172,384)"/>
<path d="M0,0 L1,0 L2,6 L-2,8 L-3,10 L-5,10 L-3,5 Z " fill="#DA7548" transform="translate(187,370)"/>
<path d="M0,0 L7,1 L8,3 L-1,4 Z " fill="#F14902" transform="translate(222,371)"/>
<path d="M0,0 L9,0 L5,2 L-4,4 Z " fill="#CF5F2E" transform="translate(303,370)"/>
<path d="M0,0 L3,1 L18,2 L18,3 L2,4 Z " fill="#DC8767" transform="translate(363,357)"/>
<path d="M0,0 L2,3 L-2,11 L-5,10 Z " fill="#2B4A86" transform="translate(125,337)"/>
<path d="M0,0 L1,2 L-2,9 L-4,6 L-4,1 Z " fill="#E66417" transform="translate(265,335)"/>
<path d="M0,0 L1,4 L-2,10 L-4,11 L-3,4 L-1,4 Z " fill="#E76E1A" transform="translate(279,326)"/>
<path d="M0,0 L2,1 L1,9 L-1,13 L-3,13 Z " fill="#EB9E29" transform="translate(274,304)"/>
<path d="M0,0 L2,4 L12,5 L12,6 L0,6 L-1,2 Z " fill="#EFC41E" transform="translate(322,292)"/>
<path d="M0,0 L4,2 L2,2 L1,4 L-11,4 L-11,3 L-3,2 Z " fill="#EA541C" transform="translate(100,260)"/>
<path d="M0,0 L1,0 L1,7 L7,7 L3,9 L-1,8 L-2,5 Z " fill="#DB805C" transform="translate(268,393)"/>
<path d="M0,0 L11,2 L12,5 L1,2 Z " fill="#E18263" transform="translate(298,386)"/>
<path d="M0,0 L2,0 L3,6 L2,12 L1,12 L0,5 L-3,3 L0,3 Z " fill="#BF6222" transform="translate(141,374)"/>
<path d="M0,0 L2,4 L-2,6 L-3,8 L-5,8 L-5,4 L-2,4 Z " fill="#DB5013" transform="translate(186,376)"/>
<path d="M0,0 L9,0 L8,4 L4,3 Z " fill="#D16C3A" transform="translate(225,378)"/>
<path d="M0,0 L7,0 L8,2 L6,3 L-1,3 Z " fill="#F14A06" transform="translate(309,372)"/>
<path d="M0,0 L1,4 L-2,7 L-6,6 L-1,1 Z " fill="#0F2D75" transform="translate(210,347)"/>
<path d="M0,0 L2,0 L3,10 L-1,8 Z " fill="#2E4C7C" transform="translate(163,343)"/>
<path d="M0,0 L2,2 L1,9 L-1,12 L-1,2 Z " fill="#DF7932" transform="translate(273,340)"/>
<path d="M0,0 Z M-9,1 L0,1 L-3,5 L-3,3 L-10,4 Z " fill="#047BC4" transform="translate(48,307)"/>
<path d="M0,0 L2,1 L0,5 L-3,6 L-10,6 L-10,5 L-4,5 L-4,2 Z " fill="#EB4E13" transform="translate(125,272)"/>
<path d="M0,0 L5,1 L4,4 L-2,5 L-1,1 Z " fill="#EEC732" transform="translate(323,251)"/>
<path d="M0,0 L6,0 L5,4 L0,4 Z " fill="#032D66" transform="translate(136,346)"/>
<path d="M0,0 Z M-2,1 L0,2 L1,7 L-1,7 L-2,9 L-3,2 Z M-2,3 Z " fill="#0363AC" transform="translate(38,315)"/>
<path d="M0,0 L5,5 L4,9 L1,10 L2,4 L0,4 Z " fill="#4289B5" transform="translate(115,307)"/>
<path d="M0,0 L5,0 L2,3 L0,9 L-1,9 L-1,2 Z " fill="#538EB5" transform="translate(176,306)"/>
<path d="M0,0 L3,3 L3,7 L0,6 L-3,3 L-3,1 Z " fill="#307BB4" transform="translate(156,306)"/>
<path d="M0,0 L1,0 L2,9 L0,9 L0,5 L-3,5 L-2,1 Z " fill="#F6C217" transform="translate(319,283)"/>
<path d="M0,0 L5,1 L4,4 L-1,5 L-1,2 Z " fill="#EA510D" transform="translate(138,280)"/>
<path d="M0,0 L6,0 L6,3 L-1,4 Z " fill="#F18719" transform="translate(240,264)"/>
<path d="M0,0 L2,0 L1,8 L-2,9 L-1,1 Z " fill="#DA663F" transform="translate(245,390)"/>
<path d="M0,0 L2,0 L3,3 L9,4 L9,5 L0,6 Z " fill="#E2531A" transform="translate(278,378)"/>
<path d="M0,0 L6,1 L6,2 L-1,3 L-3,6 L-5,6 L-3,2 Z " fill="#CB683B" transform="translate(121,370)"/>
<path d="M0,0 L2,1 L0,8 L-4,7 L-3,4 Z " fill="#E9560C" transform="translate(370,339)"/>
<path d="M0,0 L2,1 L0,7 L-2,8 L-3,3 L0,2 Z " fill="#286599" transform="translate(70,327)"/>
<path d="M0,0 L4,4 L4,8 L-1,8 L1,7 Z " fill="#EED362" transform="translate(348,291)"/>
<path d="M0,0 L3,1 L3,4 L-7,3 L-7,2 Z " fill="#FBA615" transform="translate(290,294)"/>
<path d="M0,0 L5,2 L7,6 L6,10 Z " fill="#EED274" transform="translate(310,282)"/>
<path d="M0,0 L7,2 L8,3 L8,8 L4,4 Z " fill="#ECBE2C" transform="translate(308,279)"/>
<path d="M0,0 L4,0 L5,5 L4,7 L1,6 L2,2 L0,2 Z " fill="#ECC654" transform="translate(320,256)"/>
<path d="M0,0 L4,0 L5,4 L2,4 L1,6 L1,3 L-1,3 Z " fill="#D34F24" transform="translate(295,389)"/>
<path d="M0,0 L1,4 L0,8 L-5,8 Z " fill="#DB774D" transform="translate(180,382)"/>
<path d="M0,0 L3,3 L4,7 L3,14 L2,14 Z " fill="#D68556" transform="translate(172,375)"/>
<path d="M0,0 L7,1 L8,6 L5,5 L3,2 Z " fill="#E1480E" transform="translate(133,371)"/>
<path d="M0,0 L4,4 L-2,6 L-2,1 Z " fill="#0762A5" transform="translate(82,314)"/>
<path d="M0,0 L5,0 L5,6 L2,5 L2,2 L0,2 Z " fill="#EF9A2F" transform="translate(282,307)"/>
<path d="M0,0 L2,1 L0,5 L4,5 L4,7 L-1,7 L-2,3 Z " fill="#D68060" transform="translate(111,293)"/>
<path d="M0,0 L12,1 L12,2 L1,4 Z " fill="#E38251" transform="translate(146,279)"/>
<path d="M0,0 L5,0 L4,4 L-1,4 Z " fill="#F17A14" transform="translate(216,258)"/>
<path d="M0,0 L1,0 L1,10 L-2,13 L-1,6 Z " fill="#D5875E" transform="translate(272,372)"/>
<path d="M0,0 L4,1 L5,4 L1,6 L0,1 Z " fill="#F64B04" transform="translate(166,375)"/>
<path d="M0,0 L2,0 L1,6 L-1,8 L-2,4 Z " fill="#D27D33" transform="translate(332,343)"/>
<path d="M0,0 L1,2 L-1,8 L-3,8 L-2,1 Z " fill="#143C6D" transform="translate(201,337)"/>
<path d="M0,0 L2,2 L0,8 L-2,7 L-2,1 Z " fill="#043E93" transform="translate(42,337)"/>
<path d="M0,0 L2,1 L2,6 L-1,8 L-1,1 Z " fill="#EB8C27" transform="translate(251,333)"/>
<path d="M0,0 L1,0 L3,12 L0,11 Z " fill="#E46523" transform="translate(296,334)"/>
<path d="M0,0 L2,0 L1,9 L-1,7 Z " fill="#4D7AA7" transform="translate(121,328)"/>
<path d="M0,0 L1,0 L1,6 L0,8 L-3,8 L-2,4 Z " fill="#E97916" transform="translate(270,319)"/>
<path d="M0,0 L3,3 L2,5 L1,14 L0,14 Z " fill="#6C8688" transform="translate(217,317)"/>
<path d="M0,0 L7,0 L8,4 L5,5 L3,3 Z " fill="#2473B3" transform="translate(104,319)"/>
<path d="M0,0 L9,0 L12,2 L12,4 L0,1 Z " fill="#EBC085" transform="translate(231,289)"/>
<path d="M0,0 L5,2 L5,6 L1,3 L-2,1 Z " fill="#D16A41" transform="translate(166,370)"/>
<path d="M0,0 L7,2 L8,5 L2,3 Z " fill="#D86D42" transform="translate(284,351)"/>
<path d="M0,0 L4,1 L4,6 L0,6 Z " fill="#042772" transform="translate(65,347)"/>
<path d="M0,0 L2,1 L1,6 L-4,7 L-3,4 L-1,3 Z " fill="#093180" transform="translate(113,346)"/>
<path d="M0,0 L2,4 L1,11 L-1,10 Z " fill="#4A82AA" transform="translate(174,316)"/>
<path d="M0,0 L3,1 L1,7 L-2,7 L-1,2 Z " fill="#3778A5" transform="translate(134,318)"/>
<path d="M0,0 L3,2 L1,2 L1,12 L0,12 L-1,4 L-1,1 Z " fill="#F2A83A" transform="translate(386,314)"/>
<path d="M0,0 L6,1 L2,2 L2,5 L-1,6 Z " fill="#F4961A" transform="translate(276,306)"/>
<path d="M0,0 L3,0 L3,2 L11,2 L11,3 L-1,3 Z " fill="#E5A350" transform="translate(339,304)"/>
<path d="M0,0 L2,0 L3,5 L-2,6 Z " fill="#F7D307" transform="translate(342,291)"/>
<path d="M0,0 L2,0 L1,4 L-3,7 L-5,6 Z " fill="#D8733E" transform="translate(122,281)"/>
<path d="M0,0 L1,2 L-1,8 L-3,8 L-4,4 Z " fill="#EAC270" transform="translate(278,208)"/>
<path d="M0,0 L2,1 L-2,6 L-6,5 Z " fill="#F0CF88" transform="translate(301,189)"/>
<path d="M0,0 L3,0 L5,8 L3,8 L0,2 Z " fill="#D67445" transform="translate(206,390)"/>
<path d="M0,0 L2,4 L6,6 L6,7 L0,7 Z " fill="#DC561A" transform="translate(214,385)"/>
<path d="M0,0 L5,0 L5,2 L3,2 L3,8 L2,8 L2,2 L-1,1 Z " fill="#D7521D" transform="translate(119,380)"/>
<path d="M0,0 L4,0 L4,8 L2,9 L1,2 Z " fill="#D77448" transform="translate(162,378)"/>
<path d="M0,0 L4,0 L4,5 L0,3 Z " fill="#E8480F" transform="translate(120,372)"/>
<path d="M0,0 L1,0 L1,8 L-1,11 L-2,4 Z " fill="#374690" transform="translate(43,348)"/>
<path d="M0,0 L5,1 L6,4 L0,4 Z " fill="#E05A1E" transform="translate(299,346)"/>
<path d="M0,0 L1,2 L-1,5 L-9,5 L-9,4 L-3,4 L-3,2 Z " fill="#072C70" transform="translate(103,344)"/>
<path d="M0,0 L2,3 L3,8 L1,10 L0,9 Z " fill="#EA5918" transform="translate(224,344)"/>
<path d="M0,0 L1,0 L1,7 L-3,7 L-2,3 Z " fill="#0A337E" transform="translate(43,341)"/>
<path d="M0,0 L2,0 L3,6 L0,9 Z " fill="#2E5593" transform="translate(114,344)"/>
<path d="M0,0 L1,3 L-1,9 L-3,9 L-2,4 Z " fill="#E56919" transform="translate(248,329)"/>
<path d="M0,0 L5,0 L6,2 L4,2 L4,4 L0,3 Z " fill="#F47018" transform="translate(286,332)"/>
<path d="M0,0 L2,4 L4,8 L0,8 Z " fill="#16548B" transform="translate(107,321)"/>
<path d="M0,0 L2,1 L2,5 L-2,5 L-3,1 Z " fill="#0369AA" transform="translate(100,312)"/>
<path d="M0,0 L5,0 L4,4 L-1,2 Z " fill="#0278C4" transform="translate(92,308)"/>
<path d="M0,0 L5,3 L5,5 L-1,5 Z " fill="#EF9916" transform="translate(272,294)"/>
<path d="M0,0 L5,0 L6,2 L4,5 L1,4 L1,2 Z M3,1 Z " fill="#DF6438" transform="translate(124,275)"/>
<path d="M0,0 L5,0 L2,3 L-2,6 L-2,2 L0,2 Z " fill="#E29F50" transform="translate(223,277)"/>
<path d="M0,0 L4,1 L-1,7 L-3,5 L-1,5 Z " fill="#F9AE1E" transform="translate(293,201)"/>
</svg>
