<?xml version="1.0" encoding="UTF-8"?>
<svg version="1.1" xmlns="http://www.w3.org/2000/svg" width="612" height="408">
<path d="M0,0 L3,0 L3,1 L4,1 L4,2 L5,2 L5,5 L6,5 L6,10 L7,10 L7,9 L8,9 L8,10 L12,10 L12,12 L13,12 L13,18 L12,18 L12,19 L11,19 L11,20 L10,20 L10,22 L9,22 L9,23 L8,23 L8,24 L7,24 L7,25 L6,25 L6,30 L5,30 L5,39 L6,39 L6,42 L7,42 L7,45 L9,45 L9,49 L8,49 L8,61 L6,61 L6,64 L5,64 L5,68 L4,68 L4,69 L5,69 L5,70 L6,70 L6,71 L5,71 L5,72 L4,72 L4,76 L3,76 L3,77 L4,77 L4,78 L2,78 L2,81 L1,81 L1,82 L-1,82 L-1,84 L0,84 L0,88 L-2,88 L-2,91 L-3,91 L-3,93 L-4,93 L-4,94 L-6,94 L-6,98 L-7,98 L-7,99 L-8,99 L-8,100 L-9,100 L-9,101 L-10,101 L-10,102 L-11,102 L-11,103 L-12,103 L-12,105 L-13,105 L-13,106 L-14,106 L-14,107 L-13,107 L-13,109 L-14,109 L-14,111 L-15,111 L-15,114 L-16,114 L-16,118 L-17,118 L-17,124 L-18,124 L-18,134 L-17,134 L-17,141 L-16,141 L-16,147 L-15,147 L-15,150 L-14,150 L-14,152 L-8,152 L-8,153 L-6,153 L-6,154 L-5,154 L-5,155 L-4,155 L-4,156 L-3,156 L-3,157 L-2,157 L-2,159 L0,159 L0,160 L14,160 L14,161 L23,161 L23,162 L26,162 L26,164 L23,164 L23,165 L-2,165 L-2,164 L-52,164 L-52,163 L-58,163 L-58,164 L-60,164 L-60,163 L-67,163 L-67,164 L-88,164 L-88,163 L-89,163 L-89,164 L-91,164 L-91,163 L-93,163 L-93,164 L-94,164 L-94,163 L-98,163 L-98,164 L-154,164 L-154,165 L-182,165 L-182,164 L-183,164 L-183,162 L-180,162 L-180,161 L-166,161 L-166,160 L-151,160 L-151,158 L-150,158 L-150,155 L-149,155 L-149,154 L-148,154 L-148,153 L-147,153 L-147,152 L-146,152 L-146,151 L-145,151 L-145,150 L-144,150 L-144,148 L-143,148 L-143,145 L-142,145 L-142,143 L-143,143 L-143,144 L-145,144 L-145,145 L-147,145 L-147,147 L-151,147 L-151,146 L-152,146 L-152,147 L-154,147 L-154,148 L-155,148 L-155,149 L-159,149 L-159,150 L-164,150 L-164,151 L-170,151 L-170,150 L-173,150 L-173,147 L-175,147 L-175,146 L-178,146 L-178,145 L-180,145 L-180,143 L-182,143 L-182,142 L-183,142 L-183,141 L-184,141 L-184,140 L-186,140 L-186,139 L-187,139 L-187,138 L-188,138 L-188,137 L-187,137 L-187,136 L-178,136 L-178,135 L-175,135 L-175,133 L-173,133 L-173,132 L-172,132 L-172,131 L-170,131 L-170,130 L-168,130 L-168,129 L-166,129 L-166,128 L-164,128 L-164,127 L-163,127 L-163,126 L-160,126 L-160,125 L-158,125 L-158,124 L-156,124 L-156,123 L-154,123 L-154,122 L-155,122 L-155,121 L-154,121 L-154,120 L-153,120 L-153,119 L-152,119 L-152,118 L-150,118 L-150,117 L-149,117 L-149,116 L-147,116 L-147,115 L-145,115 L-145,114 L-143,114 L-143,113 L-141,113 L-141,112 L-139,112 L-139,111 L-138,111 L-138,110 L-137,110 L-137,108 L-136,108 L-136,107 L-135,107 L-135,106 L-133,106 L-133,105 L-132,105 L-132,104 L-130,104 L-130,103 L-128,103 L-128,102 L-126,102 L-126,101 L-124,101 L-124,100 L-123,100 L-123,99 L-121,99 L-121,98 L-118,98 L-118,97 L-117,97 L-117,96 L-115,96 L-115,95 L-114,95 L-114,94 L-112,94 L-112,93 L-111,93 L-111,92 L-109,92 L-109,91 L-108,91 L-108,90 L-105,90 L-105,89 L-104,89 L-104,88 L-102,88 L-102,87 L-99,87 L-99,86 L-95,86 L-95,85 L-92,85 L-92,84 L-90,84 L-90,83 L-84,83 L-84,82 L-77,82 L-77,81 L-75,81 L-75,80 L-74,80 L-74,79 L-73,79 L-73,78 L-72,78 L-72,77 L-70,77 L-70,76 L-69,76 L-69,74 L-68,74 L-68,75 L-67,75 L-67,74 L-65,74 L-65,73 L-64,73 L-64,72 L-62,72 L-62,71 L-61,71 L-61,70 L-60,70 L-60,69 L-61,69 L-61,66 L-58,66 L-58,65 L-57,65 L-57,60 L-56,60 L-56,59 L-55,59 L-55,58 L-53,58 L-53,56 L-52,56 L-52,55 L-51,55 L-51,54 L-50,54 L-50,51 L-49,51 L-49,50 L-48,50 L-48,49 L-51,49 L-51,48 L-54,48 L-54,45 L-51,45 L-51,44 L-49,44 L-49,43 L-48,43 L-48,42 L-47,42 L-47,41 L-46,41 L-46,40 L-45,40 L-45,39 L-44,39 L-44,38 L-43,38 L-43,37 L-41,37 L-41,36 L-40,36 L-40,35 L-37,35 L-37,34 L-36,34 L-36,33 L-34,33 L-34,32 L-33,32 L-33,29 L-32,29 L-32,27 L-31,27 L-31,26 L-30,26 L-30,24 L-29,24 L-29,23 L-28,23 L-28,22 L-27,22 L-27,21 L-26,21 L-26,20 L-25,20 L-25,19 L-24,19 L-24,18 L-23,18 L-23,17 L-22,17 L-22,16 L-20,16 L-20,15 L-16,15 L-16,14 L-14,14 L-14,13 L-13,13 L-13,12 L-11,12 L-11,11 L-10,11 L-10,10 L-9,10 L-9,9 L-8,9 L-8,8 L-7,8 L-7,7 L-6,7 L-6,6 L-5,6 L-5,5 L-4,5 L-4,4 L-3,4 L-3,2 L-2,2 L-2,1 L0,1 Z M-48,48 L-48,49 L-47,49 L-47,48 Z M-73,117 L-73,124 L-74,124 L-74,127 L-75,127 L-75,129 L-76,129 L-76,130 L-77,130 L-77,132 L-78,132 L-78,133 L-79,133 L-79,134 L-80,134 L-80,135 L-81,135 L-81,136 L-82,136 L-82,137 L-84,137 L-84,138 L-85,138 L-85,139 L-86,139 L-86,140 L-87,140 L-87,146 L-86,146 L-86,147 L-85,147 L-85,148 L-84,148 L-84,149 L-83,149 L-83,150 L-82,150 L-82,151 L-80,151 L-80,152 L-78,152 L-78,153 L-77,153 L-77,152 L-72,152 L-72,153 L-71,153 L-71,154 L-70,154 L-70,155 L-69,155 L-69,156 L-68,156 L-68,157 L-55,157 L-55,154 L-56,154 L-56,148 L-57,148 L-57,143 L-56,143 L-56,141 L-55,141 L-55,138 L-56,138 L-56,136 L-55,136 L-55,131 L-54,131 L-54,124 L-53,124 L-53,122 L-54,122 L-54,121 L-58,121 L-58,120 L-59,120 L-59,121 L-61,121 L-61,122 L-64,122 L-64,121 L-65,121 L-65,120 L-67,120 L-67,119 L-69,119 L-69,118 L-71,118 L-71,117 Z M-125,122 L-125,124 L-126,124 L-126,126 L-127,126 L-127,128 L-126,128 L-126,127 L-125,127 L-125,126 L-124,126 L-124,122 Z M-36,124 L-36,126 L-37,126 L-37,129 L-38,129 L-38,131 L-39,131 L-39,133 L-40,133 L-40,135 L-41,135 L-41,142 L-42,142 L-42,151 L-41,151 L-41,152 L-39,152 L-39,151 L-38,151 L-38,152 L-36,152 L-36,153 L-34,153 L-34,154 L-33,154 L-33,156 L-32,156 L-32,158 L-25,158 L-25,157 L-26,157 L-26,154 L-27,154 L-27,152 L-28,152 L-28,151 L-29,151 L-29,148 L-30,148 L-30,140 L-32,140 L-32,136 L-33,136 L-33,130 L-34,130 L-34,124 Z M-128,128 L-128,129 L-127,129 L-127,128 Z M-104,132 L-104,133 L-105,133 L-105,135 L-108,135 L-108,136 L-110,136 L-110,137 L-113,137 L-113,138 L-116,138 L-116,139 L-119,139 L-119,140 L-121,140 L-121,141 L-124,141 L-124,142 L-125,142 L-125,143 L-126,143 L-126,144 L-127,144 L-127,145 L-128,145 L-128,146 L-130,146 L-130,147 L-131,147 L-131,149 L-132,149 L-132,150 L-133,150 L-133,152 L-134,152 L-134,154 L-132,154 L-132,155 L-131,155 L-131,157 L-130,157 L-130,158 L-106,158 L-106,157 L-92,157 L-92,156 L-93,156 L-93,154 L-95,154 L-95,153 L-96,153 L-96,152 L-97,152 L-97,151 L-100,151 L-100,150 L-101,150 L-101,149 L-103,149 L-103,148 L-104,148 L-104,145 L-105,145 L-105,141 L-104,141 L-104,139 L-103,139 L-103,138 L-102,138 L-102,137 L-101,137 L-101,132 Z " fill="#FC9603" transform="translate(214,98)"/>
<path d="M0,0 L5,0 L5,1 L4,1 L4,2 L3,2 L3,3 L2,3 L2,4 L1,4 L1,6 L4,6 L4,5 L7,5 L7,7 L6,7 L6,9 L8,9 L8,10 L11,10 L11,9 L13,9 L13,13 L12,13 L12,15 L11,15 L11,17 L9,17 L9,18 L8,18 L8,19 L6,19 L6,20 L5,20 L5,21 L4,21 L4,23 L3,23 L3,26 L2,26 L2,27 L4,27 L4,29 L2,29 L2,30 L0,30 L0,29 L-2,29 L-2,30 L-3,30 L-3,31 L-4,31 L-4,32 L-5,32 L-5,33 L-6,33 L-6,34 L-8,34 L-8,36 L-9,36 L-9,38 L-7,38 L-7,37 L-4,37 L-4,36 L0,36 L0,38 L-1,38 L-1,40 L-2,40 L-2,41 L-7,41 L-7,43 L-8,43 L-8,44 L-9,44 L-9,45 L-13,45 L-13,43 L-14,43 L-14,42 L-13,42 L-13,38 L-12,38 L-12,36 L-11,36 L-11,34 L-10,34 L-10,32 L-11,32 L-11,28 L-14,28 L-14,29 L-15,29 L-15,32 L-16,32 L-16,35 L-20,35 L-20,37 L-21,37 L-21,39 L-22,39 L-22,40 L-21,40 L-21,41 L-19,41 L-19,42 L-20,42 L-20,43 L-21,43 L-21,44 L-22,44 L-22,45 L-23,45 L-23,46 L-24,46 L-24,47 L-25,47 L-25,45 L-24,45 L-24,42 L-25,42 L-25,43 L-26,43 L-26,45 L-27,45 L-27,47 L-31,47 L-31,48 L-33,48 L-33,50 L-36,50 L-36,51 L-35,51 L-35,54 L-39,54 L-39,53 L-40,53 L-40,54 L-42,54 L-42,55 L-43,55 L-43,56 L-47,56 L-47,57 L-52,57 L-52,58 L-58,58 L-58,57 L-61,57 L-61,54 L-63,54 L-63,53 L-66,53 L-66,52 L-68,52 L-68,50 L-70,50 L-70,49 L-71,49 L-71,48 L-72,48 L-72,47 L-74,47 L-74,46 L-75,46 L-75,45 L-76,45 L-76,44 L-75,44 L-75,43 L-66,43 L-66,42 L-63,42 L-63,40 L-61,40 L-61,39 L-60,39 L-60,38 L-58,38 L-58,37 L-56,37 L-56,36 L-54,36 L-54,35 L-52,35 L-52,34 L-51,34 L-51,33 L-48,33 L-48,32 L-46,32 L-46,31 L-44,31 L-44,30 L-42,30 L-42,29 L-43,29 L-43,28 L-42,28 L-42,27 L-41,27 L-41,26 L-40,26 L-40,25 L-38,25 L-38,24 L-37,24 L-37,23 L-35,23 L-35,22 L-33,22 L-33,21 L-31,21 L-31,20 L-29,20 L-29,19 L-27,19 L-27,18 L-26,18 L-26,17 L-25,17 L-25,15 L-24,15 L-24,14 L-23,14 L-23,13 L-21,13 L-21,12 L-20,12 L-20,11 L-18,11 L-18,10 L-16,10 L-16,9 L-14,9 L-14,8 L-12,8 L-12,7 L-11,7 L-11,6 L-9,6 L-9,5 L-6,5 L-6,4 L-5,4 L-5,3 L-3,3 L-3,2 L-2,2 L-2,1 L0,1 Z M0,6 L0,7 L1,7 L1,6 Z M8,8 L9,8 L9,9 L8,9 Z " fill="#FB5307" transform="translate(102,191)"/>
<path d="M0,0 L12,0 L12,1 L13,1 L13,2 L14,2 L14,20 L15,20 L15,19 L16,19 L16,16 L17,16 L17,14 L18,14 L18,13 L17,13 L17,12 L19,12 L19,9 L20,9 L20,7 L21,7 L21,5 L22,5 L22,2 L23,2 L23,1 L24,1 L24,0 L35,0 L35,1 L36,1 L36,19 L37,19 L37,20 L36,20 L36,22 L37,22 L37,21 L38,21 L38,19 L39,19 L39,16 L40,16 L40,13 L41,13 L41,11 L42,11 L42,9 L43,9 L43,5 L44,5 L44,3 L45,3 L45,1 L47,1 L47,0 L58,0 L58,1 L59,1 L59,5 L58,5 L58,7 L57,7 L57,10 L56,10 L56,11 L55,11 L55,14 L54,14 L54,16 L53,16 L53,19 L52,19 L52,20 L51,20 L51,23 L50,23 L50,25 L49,25 L49,27 L48,27 L48,30 L47,30 L47,31 L46,31 L46,34 L45,34 L45,36 L44,36 L44,38 L43,38 L43,41 L42,41 L42,43 L40,43 L40,44 L39,44 L39,43 L27,43 L27,42 L26,42 L26,34 L25,34 L25,24 L24,24 L24,28 L23,28 L23,29 L22,29 L22,31 L21,31 L21,33 L20,33 L20,36 L19,36 L19,39 L18,39 L18,41 L17,41 L17,42 L16,42 L16,43 L8,43 L8,44 L3,44 L3,43 L1,43 L1,31 L0,31 L0,10 L-1,10 L-1,1 L0,1 Z " fill="#F37D12" transform="translate(392,192)"/>
<path d="M0,0 L11,0 L11,1 L12,1 L12,7 L11,7 L11,11 L10,11 L10,15 L9,15 L9,21 L8,21 L8,26 L7,26 L7,30 L6,30 L6,32 L20,32 L20,33 L21,33 L21,32 L22,32 L22,28 L23,28 L23,23 L24,23 L24,18 L25,18 L25,11 L26,11 L26,6 L27,6 L27,3 L28,3 L28,1 L29,1 L29,0 L55,0 L55,1 L56,1 L56,7 L55,7 L55,11 L54,11 L54,12 L40,12 L40,14 L39,14 L39,17 L50,17 L50,18 L51,18 L51,21 L50,21 L50,25 L49,25 L49,28 L47,28 L47,29 L39,29 L39,28 L36,28 L36,34 L35,34 L35,38 L34,38 L34,41 L33,41 L33,43 L28,43 L28,44 L23,44 L23,43 L20,43 L20,39 L19,39 L19,42 L18,42 L18,43 L17,43 L17,44 L16,44 L16,43 L-7,43 L-7,44 L-8,44 L-8,43 L-10,43 L-10,39 L-9,39 L-9,37 L-10,37 L-10,36 L-9,36 L-9,34 L-8,34 L-8,30 L-7,30 L-7,24 L-6,24 L-6,20 L-5,20 L-5,15 L-4,15 L-4,11 L-3,11 L-3,4 L-2,4 L-2,1 L0,1 Z M20,34 L20,37 L21,37 L21,34 Z " fill="#FC6E03" transform="translate(497,192)"/>
<path d="M0,0 L2,0 L2,1 L3,1 L3,3 L9,3 L9,4 L10,4 L10,5 L17,5 L17,6 L21,6 L21,5 L22,5 L22,7 L21,7 L21,16 L20,16 L20,19 L19,19 L19,28 L18,28 L18,39 L19,39 L19,37 L20,37 L20,44 L19,44 L19,45 L6,45 L6,47 L41,47 L41,45 L27,45 L27,44 L26,44 L26,43 L27,43 L27,42 L28,42 L28,40 L27,40 L27,41 L24,41 L24,39 L25,39 L25,31 L26,31 L26,29 L28,29 L28,25 L29,25 L29,24 L30,24 L30,21 L31,21 L31,19 L33,19 L33,21 L32,21 L32,28 L31,28 L31,37 L32,37 L32,38 L34,38 L34,37 L35,37 L35,38 L37,38 L37,39 L39,39 L39,40 L40,40 L40,42 L41,42 L41,44 L48,44 L48,43 L47,43 L47,40 L46,40 L46,38 L45,38 L45,37 L44,37 L44,34 L43,34 L43,26 L41,26 L41,22 L40,22 L40,16 L39,16 L39,10 L37,10 L37,8 L41,8 L41,10 L40,10 L40,14 L42,14 L42,24 L44,24 L44,31 L46,31 L46,34 L47,34 L47,35 L48,35 L48,34 L49,34 L49,40 L51,40 L51,37 L52,37 L52,31 L53,31 L53,29 L54,29 L54,5 L55,5 L55,3 L56,3 L56,1 L57,1 L57,4 L56,4 L56,10 L55,10 L55,20 L56,20 L56,27 L57,27 L57,33 L58,33 L58,36 L59,36 L59,38 L65,38 L65,39 L67,39 L67,40 L68,40 L68,41 L69,41 L69,42 L70,42 L70,43 L71,43 L71,45 L73,45 L73,46 L87,46 L87,47 L96,47 L96,48 L99,48 L99,50 L96,50 L96,51 L71,51 L71,50 L21,50 L21,49 L15,49 L15,50 L13,50 L13,49 L6,49 L6,50 L-15,50 L-15,49 L-16,49 L-16,50 L-18,50 L-18,49 L-20,49 L-20,50 L-21,50 L-21,49 L-22,49 L-22,48 L-13,48 L-13,47 L4,47 L4,45 L3,45 L3,43 L2,43 L2,41 L0,41 L0,40 L-2,40 L-2,41 L-3,41 L-3,40 L-13,40 L-13,38 L-14,38 L-14,40 L-16,40 L-16,43 L-15,43 L-15,44 L-14,44 L-14,45 L-36,45 L-36,46 L-61,46 L-61,45 L-60,45 L-60,41 L-62,41 L-62,36 L-64,36 L-64,35 L-63,35 L-63,34 L-62,34 L-62,33 L-63,33 L-63,32 L-57,32 L-57,33 L-58,33 L-58,35 L-59,35 L-59,36 L-60,36 L-60,38 L-61,38 L-61,40 L-59,40 L-59,41 L-58,41 L-58,43 L-57,43 L-57,44 L-33,44 L-33,43 L-19,43 L-19,42 L-20,42 L-20,40 L-22,40 L-22,39 L-23,39 L-23,38 L-21,38 L-21,39 L-17,39 L-17,38 L-16,38 L-16,37 L-15,37 L-15,34 L-17,34 L-17,30 L-16,30 L-16,32 L-15,32 L-15,26 L-14,26 L-14,22 L-11,22 L-11,20 L-9,20 L-9,19 L-8,19 L-8,16 L-5,16 L-5,15 L-4,15 L-4,13 L-3,13 L-3,12 L-2,12 L-2,1 L0,1 Z M0,3 L0,10 L-1,10 L-1,13 L-2,13 L-2,15 L-3,15 L-3,16 L-4,16 L-4,18 L-5,18 L-5,19 L-6,19 L-6,20 L-7,20 L-7,21 L-8,21 L-8,22 L-9,22 L-9,23 L-11,23 L-11,24 L-12,24 L-12,25 L-13,25 L-13,26 L-14,26 L-14,32 L-13,32 L-13,33 L-12,33 L-12,34 L-11,34 L-11,35 L-10,35 L-10,36 L-9,36 L-9,37 L-7,37 L-7,38 L-5,38 L-5,39 L-4,39 L-4,38 L1,38 L1,39 L2,39 L2,40 L3,40 L3,41 L4,41 L4,42 L5,42 L5,43 L18,43 L18,40 L17,40 L17,34 L16,34 L16,29 L17,29 L17,27 L18,27 L18,24 L17,24 L17,22 L18,22 L18,17 L19,17 L19,10 L20,10 L20,8 L19,8 L19,7 L15,7 L15,6 L14,6 L14,7 L12,7 L12,8 L9,8 L9,7 L8,7 L8,6 L6,6 L6,5 L4,5 L4,4 L2,4 L2,3 Z " fill="#F4810D" transform="translate(141,212)"/>
<path d="M0,0 L15,0 L15,1 L17,1 L17,2 L19,2 L19,3 L20,3 L20,4 L22,4 L22,5 L23,5 L23,6 L24,6 L24,8 L25,8 L25,10 L26,10 L26,12 L27,12 L27,24 L26,24 L26,27 L25,27 L25,28 L24,28 L24,32 L23,32 L23,34 L22,34 L22,35 L21,35 L21,36 L20,36 L20,37 L19,37 L19,38 L18,38 L18,39 L16,39 L16,40 L15,40 L15,41 L13,41 L13,42 L12,42 L12,43 L7,43 L7,44 L-6,44 L-6,43 L-9,43 L-9,42 L-11,42 L-11,41 L-12,41 L-12,40 L-13,40 L-13,39 L-14,39 L-14,38 L-15,38 L-15,37 L-16,37 L-16,35 L-17,35 L-17,32 L-18,32 L-18,30 L-19,30 L-19,28 L-18,28 L-18,25 L-19,25 L-19,24 L-18,24 L-18,21 L-17,21 L-17,18 L-16,18 L-16,15 L-15,15 L-15,13 L-14,13 L-14,11 L-13,11 L-13,10 L-12,10 L-12,8 L-11,8 L-11,7 L-9,7 L-9,5 L-7,5 L-7,4 L-5,4 L-5,3 L-4,3 L-4,2 L-2,2 L-2,1 L0,1 Z M3,12 L3,13 L2,13 L2,14 L1,14 L1,15 L0,15 L0,16 L-1,16 L-1,17 L-2,17 L-2,19 L-3,19 L-3,22 L-4,22 L-4,29 L-3,29 L-3,30 L-2,30 L-2,31 L0,31 L0,32 L5,32 L5,31 L8,31 L8,29 L9,29 L9,28 L10,28 L10,26 L11,26 L11,24 L12,24 L12,15 L11,15 L11,13 L9,13 L9,12 Z " fill="#F65209" transform="translate(463,192)"/>
<path d="M0,0 L13,0 L13,1 L17,1 L17,2 L20,2 L20,3 L21,3 L21,4 L24,4 L24,5 L25,5 L25,6 L26,6 L26,8 L27,8 L27,9 L28,9 L28,11 L29,11 L29,25 L28,25 L28,28 L27,28 L27,30 L26,30 L26,32 L25,32 L25,34 L24,34 L24,35 L23,35 L23,36 L21,36 L21,38 L20,38 L20,39 L18,39 L18,40 L17,40 L17,41 L14,41 L14,42 L11,42 L11,43 L-15,43 L-15,37 L-14,37 L-14,33 L-13,33 L-13,29 L-12,29 L-12,24 L-11,24 L-11,17 L-10,17 L-10,12 L-9,12 L-9,8 L-8,8 L-8,4 L-7,4 L-7,1 L0,1 Z M4,12 L4,16 L3,16 L3,20 L2,20 L2,25 L1,25 L1,32 L8,32 L8,31 L10,31 L10,30 L11,30 L11,29 L12,29 L12,28 L13,28 L13,26 L14,26 L14,24 L15,24 L15,21 L16,21 L16,18 L15,18 L15,15 L14,15 L14,14 L13,14 L13,13 L12,13 L12,12 Z " fill="#2A7ABE" transform="translate(360,192)"/>
<path d="M0,0 L13,0 L13,1 L15,1 L15,2 L18,2 L18,3 L19,3 L19,4 L21,4 L21,5 L22,5 L22,7 L23,7 L23,8 L24,8 L24,9 L25,9 L25,12 L26,12 L26,23 L25,23 L25,27 L24,27 L24,29 L23,29 L23,31 L22,31 L22,33 L21,33 L21,35 L20,35 L20,36 L18,36 L18,38 L17,38 L17,39 L15,39 L15,40 L14,40 L14,41 L12,41 L12,42 L10,42 L10,43 L6,43 L6,44 L-7,44 L-7,43 L-9,43 L-9,42 L-11,42 L-11,41 L-13,41 L-13,40 L-14,40 L-14,39 L-15,39 L-15,38 L-16,38 L-16,37 L-17,37 L-17,35 L-18,35 L-18,31 L-19,31 L-19,21 L-18,21 L-18,17 L-17,17 L-17,14 L-16,14 L-16,12 L-14,12 L-14,10 L-13,10 L-13,8 L-11,8 L-11,7 L-10,7 L-10,6 L-9,6 L-9,5 L-8,5 L-8,4 L-6,4 L-6,3 L-4,3 L-4,2 L-2,2 L-2,1 L0,1 Z M2,12 L2,13 L0,13 L0,14 L-1,14 L-1,15 L-2,15 L-2,16 L-3,16 L-3,18 L-4,18 L-4,20 L-5,20 L-5,29 L-4,29 L-4,31 L-2,31 L-2,32 L5,32 L5,31 L7,31 L7,30 L8,30 L8,29 L9,29 L9,28 L10,28 L10,25 L11,25 L11,22 L12,22 L12,16 L11,16 L11,14 L10,14 L10,12 Z " fill="#135BA6" transform="translate(280,192)"/>
<path d="M0,0 L13,0 L13,1 L18,1 L18,2 L20,2 L20,3 L21,3 L21,4 L23,4 L23,5 L24,5 L24,7 L25,7 L25,10 L26,10 L26,13 L25,13 L25,17 L24,17 L24,19 L23,19 L23,21 L22,21 L22,23 L21,23 L21,24 L19,24 L19,25 L18,25 L18,26 L17,26 L17,27 L15,27 L15,28 L16,28 L16,29 L17,29 L17,32 L18,32 L18,35 L19,35 L19,36 L20,36 L20,37 L22,37 L22,39 L21,39 L21,41 L20,41 L20,42 L19,42 L19,43 L6,43 L6,40 L5,40 L5,36 L4,36 L4,33 L3,33 L3,29 L0,29 L0,31 L-1,31 L-1,38 L-2,38 L-2,43 L-16,43 L-16,40 L-15,40 L-15,35 L-14,35 L-14,28 L-13,28 L-13,22 L-12,22 L-12,19 L-11,19 L-11,15 L-10,15 L-10,7 L-9,7 L-9,3 L-8,3 L-8,1 L0,1 Z M3,12 L3,18 L2,18 L2,19 L9,19 L9,18 L10,18 L10,17 L11,17 L11,12 Z " fill="#176AB7" transform="translate(237,192)"/>
<path d="M0,0 L1,0 L1,1 L13,1 L13,4 L14,4 L14,10 L15,10 L15,15 L16,15 L16,22 L17,22 L17,31 L18,31 L18,39 L19,39 L19,43 L5,43 L5,41 L4,41 L4,36 L-8,36 L-8,37 L-9,37 L-9,39 L-10,39 L-10,40 L-11,40 L-11,43 L-25,43 L-25,42 L-26,42 L-26,41 L-25,41 L-25,40 L-24,40 L-24,38 L-23,38 L-23,36 L-22,36 L-22,34 L-21,34 L-21,32 L-20,32 L-20,31 L-19,31 L-19,28 L-18,28 L-18,27 L-17,27 L-17,25 L-16,25 L-16,24 L-15,24 L-15,21 L-14,21 L-14,20 L-13,20 L-13,19 L-12,19 L-12,16 L-11,16 L-11,14 L-10,14 L-10,13 L-9,13 L-9,12 L-8,12 L-8,9 L-7,9 L-7,7 L-6,7 L-6,6 L-5,6 L-5,3 L-4,3 L-4,2 L-3,2 L-3,1 L0,1 Z M1,17 L1,20 L0,20 L0,21 L-1,21 L-1,23 L-2,23 L-2,24 L-3,24 L-3,25 L3,25 L3,18 L2,18 L2,17 Z " fill="#1F76C0" transform="translate(325,192)"/>
<path d="M0,0 L3,0 L3,4 L4,4 L4,6 L3,6 L3,8 L2,8 L2,10 L1,10 L1,14 L0,14 L0,15 L1,15 L1,17 L5,17 L5,16 L6,16 L6,15 L7,15 L7,13 L12,13 L12,14 L13,14 L13,17 L10,17 L10,18 L7,18 L7,19 L5,19 L5,20 L2,20 L2,21 L1,21 L1,22 L0,22 L0,23 L-1,23 L-1,24 L-2,24 L-2,25 L-10,25 L-10,26 L-9,26 L-9,27 L-10,27 L-10,28 L-11,28 L-11,29 L-9,29 L-9,34 L-7,34 L-7,38 L-8,38 L-8,39 L17,39 L17,38 L39,38 L39,37 L38,37 L38,36 L37,36 L37,33 L39,33 L39,31 L40,31 L40,33 L50,33 L50,34 L51,34 L51,33 L53,33 L53,34 L55,34 L55,36 L56,36 L56,38 L57,38 L57,40 L40,40 L40,41 L31,41 L31,42 L28,42 L28,43 L-28,43 L-28,44 L-56,44 L-56,43 L-57,43 L-57,41 L-54,41 L-54,40 L-40,40 L-40,39 L-25,39 L-25,37 L-24,37 L-24,34 L-23,34 L-23,33 L-22,33 L-22,32 L-21,32 L-21,31 L-20,31 L-20,30 L-19,30 L-19,29 L-18,29 L-18,27 L-17,27 L-17,24 L-16,24 L-16,22 L-17,22 L-17,23 L-19,23 L-19,24 L-21,24 L-21,23 L-22,23 L-22,22 L-19,22 L-19,20 L-17,20 L-17,19 L-13,19 L-13,17 L-12,17 L-12,15 L-11,15 L-11,14 L-10,14 L-10,17 L-11,17 L-11,19 L-10,19 L-10,18 L-9,18 L-9,17 L-8,17 L-8,16 L-7,16 L-7,15 L-6,15 L-6,14 L-5,14 L-5,13 L-7,13 L-7,12 L-8,12 L-8,11 L-7,11 L-7,9 L-6,9 L-6,7 L-2,7 L-2,4 L-1,4 L-1,1 L0,1 Z M1,1 L1,3 L0,3 L0,5 L-1,5 L-1,7 L0,7 L0,6 L1,6 L1,5 L2,5 L2,1 Z M-2,7 L-2,8 L-1,8 L-1,7 Z " fill="#ED701C" transform="translate(88,219)"/>
<path d="M0,0 L3,0 L3,1 L4,1 L4,2 L5,2 L5,5 L6,5 L6,10 L7,10 L7,9 L8,9 L8,10 L12,10 L12,12 L13,12 L13,18 L12,18 L12,19 L11,19 L11,20 L10,20 L10,22 L9,22 L9,23 L8,23 L8,24 L7,24 L7,25 L6,25 L6,30 L5,30 L5,39 L6,39 L6,42 L7,42 L7,45 L9,45 L9,49 L8,49 L8,61 L6,61 L6,64 L5,64 L5,68 L4,68 L4,69 L5,69 L5,70 L6,70 L6,71 L5,71 L5,72 L4,72 L4,76 L3,76 L3,77 L4,77 L4,78 L2,78 L2,81 L1,81 L1,82 L-1,82 L-1,84 L0,84 L0,88 L-2,88 L-2,91 L-3,91 L-3,93 L-4,93 L-4,94 L-6,94 L-6,98 L-7,98 L-7,99 L-8,99 L-8,100 L-9,100 L-9,101 L-10,101 L-10,102 L-11,102 L-11,103 L-12,103 L-12,105 L-13,105 L-13,106 L-14,106 L-14,107 L-13,107 L-13,109 L-14,109 L-14,111 L-15,111 L-15,114 L-16,114 L-16,105 L-15,105 L-15,103 L-14,103 L-14,102 L-13,102 L-13,99 L-12,99 L-12,96 L-9,96 L-9,95 L-8,95 L-8,94 L-7,94 L-7,89 L-8,89 L-8,88 L-7,88 L-7,86 L-6,86 L-6,85 L-7,85 L-7,83 L-5,83 L-5,80 L-4,80 L-4,75 L-3,75 L-3,76 L-2,76 L-2,75 L-1,75 L-1,74 L-2,74 L-2,72 L0,72 L0,71 L1,71 L1,69 L2,69 L2,61 L1,61 L1,58 L0,58 L0,55 L1,55 L1,54 L2,54 L2,56 L3,56 L3,52 L2,52 L2,47 L4,47 L4,48 L5,48 L5,46 L4,46 L4,43 L3,43 L3,41 L2,41 L2,39 L1,39 L1,30 L2,30 L2,27 L3,27 L3,26 L4,26 L4,23 L5,23 L5,22 L4,22 L4,20 L2,20 L2,13 L0,13 L0,12 L1,12 L1,11 L2,11 L2,10 L4,10 L4,8 L-2,8 L-2,10 L-3,10 L-3,14 L-4,14 L-4,13 L-5,13 L-5,14 L-6,14 L-6,15 L-7,15 L-7,16 L-8,16 L-8,18 L-9,18 L-9,19 L-10,19 L-10,20 L-11,20 L-11,21 L-12,21 L-12,22 L-14,22 L-14,23 L-15,23 L-15,25 L-16,25 L-16,27 L-17,27 L-17,28 L-20,28 L-20,27 L-21,27 L-21,28 L-22,28 L-22,26 L-23,26 L-23,25 L-22,25 L-22,24 L-23,24 L-23,23 L-24,23 L-24,24 L-25,24 L-25,25 L-26,25 L-26,26 L-27,26 L-27,27 L-26,27 L-26,28 L-25,28 L-25,30 L-26,30 L-26,31 L-27,31 L-27,33 L-28,33 L-28,34 L-29,34 L-29,35 L-30,35 L-30,36 L-31,36 L-31,37 L-32,37 L-32,36 L-33,36 L-33,37 L-34,37 L-34,38 L-36,38 L-36,37 L-39,37 L-39,38 L-40,38 L-40,41 L-42,41 L-42,42 L-46,42 L-46,43 L-47,43 L-47,44 L-49,44 L-49,43 L-48,43 L-48,42 L-47,42 L-47,41 L-46,41 L-46,40 L-45,40 L-45,39 L-44,39 L-44,38 L-43,38 L-43,37 L-41,37 L-41,36 L-40,36 L-40,35 L-37,35 L-37,34 L-36,34 L-36,33 L-34,33 L-34,32 L-33,32 L-33,29 L-32,29 L-32,27 L-31,27 L-31,26 L-30,26 L-30,24 L-29,24 L-29,23 L-28,23 L-28,22 L-27,22 L-27,21 L-26,21 L-26,20 L-25,20 L-25,19 L-24,19 L-24,18 L-23,18 L-23,17 L-22,17 L-22,16 L-20,16 L-20,15 L-16,15 L-16,14 L-14,14 L-14,13 L-13,13 L-13,12 L-11,12 L-11,11 L-10,11 L-10,10 L-9,10 L-9,9 L-8,9 L-8,8 L-7,8 L-7,7 L-6,7 L-6,6 L-5,6 L-5,5 L-4,5 L-4,4 L-3,4 L-3,2 L-2,2 L-2,1 L0,1 Z M7,14 L7,15 L6,15 L6,18 L5,18 L5,19 L4,19 L4,20 L7,20 L7,19 L8,19 L8,17 L9,17 L9,15 L8,15 L8,14 Z M-28,27 L-28,28 L-27,28 L-27,27 Z " fill="#F6C91F" transform="translate(214,98)"/>
<path d="M0,0 L11,0 L11,1 L12,1 L12,5 L11,5 L11,7 L10,7 L10,10 L9,10 L9,11 L8,11 L8,14 L7,14 L7,16 L6,16 L6,19 L5,19 L5,20 L4,20 L4,23 L3,23 L3,25 L2,25 L2,27 L1,27 L1,30 L0,30 L0,31 L-1,31 L-1,34 L-2,34 L-2,36 L-3,36 L-3,38 L-4,38 L-4,41 L-5,41 L-5,43 L-7,43 L-7,44 L-8,44 L-8,43 L-20,43 L-20,22 L-21,22 L-21,21 L-22,21 L-22,19 L-21,19 L-21,17 L-22,17 L-22,16 L-25,16 L-25,15 L-24,15 L-24,14 L-26,14 L-26,8 L-25,8 L-25,9 L-24,9 L-24,7 L-23,7 L-23,6 L-22,6 L-22,5 L-21,5 L-21,4 L-18,4 L-18,3 L-17,3 L-17,4 L-14,4 L-14,10 L-13,10 L-13,16 L-12,16 L-12,18 L-13,18 L-13,22 L-14,22 L-14,23 L-12,23 L-12,28 L-10,28 L-10,24 L-9,24 L-9,19 L-8,19 L-8,16 L-7,16 L-7,13 L-6,13 L-6,11 L-5,11 L-5,9 L-4,9 L-4,5 L-3,5 L-3,3 L-2,3 L-2,1 L0,1 Z " fill="#FB6D04" transform="translate(439,192)"/>
<path d="M0,0 L2,0 L2,2 L0,2 L0,3 L-2,3 L-2,5 L-5,5 L-5,7 L-7,7 L-7,8 L-8,8 L-8,10 L-9,10 L-9,11 L-11,11 L-11,12 L-13,12 L-13,13 L-15,13 L-15,16 L-18,16 L-18,20 L-21,20 L-21,21 L-23,21 L-23,23 L-25,23 L-25,26 L-23,26 L-23,25 L-21,25 L-21,26 L-19,26 L-19,25 L-17,25 L-17,27 L-18,27 L-18,28 L-19,28 L-19,29 L-17,29 L-17,28 L-15,28 L-15,27 L-14,27 L-14,26 L-13,26 L-13,25 L-12,25 L-12,24 L-11,24 L-11,23 L-10,23 L-10,25 L-11,25 L-11,26 L-12,26 L-12,27 L-13,27 L-13,28 L-14,28 L-14,30 L-17,30 L-17,31 L-18,31 L-18,32 L-19,32 L-19,35 L-20,35 L-20,37 L-19,37 L-19,38 L-18,38 L-18,37 L-16,37 L-16,39 L-17,39 L-17,41 L-20,41 L-20,42 L-19,42 L-19,45 L-23,45 L-23,44 L-24,44 L-24,45 L-26,45 L-26,46 L-27,46 L-27,47 L-31,47 L-31,48 L-36,48 L-36,49 L-42,49 L-42,48 L-45,48 L-45,45 L-47,45 L-47,44 L-50,44 L-50,43 L-52,43 L-52,41 L-54,41 L-54,40 L-55,40 L-55,39 L-56,39 L-56,38 L-58,38 L-58,37 L-59,37 L-59,36 L-60,36 L-60,35 L-59,35 L-59,34 L-50,34 L-50,33 L-47,33 L-47,31 L-45,31 L-45,30 L-44,30 L-44,29 L-42,29 L-42,28 L-40,28 L-40,27 L-38,27 L-38,26 L-36,26 L-36,25 L-35,25 L-35,24 L-32,24 L-32,23 L-30,23 L-30,22 L-28,22 L-28,21 L-26,21 L-26,20 L-27,20 L-27,19 L-26,19 L-26,18 L-25,18 L-25,17 L-24,17 L-24,16 L-22,16 L-22,15 L-21,15 L-21,14 L-19,14 L-19,13 L-17,13 L-17,12 L-15,12 L-15,11 L-13,11 L-13,10 L-11,10 L-11,9 L-10,9 L-10,8 L-9,8 L-9,6 L-8,6 L-8,5 L-7,5 L-7,4 L-5,4 L-5,3 L-4,3 L-4,2 L-2,2 L-2,1 L0,1 Z " fill="#FA5805" transform="translate(86,200)"/>
<path d="M0,0 L3,0 L3,1 L2,1 L2,2 L6,2 L6,3 L9,3 L9,5 L8,5 L8,7 L11,7 L11,6 L12,6 L12,5 L11,5 L11,2 L12,2 L12,1 L13,1 L13,3 L14,3 L14,5 L15,5 L15,8 L14,8 L14,10 L15,10 L15,12 L16,12 L16,13 L17,13 L17,14 L15,14 L15,13 L14,13 L14,12 L8,12 L8,10 L7,10 L7,9 L5,9 L5,10 L3,10 L3,21 L2,21 L2,22 L1,22 L1,24 L0,24 L0,25 L-3,25 L-3,28 L-4,28 L-4,29 L-6,29 L-6,31 L-9,31 L-9,35 L-10,35 L-10,41 L-11,41 L-11,39 L-12,39 L-12,43 L-10,43 L-10,46 L-11,46 L-11,47 L-12,47 L-12,48 L-16,48 L-16,47 L-18,47 L-18,45 L-19,45 L-19,44 L-20,44 L-20,43 L-24,43 L-24,41 L-25,41 L-25,37 L-24,37 L-24,36 L-23,36 L-23,35 L-22,35 L-22,34 L-20,34 L-20,33 L-19,33 L-19,31 L-17,31 L-17,27 L-18,27 L-18,29 L-20,29 L-20,25 L-19,25 L-19,24 L-18,24 L-18,22 L-17,22 L-17,21 L-16,21 L-16,20 L-15,20 L-15,19 L-14,19 L-14,18 L-13,18 L-13,14 L-12,14 L-12,13 L-11,13 L-11,10 L-10,10 L-10,9 L-9,9 L-9,8 L-8,8 L-8,5 L-7,5 L-7,4 L-6,4 L-6,5 L-5,5 L-5,4 L-3,4 L-3,3 L-2,3 L-2,1 L0,1 Z " fill="#FA7D07" transform="translate(136,203)"/>
<path d="M0,0 L1,0 L1,3 L0,3 L0,9 L-1,9 L-1,19 L0,19 L0,26 L1,26 L1,32 L2,32 L2,35 L3,35 L3,37 L9,37 L9,38 L11,38 L11,39 L12,39 L12,40 L13,40 L13,41 L14,41 L14,42 L15,42 L15,44 L17,44 L17,45 L31,45 L31,48 L11,48 L11,47 L-8,47 L-8,46 L-9,46 L-9,45 L-8,45 L-8,44 L-29,44 L-29,43 L-30,43 L-30,42 L-29,42 L-29,41 L-28,41 L-28,39 L-29,39 L-29,40 L-32,40 L-32,38 L-31,38 L-31,30 L-30,30 L-30,28 L-28,28 L-28,24 L-27,24 L-27,23 L-26,23 L-26,20 L-25,20 L-25,18 L-23,18 L-23,20 L-24,20 L-24,27 L-25,27 L-25,36 L-24,36 L-24,37 L-22,37 L-22,36 L-21,36 L-21,37 L-19,37 L-19,38 L-17,38 L-17,39 L-16,39 L-16,41 L-15,41 L-15,43 L-8,43 L-8,42 L-9,42 L-9,39 L-10,39 L-10,37 L-11,37 L-11,36 L-12,36 L-12,33 L-13,33 L-13,25 L-15,25 L-15,21 L-16,21 L-16,15 L-17,15 L-17,9 L-19,9 L-19,7 L-15,7 L-15,9 L-16,9 L-16,13 L-14,13 L-14,23 L-12,23 L-12,30 L-10,30 L-10,33 L-9,33 L-9,34 L-8,34 L-8,33 L-7,33 L-7,39 L-5,39 L-5,36 L-4,36 L-4,30 L-3,30 L-3,28 L-2,28 L-2,4 L-1,4 L-1,2 L0,2 Z " fill="#FCBE04" transform="translate(197,213)"/>
<path d="M0,0 L3,0 L3,2 L4,2 L4,3 L3,3 L3,13 L2,13 L2,15 L1,15 L1,17 L0,17 L0,41 L-1,41 L-1,43 L-2,43 L-2,49 L-3,49 L-3,52 L-5,52 L-5,46 L-6,46 L-6,47 L-7,47 L-7,46 L-8,46 L-8,43 L-10,43 L-10,36 L-12,36 L-12,26 L-14,26 L-14,22 L-13,22 L-13,20 L-17,20 L-17,24 L-18,24 L-18,27 L-19,27 L-19,29 L-20,29 L-20,31 L-21,31 L-21,26 L-20,26 L-20,24 L-19,24 L-19,22 L-18,22 L-18,19 L-17,19 L-17,17 L-16,17 L-16,16 L-15,16 L-15,12 L-14,12 L-14,11 L-11,11 L-11,9 L-10,9 L-10,8 L-6,8 L-6,7 L-5,7 L-5,6 L-4,6 L-4,5 L-3,5 L-3,4 L-1,4 L-1,3 L0,3 L0,2 L-1,2 L-1,1 L0,1 Z " fill="#FBB208" transform="translate(195,200)"/>
<path d="M0,0 L2,0 L2,1 L6,1 L6,0 L12,0 L12,4 L13,4 L13,3 L14,3 L14,2 L15,2 L15,4 L14,4 L14,6 L13,6 L13,7 L12,7 L12,6 L11,6 L11,7 L10,7 L10,8 L2,8 L2,11 L1,11 L1,15 L12,15 L12,19 L10,19 L10,24 L-2,24 L-2,25 L-4,25 L-4,29 L-5,29 L-5,30 L-6,30 L-6,31 L-5,31 L-5,35 L-6,35 L-6,37 L-8,37 L-8,38 L-9,38 L-9,37 L-10,37 L-10,38 L-12,38 L-12,37 L-14,37 L-14,34 L-13,34 L-13,33 L-12,33 L-12,28 L-11,28 L-11,26 L-12,26 L-12,24 L-11,24 L-11,13 L-10,13 L-10,5 L-8,5 L-8,3 L-6,3 L-6,2 L-5,2 L-5,1 L0,1 Z " fill="#FB7A05" transform="translate(534,195)"/>
<path d="M0,0 L15,0 L15,1 L17,1 L17,2 L19,2 L19,3 L20,3 L20,4 L22,4 L22,5 L23,5 L23,6 L24,6 L24,8 L25,8 L25,10 L26,10 L26,12 L27,12 L27,24 L26,24 L26,27 L25,27 L25,28 L24,28 L24,32 L23,32 L23,34 L22,34 L22,35 L21,35 L21,36 L20,36 L20,37 L19,37 L19,38 L18,38 L18,39 L16,39 L16,40 L15,40 L15,41 L13,41 L13,36 L16,36 L16,37 L18,37 L18,35 L20,35 L20,31 L21,31 L21,26 L22,26 L22,25 L24,25 L24,22 L25,22 L25,16 L24,16 L24,15 L23,15 L23,14 L21,14 L21,16 L20,16 L20,15 L18,15 L18,14 L17,14 L17,15 L16,15 L16,16 L15,16 L15,17 L14,17 L14,24 L13,24 L13,26 L12,26 L12,30 L11,30 L11,32 L5,32 L5,31 L8,31 L8,29 L9,29 L9,28 L10,28 L10,26 L11,26 L11,24 L12,24 L12,15 L11,15 L11,13 L9,13 L9,12 L3,12 L3,13 L2,13 L2,14 L1,14 L1,15 L0,15 L0,16 L-1,16 L-1,17 L-2,17 L-2,19 L-3,19 L-3,22 L-4,22 L-4,29 L-3,29 L-3,30 L-2,30 L-2,31 L0,31 L0,32 L4,32 L4,33 L-1,33 L-1,32 L-5,32 L-5,20 L-4,20 L-4,18 L-5,18 L-5,16 L-2,16 L-2,14 L-1,14 L-1,13 L0,13 L0,11 L-1,11 L-1,12 L-2,12 L-2,10 L-1,10 L-1,8 L0,8 L0,7 L-1,7 L-1,6 L0,6 L0,5 L-3,5 L-3,4 L-4,4 L-4,5 L-5,5 L-5,7 L-8,7 L-8,8 L-10,8 L-10,9 L-11,9 L-11,11 L-12,11 L-12,14 L-13,14 L-13,15 L-15,15 L-15,13 L-14,13 L-14,11 L-13,11 L-13,10 L-12,10 L-12,8 L-11,8 L-11,7 L-9,7 L-9,5 L-7,5 L-7,4 L-5,4 L-5,3 L-4,3 L-4,2 L-2,2 L-2,1 L0,1 Z " fill="#FB8906" transform="translate(463,192)"/>
<path d="M0,0 L1,0 L1,1 L2,1 L2,2 L3,2 L3,10 L2,10 L2,11 L1,11 L1,17 L-1,17 L-1,20 L-2,20 L-2,22 L-3,22 L-3,24 L-4,24 L-4,25 L-6,25 L-6,26 L-7,26 L-7,27 L-10,27 L-10,28 L-13,28 L-13,29 L-39,29 L-39,23 L-38,23 L-38,19 L-37,19 L-37,15 L-36,15 L-36,10 L-35,10 L-35,6 L-33,6 L-33,12 L-32,12 L-32,13 L-33,13 L-33,14 L-34,14 L-34,15 L-35,15 L-35,16 L-33,16 L-33,15 L-31,15 L-31,17 L-30,17 L-30,15 L-29,15 L-29,14 L-28,14 L-28,15 L-27,15 L-27,16 L-26,16 L-26,15 L-25,15 L-25,19 L-17,19 L-17,18 L-16,18 L-16,17 L-14,17 L-14,16 L-13,16 L-13,15 L-12,15 L-12,14 L-10,14 L-10,13 L-7,13 L-7,12 L-5,12 L-5,11 L-4,11 L-4,10 L-3,10 L-3,9 L-2,9 L-2,8 L0,8 L0,7 L1,7 L1,5 L2,5 L2,4 L1,4 L1,2 L0,2 Z M-28,16 L-28,17 L-27,17 L-27,16 Z M-32,17 L-32,18 L-31,18 L-31,17 Z " fill="#1562B0" transform="translate(384,206)"/>
<path d="M0,0 L13,0 L13,1 L15,1 L15,2 L18,2 L18,3 L19,3 L19,4 L21,4 L21,5 L22,5 L22,7 L23,7 L23,8 L24,8 L24,9 L25,9 L25,12 L26,12 L26,23 L25,23 L25,21 L24,21 L24,22 L23,22 L23,20 L24,20 L24,14 L23,14 L23,15 L21,15 L21,13 L19,13 L19,12 L18,12 L18,13 L17,13 L17,14 L15,14 L15,15 L16,15 L16,17 L14,17 L14,23 L12,23 L12,25 L11,25 L11,22 L12,22 L12,16 L11,16 L11,14 L10,14 L10,12 L2,12 L2,13 L0,13 L0,14 L-1,14 L-1,15 L-2,15 L-2,16 L-3,16 L-3,18 L-4,18 L-4,20 L-5,20 L-5,18 L-7,18 L-7,17 L-8,17 L-8,16 L-9,16 L-9,14 L-10,14 L-10,15 L-11,15 L-11,16 L-12,16 L-12,15 L-13,15 L-13,16 L-14,16 L-14,19 L-15,19 L-15,20 L-17,20 L-17,22 L-18,22 L-18,31 L-19,31 L-19,21 L-18,21 L-18,17 L-17,17 L-17,14 L-16,14 L-16,12 L-14,12 L-14,10 L-13,10 L-13,8 L-11,8 L-11,7 L-10,7 L-10,6 L-9,6 L-9,5 L-8,5 L-8,4 L-6,4 L-6,3 L-4,3 L-4,2 L-2,2 L-2,1 L0,1 Z " fill="#3888C2" transform="translate(280,192)"/>
<path d="M0,0 L9,0 L9,4 L8,4 L8,16 L7,16 L7,17 L9,17 L9,25 L10,25 L10,21 L11,21 L11,20 L13,20 L13,19 L14,19 L14,18 L15,18 L15,17 L16,17 L16,16 L17,16 L17,19 L18,19 L18,22 L20,22 L20,23 L19,23 L19,25 L17,25 L17,31 L15,31 L15,33 L14,33 L14,36 L12,36 L12,37 L10,37 L10,38 L0,38 L0,24 L-1,24 L-1,20 L-2,20 L-2,7 L-1,7 L-1,6 L0,6 L0,3 L-1,3 L-1,1 L0,1 Z " fill="#FA6303" transform="translate(395,195)"/>
<path d="M0,0 L26,0 L26,1 L27,1 L27,7 L26,7 L26,11 L25,11 L25,12 L11,12 L11,14 L10,14 L10,17 L21,17 L21,18 L22,18 L22,21 L21,21 L21,25 L20,25 L20,28 L18,28 L18,29 L10,29 L10,28 L7,28 L7,34 L6,34 L6,38 L5,38 L5,41 L4,41 L4,43 L-1,43 L-1,44 L-6,44 L-6,43 L-9,43 L-9,39 L-10,39 L-10,42 L-11,42 L-11,43 L-12,43 L-12,44 L-13,44 L-13,43 L-36,43 L-36,44 L-37,44 L-37,43 L-39,43 L-39,39 L-38,39 L-38,37 L-39,37 L-39,36 L-38,36 L-38,35 L-37,35 L-37,42 L-12,42 L-12,41 L-11,41 L-11,35 L-12,35 L-12,32 L-9,32 L-9,33 L-8,33 L-8,32 L-7,32 L-7,28 L-6,28 L-6,23 L-5,23 L-5,18 L-4,18 L-4,11 L-3,11 L-3,6 L-2,6 L-2,3 L-1,3 L-1,1 L0,1 Z M8,3 L8,4 L3,4 L3,5 L2,5 L2,6 L0,6 L0,8 L-2,8 L-2,16 L-3,16 L-3,27 L-4,27 L-4,29 L-3,29 L-3,31 L-4,31 L-4,36 L-5,36 L-5,37 L-6,37 L-6,40 L-4,40 L-4,41 L-2,41 L-2,40 L-1,40 L-1,41 L0,41 L0,40 L2,40 L2,38 L3,38 L3,34 L2,34 L2,33 L3,33 L3,32 L4,32 L4,28 L6,28 L6,27 L18,27 L18,22 L20,22 L20,18 L9,18 L9,14 L10,14 L10,11 L18,11 L18,10 L19,10 L19,9 L20,9 L20,10 L21,10 L21,9 L22,9 L22,7 L23,7 L23,5 L22,5 L22,6 L21,6 L21,7 L20,7 L20,3 L14,3 L14,4 L10,4 L10,3 Z M-9,34 L-9,37 L-8,37 L-8,34 Z " fill="#E85D18" transform="translate(526,192)"/>
<path d="M0,0 L1,0 L1,1 L13,1 L13,4 L12,4 L12,2 L3,2 L3,5 L2,5 L2,8 L0,8 L0,9 L1,9 L1,10 L3,10 L3,11 L2,11 L2,12 L1,12 L1,13 L2,13 L2,14 L3,14 L3,18 L2,18 L2,17 L1,17 L1,20 L0,20 L0,21 L-1,21 L-1,23 L-2,23 L-2,24 L-3,24 L-3,25 L3,25 L3,19 L4,19 L4,26 L-3,26 L-3,28 L-2,28 L-2,29 L-5,29 L-5,30 L-3,30 L-3,32 L-4,32 L-4,31 L-5,31 L-5,34 L-9,34 L-9,35 L-11,35 L-11,33 L-12,33 L-12,32 L-13,32 L-13,31 L-14,31 L-14,30 L-16,30 L-16,31 L-17,31 L-17,29 L-18,29 L-18,32 L-19,32 L-19,33 L-20,33 L-20,35 L-22,35 L-22,34 L-21,34 L-21,32 L-20,32 L-20,31 L-19,31 L-19,28 L-18,28 L-18,27 L-17,27 L-17,25 L-16,25 L-16,24 L-15,24 L-15,21 L-14,21 L-14,20 L-13,20 L-13,19 L-12,19 L-12,16 L-11,16 L-11,14 L-10,14 L-10,13 L-9,13 L-9,12 L-8,12 L-8,9 L-7,9 L-7,7 L-6,7 L-6,6 L-5,6 L-5,3 L-4,3 L-4,2 L-3,2 L-3,1 L0,1 Z " fill="#2B78BD" transform="translate(325,192)"/>
<path d="M0,0 L2,0 L2,2 L3,2 L3,8 L2,8 L2,9 L1,9 L1,11 L2,11 L2,10 L4,10 L4,8 L7,8 L7,9 L8,9 L8,15 L6,15 L6,13 L7,13 L7,11 L6,11 L6,10 L5,10 L5,11 L4,11 L4,14 L3,14 L3,15 L2,15 L2,16 L0,16 L0,9 L-2,9 L-2,8 L-1,8 L-1,7 L0,7 L0,6 L2,6 L2,4 L-4,4 L-4,6 L-5,6 L-5,10 L-6,10 L-6,9 L-7,9 L-7,10 L-8,10 L-8,11 L-9,11 L-9,12 L-10,12 L-10,14 L-11,14 L-11,15 L-12,15 L-12,16 L-13,16 L-13,17 L-14,17 L-14,18 L-16,18 L-16,19 L-17,19 L-17,21 L-18,21 L-18,23 L-19,23 L-19,24 L-22,24 L-22,23 L-23,23 L-23,24 L-24,24 L-24,22 L-25,22 L-25,21 L-24,21 L-24,20 L-25,20 L-25,19 L-26,19 L-26,20 L-27,20 L-27,21 L-28,21 L-28,22 L-29,22 L-29,23 L-28,23 L-28,24 L-27,24 L-27,26 L-28,26 L-28,27 L-29,27 L-29,29 L-30,29 L-30,30 L-31,30 L-31,31 L-32,31 L-32,32 L-33,32 L-33,33 L-34,33 L-34,32 L-35,32 L-35,33 L-36,33 L-36,34 L-38,34 L-38,33 L-41,33 L-41,34 L-42,34 L-42,37 L-44,37 L-44,38 L-48,38 L-48,39 L-49,39 L-49,40 L-51,40 L-51,39 L-50,39 L-50,38 L-49,38 L-49,37 L-48,37 L-48,36 L-47,36 L-47,35 L-46,35 L-46,34 L-45,34 L-45,33 L-43,33 L-43,32 L-42,32 L-42,31 L-39,31 L-39,30 L-38,30 L-38,29 L-36,29 L-36,28 L-35,28 L-35,25 L-34,25 L-34,23 L-33,23 L-33,22 L-32,22 L-32,20 L-31,20 L-31,19 L-30,19 L-30,18 L-29,18 L-29,17 L-28,17 L-28,16 L-27,16 L-27,15 L-26,15 L-26,14 L-25,14 L-25,13 L-24,13 L-24,12 L-22,12 L-22,11 L-18,11 L-18,10 L-16,10 L-16,9 L-15,9 L-15,8 L-9,8 L-9,7 L-8,7 L-8,6 L-7,6 L-7,5 L-6,5 L-6,4 L-5,4 L-5,2 L-4,2 L-4,1 L0,1 Z M-30,23 L-30,24 L-29,24 L-29,23 Z " fill="#F9D70D" transform="translate(216,102)"/>
<path d="M0,0 L13,0 L13,1 L18,1 L18,2 L20,2 L20,3 L21,3 L21,4 L23,4 L23,5 L24,5 L24,7 L25,7 L25,10 L26,10 L26,13 L25,13 L25,17 L24,17 L24,10 L23,10 L23,14 L22,14 L22,15 L21,15 L21,13 L17,13 L17,14 L14,14 L14,15 L13,15 L13,13 L12,13 L12,18 L10,18 L10,17 L11,17 L11,12 L3,12 L3,18 L2,18 L2,11 L1,11 L1,12 L0,12 L0,9 L1,9 L1,7 L0,7 L0,8 L-1,8 L-1,10 L-3,10 L-3,9 L-4,9 L-4,10 L-6,10 L-6,11 L-7,11 L-7,9 L-8,9 L-8,8 L-9,8 L-9,15 L-10,15 L-10,7 L-9,7 L-9,3 L-8,3 L-8,1 L0,1 Z " fill="#2287D3" transform="translate(237,192)"/>
<path d="M0,0 L1,0 L1,2 L2,2 L2,3 L3,3 L3,4 L5,4 L5,15 L6,15 L6,21 L8,21 L8,22 L10,22 L10,21 L14,21 L14,22 L19,22 L19,21 L20,21 L20,23 L21,23 L21,25 L19,25 L19,26 L18,26 L18,24 L17,24 L17,26 L15,26 L15,27 L13,27 L13,25 L11,25 L11,26 L9,26 L9,28 L3,28 L3,29 L1,29 L1,28 L-1,28 L-1,27 L-3,27 L-3,26 L-4,26 L-4,25 L-5,25 L-5,24 L-6,24 L-6,23 L-7,23 L-7,21 L-8,21 L-8,8 L-7,8 L-7,6 L-5,6 L-5,5 L-4,5 L-4,2 L-3,2 L-3,1 L-2,1 L-2,2 L-1,2 L-1,1 L0,1 Z " fill="#1B66AF" transform="translate(270,206)"/>
<path d="M0,0 L1,0 L1,9 L0,9 L0,11 L-1,11 L-1,13 L-2,13 L-2,14 L-4,14 L-4,15 L-5,15 L-5,16 L-6,16 L-6,17 L-8,17 L-8,18 L-7,18 L-7,19 L-6,19 L-6,22 L-5,22 L-5,25 L-4,25 L-4,26 L-3,26 L-3,27 L-1,27 L-1,29 L-2,29 L-2,31 L-3,31 L-3,32 L-4,32 L-4,33 L-17,33 L-17,30 L-18,30 L-18,26 L-19,26 L-19,23 L-20,23 L-20,19 L-23,19 L-23,21 L-24,21 L-24,28 L-25,28 L-25,33 L-27,33 L-27,24 L-26,24 L-26,22 L-25,22 L-25,20 L-24,20 L-24,16 L-19,16 L-19,17 L-17,17 L-17,16 L-15,16 L-15,15 L-14,15 L-14,14 L-13,14 L-13,13 L-12,13 L-12,14 L-11,14 L-11,15 L-12,15 L-12,16 L-10,16 L-10,15 L-9,15 L-9,14 L-8,14 L-8,15 L-7,15 L-7,14 L-6,14 L-6,13 L-4,13 L-4,12 L-3,12 L-3,11 L-2,11 L-2,10 L-5,10 L-5,7 L-4,7 L-4,6 L-3,6 L-3,5 L-1,5 L-1,4 L0,4 Z " fill="#226EB7" transform="translate(260,202)"/>
<path d="M0,0 L1,0 L1,1 L3,1 L3,2 L4,2 L4,0 L6,0 L6,1 L7,1 L7,2 L8,2 L8,8 L7,8 L7,11 L5,11 L5,12 L4,12 L4,17 L3,17 L3,21 L1,21 L1,23 L-1,23 L-1,22 L-4,22 L-4,27 L-14,27 L-14,28 L-18,28 L-18,27 L-19,27 L-19,25 L-20,25 L-20,24 L-17,24 L-17,23 L-18,23 L-18,22 L-16,22 L-16,21 L-13,21 L-13,22 L-12,22 L-12,21 L-8,21 L-8,20 L-5,20 L-5,18 L-6,18 L-6,16 L-5,16 L-5,12 L-4,12 L-4,10 L-3,10 L-3,3 L-2,3 L-2,2 L-1,2 L-1,1 L0,1 Z " fill="#F95704" transform="translate(480,206)"/>
<path d="M0,0 L4,0 L4,2 L3,2 L3,6 L5,6 L5,16 L7,16 L7,23 L9,23 L9,26 L10,26 L10,27 L11,27 L11,26 L12,26 L12,32 L13,32 L13,35 L16,35 L16,36 L14,36 L14,37 L-10,37 L-10,36 L-11,36 L-11,35 L-10,35 L-10,34 L-9,34 L-9,32 L-10,32 L-10,33 L-13,33 L-13,31 L-12,31 L-12,23 L-11,23 L-11,21 L-9,21 L-9,17 L-8,17 L-8,16 L-7,16 L-7,13 L-6,13 L-6,11 L-4,11 L-4,13 L-5,13 L-5,20 L-6,20 L-6,29 L-5,29 L-5,30 L-3,30 L-3,29 L-2,29 L-2,30 L0,30 L0,31 L2,31 L2,32 L3,32 L3,34 L4,34 L4,36 L11,36 L11,35 L10,35 L10,32 L9,32 L9,30 L8,30 L8,29 L7,29 L7,26 L6,26 L6,18 L4,18 L4,14 L3,14 L3,8 L2,8 L2,2 L0,2 Z " fill="#FAA508" transform="translate(178,220)"/>
<path d="M0,0 L11,0 L11,1 L12,1 L12,5 L11,5 L11,7 L10,7 L10,10 L9,10 L9,11 L8,11 L8,14 L7,14 L7,16 L6,16 L6,19 L5,19 L5,20 L4,20 L4,23 L3,23 L3,25 L2,25 L2,27 L1,27 L1,30 L0,30 L0,31 L-1,31 L-1,34 L-2,34 L-2,36 L-3,36 L-3,38 L-4,38 L-4,35 L-3,35 L-3,32 L-2,32 L-2,28 L0,28 L0,23 L2,23 L2,20 L3,20 L3,19 L2,19 L2,18 L3,18 L3,15 L0,15 L0,14 L-1,14 L-1,13 L-3,13 L-3,14 L-2,14 L-2,15 L-4,15 L-4,16 L-5,16 L-5,17 L-6,17 L-6,21 L-9,21 L-9,19 L-8,19 L-8,16 L-7,16 L-7,13 L-6,13 L-6,11 L-5,11 L-5,9 L-4,9 L-4,5 L-3,5 L-3,3 L-2,3 L-2,1 L0,1 Z " fill="#F28F27" transform="translate(439,192)"/>
<path d="M0,0 L10,0 L10,2 L13,2 L13,1 L14,1 L14,2 L16,2 L16,7 L15,7 L15,8 L14,8 L14,9 L13,9 L13,10 L12,10 L12,9 L11,9 L11,8 L10,8 L10,7 L9,7 L9,6 L10,6 L10,5 L11,5 L11,4 L8,4 L8,5 L7,5 L7,3 L6,3 L6,5 L5,5 L5,6 L4,6 L4,9 L2,9 L2,10 L-1,10 L-1,12 L-2,12 L-2,14 L-3,14 L-3,17 L-5,17 L-5,16 L-6,16 L-6,15 L-7,15 L-7,13 L-8,13 L-8,14 L-9,14 L-9,15 L-10,15 L-10,14 L-11,14 L-11,15 L-12,15 L-12,18 L-13,18 L-13,19 L-15,19 L-15,21 L-16,21 L-16,30 L-17,30 L-17,20 L-16,20 L-16,16 L-15,16 L-15,13 L-14,13 L-14,11 L-12,11 L-12,9 L-11,9 L-11,7 L-9,7 L-9,6 L-8,6 L-8,5 L-7,5 L-7,4 L-6,4 L-6,3 L-4,3 L-4,2 L-2,2 L-2,1 L0,1 Z " fill="#2183CE" transform="translate(278,193)"/>
<path d="M0,0 L15,0 L15,1 L17,1 L17,2 L19,2 L19,3 L20,3 L20,4 L22,4 L22,5 L23,5 L23,6 L20,6 L20,7 L19,7 L19,6 L17,6 L17,5 L16,5 L16,3 L11,3 L11,4 L4,4 L4,5 L3,5 L3,6 L2,6 L2,8 L1,8 L1,9 L0,9 L0,10 L2,10 L2,11 L12,11 L12,13 L14,13 L14,24 L13,24 L13,26 L12,26 L12,30 L11,30 L11,32 L5,32 L5,31 L8,31 L8,29 L9,29 L9,28 L10,28 L10,26 L11,26 L11,24 L12,24 L12,15 L11,15 L11,13 L9,13 L9,12 L3,12 L3,13 L2,13 L2,14 L1,14 L1,15 L0,15 L0,16 L-1,16 L-1,17 L-2,17 L-2,19 L-3,19 L-3,22 L-4,22 L-4,29 L-3,29 L-3,30 L-2,30 L-2,31 L0,31 L0,32 L4,32 L4,33 L-1,33 L-1,32 L-5,32 L-5,20 L-4,20 L-4,18 L-5,18 L-5,16 L-2,16 L-2,14 L-1,14 L-1,13 L0,13 L0,11 L-1,11 L-1,12 L-2,12 L-2,10 L-1,10 L-1,8 L0,8 L0,7 L-1,7 L-1,6 L0,6 L0,5 L-3,5 L-3,4 L-4,4 L-4,5 L-5,5 L-5,7 L-8,7 L-8,8 L-10,8 L-10,9 L-11,9 L-11,11 L-12,11 L-12,14 L-13,14 L-13,15 L-15,15 L-15,13 L-14,13 L-14,11 L-13,11 L-13,10 L-12,10 L-12,8 L-11,8 L-11,7 L-9,7 L-9,5 L-7,5 L-7,4 L-5,4 L-5,3 L-4,3 L-4,2 L-2,2 L-2,1 L0,1 Z " fill="#F69216" transform="translate(463,192)"/>
<path d="M0,0 L9,0 L9,1 L12,1 L12,3 L9,3 L9,4 L-16,4 L-16,3 L-66,3 L-66,2 L-72,2 L-72,3 L-74,3 L-74,2 L-81,2 L-81,3 L-102,3 L-102,2 L-103,2 L-103,3 L-105,3 L-105,2 L-107,2 L-107,3 L-108,3 L-108,2 L-109,2 L-109,1 L-20,1 L-20,2 L0,2 Z " fill="#EFBA67" transform="translate(228,259)"/>
<path d="M0,0 L1,0 L1,2 L0,2 L0,4 L-1,4 L-1,5 L2,5 L2,4 L6,4 L6,6 L4,6 L4,7 L2,7 L2,8 L0,8 L0,9 L-1,9 L-1,10 L-2,10 L-2,11 L-1,11 L-1,13 L-2,13 L-2,14 L-3,14 L-3,15 L-4,15 L-4,14 L-5,14 L-5,17 L-7,17 L-7,18 L-10,18 L-10,20 L-14,20 L-14,21 L-15,21 L-15,22 L-16,22 L-16,25 L-17,25 L-17,26 L-18,26 L-18,28 L-19,28 L-19,29 L-26,29 L-26,31 L-28,31 L-28,30 L-34,30 L-34,31 L-37,31 L-37,32 L-44,32 L-44,33 L-48,33 L-48,34 L-51,34 L-51,35 L-52,35 L-52,36 L-55,36 L-55,38 L-59,38 L-59,37 L-57,37 L-57,36 L-56,36 L-56,35 L-53,35 L-53,34 L-52,34 L-52,33 L-50,33 L-50,32 L-47,32 L-47,31 L-43,31 L-43,30 L-40,30 L-40,29 L-38,29 L-38,28 L-32,28 L-32,27 L-25,27 L-25,26 L-23,26 L-23,25 L-22,25 L-22,24 L-21,24 L-21,23 L-20,23 L-20,22 L-18,22 L-18,21 L-17,21 L-17,19 L-16,19 L-16,20 L-15,20 L-15,19 L-13,19 L-13,18 L-12,18 L-12,17 L-10,17 L-10,16 L-9,16 L-9,15 L-8,15 L-8,14 L-9,14 L-9,11 L-6,11 L-6,10 L-5,10 L-5,5 L-4,5 L-4,4 L-3,4 L-3,3 L-1,3 L-1,1 L0,1 Z M-28,29 L-28,30 L-27,30 L-27,29 Z " fill="#EC8442" transform="translate(162,153)"/>
<path d="M0,0 L2,0 L2,6 L3,6 L3,7 L2,7 L2,8 L1,8 L1,9 L0,9 L0,14 L2,14 L2,15 L0,15 L0,16 L1,16 L1,18 L3,18 L3,17 L2,17 L2,16 L4,16 L4,15 L3,15 L3,14 L5,14 L5,15 L6,15 L6,13 L8,13 L8,15 L9,15 L9,16 L7,16 L7,18 L10,18 L10,19 L11,19 L11,18 L12,18 L12,19 L14,19 L14,20 L16,20 L16,21 L18,21 L18,20 L27,20 L27,19 L26,19 L26,17 L29,17 L29,14 L31,14 L31,13 L32,13 L32,15 L33,15 L33,16 L32,16 L32,18 L31,18 L31,19 L29,19 L29,20 L28,20 L28,21 L25,21 L25,22 L22,22 L22,23 L-4,23 L-4,17 L-3,17 L-3,13 L-2,13 L-2,9 L-1,9 L-1,4 L0,4 Z " fill="#2265AE" transform="translate(349,212)"/>
<path d="M0,0 L1,0 L1,1 L3,1 L3,2 L6,2 L6,1 L8,1 L8,5 L7,5 L7,7 L6,7 L6,9 L4,9 L4,10 L3,10 L3,11 L1,11 L1,12 L0,12 L0,13 L-1,13 L-1,15 L-2,15 L-2,18 L-4,18 L-4,19 L-6,19 L-6,18 L-7,18 L-7,19 L-9,19 L-9,18 L-10,18 L-10,17 L-9,17 L-9,15 L-8,15 L-8,12 L-10,12 L-10,13 L-11,13 L-11,14 L-12,14 L-12,11 L-11,11 L-11,10 L-10,10 L-10,9 L-9,9 L-9,6 L-8,6 L-8,5 L-7,5 L-7,4 L-5,4 L-5,3 L-4,3 L-4,2 L-3,2 L-3,1 L-2,1 L-2,2 L-1,2 L-1,1 L0,1 Z M3,0 L4,0 L4,1 L3,1 Z " fill="#F94502" transform="translate(107,199)"/>
<path d="M0,0 L5,0 L5,1 L8,1 L8,2 L11,2 L11,3 L12,3 L12,4 L13,4 L13,5 L11,5 L11,6 L10,6 L10,7 L8,7 L8,8 L6,8 L6,9 L7,9 L7,10 L5,10 L5,9 L-5,9 L-5,8 L-8,8 L-8,7 L-9,7 L-9,6 L-11,6 L-11,7 L-12,7 L-12,8 L-13,8 L-13,9 L-14,9 L-14,10 L-15,10 L-15,13 L-16,13 L-16,4 L-15,4 L-15,2 L-14,2 L-14,1 L0,1 Z " fill="#2488D2" transform="translate(369,194)"/>
<path d="M0,0 L2,0 L2,2 L4,2 L4,3 L7,3 L7,2 L8,2 L8,5 L7,5 L7,8 L3,8 L3,10 L2,10 L2,12 L1,12 L1,13 L2,13 L2,14 L4,14 L4,15 L3,15 L3,16 L2,16 L2,17 L1,17 L1,18 L0,18 L0,19 L-1,19 L-1,20 L-2,20 L-2,18 L-1,18 L-1,15 L-2,15 L-2,16 L-3,16 L-3,18 L-4,18 L-4,20 L-8,20 L-8,21 L-9,21 L-9,19 L-11,19 L-11,20 L-12,20 L-12,19 L-13,19 L-13,17 L-12,17 L-12,14 L-11,14 L-11,13 L-10,13 L-10,12 L-7,12 L-7,10 L-6,10 L-6,9 L-5,9 L-5,8 L-4,8 L-4,7 L-3,7 L-3,3 L-2,3 L-2,2 L-1,2 L-1,1 L0,1 Z M4,1 L5,1 L5,2 L4,2 Z " fill="#F96509" transform="translate(79,218)"/>
<path d="M0,0 L12,0 L12,1 L13,1 L13,2 L14,2 L14,20 L15,20 L15,19 L16,19 L16,21 L14,21 L14,22 L13,22 L13,6 L12,6 L12,3 L3,3 L3,4 L2,4 L2,6 L3,6 L3,9 L2,9 L2,10 L1,10 L1,23 L2,23 L2,27 L3,27 L3,41 L13,41 L13,40 L15,40 L15,39 L17,39 L17,36 L18,36 L18,34 L20,34 L20,36 L19,36 L19,39 L18,39 L18,41 L17,41 L17,42 L16,42 L16,43 L8,43 L8,44 L3,44 L3,43 L1,43 L1,31 L0,31 L0,10 L-1,10 L-1,1 L0,1 Z " fill="#EEA951" transform="translate(392,192)"/>
<path d="M0,0 L1,0 L1,1 L3,1 L3,3 L5,3 L5,2 L6,2 L6,8 L5,8 L5,10 L6,10 L6,9 L7,9 L7,15 L6,15 L6,17 L5,17 L5,19 L4,19 L4,15 L-1,15 L-1,16 L-4,16 L-4,17 L-6,17 L-6,19 L-9,19 L-9,21 L-20,21 L-20,22 L-19,22 L-19,23 L-18,23 L-18,24 L-20,24 L-20,23 L-22,23 L-22,19 L-20,19 L-20,20 L-13,20 L-13,19 L-11,19 L-11,18 L-10,18 L-10,17 L-9,17 L-9,16 L-8,16 L-8,13 L-6,13 L-6,11 L-4,11 L-4,5 L-2,5 L-2,3 L-3,3 L-3,2 L-1,2 L-1,1 L0,1 Z " fill="#2374BC" transform="translate(298,204)"/>
<path d="M0,0 L1,0 L1,5 L53,5 L53,6 L-3,6 L-3,7 L-31,7 L-31,6 L-32,6 L-32,4 L-29,4 L-29,3 L-15,3 L-15,2 L0,2 Z " fill="#ED9858" transform="translate(63,256)"/>
<path d="M0,0 L1,0 L1,1 L4,1 L4,2 L3,2 L3,3 L4,3 L4,4 L3,4 L3,6 L2,6 L2,8 L3,8 L3,7 L4,7 L4,9 L3,9 L3,10 L2,10 L2,12 L-1,12 L-1,14 L-2,14 L-2,12 L-4,12 L-4,13 L-5,13 L-5,14 L-9,14 L-9,13 L-10,13 L-10,15 L-11,15 L-11,19 L-12,19 L-12,26 L-11,26 L-11,30 L-10,30 L-10,33 L-9,33 L-9,31 L-7,31 L-7,32 L-6,32 L-6,33 L-7,33 L-7,35 L-6,35 L-6,37 L-1,37 L-1,38 L-3,38 L-3,39 L-5,39 L-5,38 L-7,38 L-7,37 L-8,37 L-8,36 L-9,36 L-9,35 L-10,35 L-10,34 L-11,34 L-11,33 L-12,33 L-12,31 L-13,31 L-13,28 L-14,28 L-14,26 L-15,26 L-15,24 L-14,24 L-14,21 L-15,21 L-15,20 L-14,20 L-14,17 L-13,17 L-13,14 L-12,14 L-12,11 L-9,11 L-9,10 L-8,10 L-8,7 L-7,7 L-7,5 L-6,5 L-6,4 L-4,4 L-4,3 L-1,3 L-1,1 L0,1 Z " fill="#FA8207" transform="translate(459,196)"/>
<path d="M0,0 L11,0 L11,1 L12,1 L12,7 L11,7 L11,11 L10,11 L10,15 L9,15 L9,21 L8,21 L8,26 L7,26 L7,30 L6,30 L6,32 L10,32 L10,33 L5,33 L5,29 L6,29 L6,19 L7,19 L7,18 L8,18 L8,8 L9,8 L9,6 L8,6 L8,5 L7,5 L7,3 L6,3 L6,4 L1,4 L1,5 L0,5 L0,6 L1,6 L1,7 L0,7 L0,8 L-1,8 L-1,11 L0,11 L0,12 L-1,12 L-1,13 L-2,13 L-2,14 L-1,14 L-1,17 L-2,17 L-2,21 L-4,21 L-4,26 L-5,26 L-5,27 L-6,27 L-6,33 L-7,33 L-7,34 L-8,34 L-8,30 L-7,30 L-7,24 L-6,24 L-6,20 L-5,20 L-5,15 L-4,15 L-4,11 L-3,11 L-3,4 L-2,4 L-2,1 L0,1 Z " fill="#F49112" transform="translate(497,192)"/>
<path d="M0,0 L26,0 L26,1 L27,1 L27,7 L26,7 L26,11 L25,11 L25,12 L11,12 L11,14 L10,14 L10,11 L18,11 L18,10 L19,10 L19,9 L20,9 L20,10 L21,10 L21,9 L22,9 L22,7 L23,7 L23,5 L22,5 L22,6 L21,6 L21,7 L20,7 L20,3 L14,3 L14,4 L10,4 L10,3 L8,3 L8,4 L3,4 L3,5 L2,5 L2,6 L0,6 L0,8 L-2,8 L-2,14 L-3,14 L-3,15 L-4,15 L-4,11 L-3,11 L-3,6 L-2,6 L-2,3 L-1,3 L-1,1 L0,1 Z " fill="#F79C0F" transform="translate(526,192)"/>
<path d="M0,0 L2,0 L2,1 L3,1 L3,3 L9,3 L9,4 L10,4 L10,5 L17,5 L17,6 L21,6 L21,5 L22,5 L22,7 L21,7 L21,16 L20,16 L20,19 L19,19 L19,28 L18,28 L18,39 L19,39 L19,37 L20,37 L20,44 L5,44 L5,43 L18,43 L18,40 L17,40 L17,34 L16,34 L16,29 L17,29 L17,27 L18,27 L18,24 L17,24 L17,22 L18,22 L18,17 L19,17 L19,10 L20,10 L20,8 L19,8 L19,7 L15,7 L15,6 L14,6 L14,7 L12,7 L12,8 L9,8 L9,7 L8,7 L8,6 L6,6 L6,5 L4,5 L4,4 L2,4 L2,3 L0,3 L0,10 L-1,10 L-1,13 L-2,13 L-2,15 L-3,15 L-3,16 L-4,16 L-4,18 L-5,18 L-5,19 L-6,19 L-6,20 L-7,20 L-7,21 L-8,21 L-8,22 L-9,22 L-9,23 L-11,23 L-11,24 L-12,24 L-12,25 L-13,25 L-13,26 L-14,26 L-14,22 L-11,22 L-11,20 L-9,20 L-9,19 L-8,19 L-8,16 L-5,16 L-5,15 L-4,15 L-4,13 L-3,13 L-3,12 L-2,12 L-2,1 L0,1 Z " fill="#EFB764" transform="translate(141,212)"/>
<path d="M0,0 L1,0 L1,2 L2,2 L2,3 L3,3 L3,4 L5,4 L5,7 L4,7 L4,11 L3,11 L3,16 L2,16 L2,15 L1,15 L1,16 L0,16 L0,18 L-3,18 L-3,19 L-4,19 L-4,18 L-7,18 L-7,19 L-5,19 L-5,23 L-4,23 L-4,25 L-5,25 L-5,24 L-6,24 L-6,23 L-7,23 L-7,21 L-8,21 L-8,8 L-7,8 L-7,6 L-5,6 L-5,5 L-4,5 L-4,2 L-3,2 L-3,1 L-2,1 L-2,2 L-1,2 L-1,1 L0,1 Z " fill="#1C6FBA" transform="translate(270,206)"/>
<path d="M0,0 L1,0 L1,1 L13,1 L13,4 L12,4 L12,2 L3,2 L3,5 L2,5 L2,8 L0,8 L0,9 L1,9 L1,10 L3,10 L3,11 L2,11 L2,12 L1,12 L1,13 L2,13 L2,14 L3,14 L3,18 L2,18 L2,17 L1,17 L1,20 L0,20 L0,21 L-1,21 L-1,23 L-2,23 L-2,24 L-3,24 L-3,20 L-2,20 L-2,18 L-3,18 L-3,15 L-5,15 L-5,17 L-7,17 L-7,16 L-8,16 L-8,15 L-10,15 L-10,16 L-11,16 L-11,14 L-10,14 L-10,13 L-9,13 L-9,12 L-8,12 L-8,9 L-7,9 L-7,7 L-6,7 L-6,6 L-5,6 L-5,3 L-4,3 L-4,2 L-3,2 L-3,1 L0,1 Z " fill="#3785C9" transform="translate(325,192)"/>
<path d="M0,0 L1,0 L1,1 L2,1 L2,2 L1,2 L1,3 L2,3 L2,4 L1,4 L1,5 L-1,5 L-1,7 L0,7 L0,8 L-1,8 L-1,9 L-2,9 L-2,10 L0,10 L0,15 L2,15 L2,19 L1,19 L1,20 L0,20 L0,21 L-15,21 L-15,18 L-14,18 L-14,16 L-12,16 L-12,15 L-11,15 L-11,14 L-9,14 L-9,11 L-7,11 L-7,13 L-6,13 L-6,12 L-5,12 L-5,11 L-4,11 L-4,10 L-5,10 L-5,9 L-6,9 L-6,6 L-4,6 L-4,3 L-3,3 L-3,2 L-2,2 L-2,1 L0,1 Z " fill="#F97307" transform="translate(79,238)"/>
<path d="M0,0 L2,0 L2,1 L1,1 L1,3 L0,3 L0,4 L-5,4 L-5,5 L-6,5 L-6,7 L-7,7 L-7,8 L-8,8 L-8,9 L-9,9 L-9,10 L-10,10 L-10,11 L-11,11 L-11,12 L-12,12 L-12,13 L-13,13 L-13,14 L-14,14 L-14,15 L-13,15 L-13,16 L-12,16 L-12,18 L-13,18 L-13,19 L-14,19 L-14,21 L-15,21 L-15,22 L-16,22 L-16,23 L-17,23 L-17,24 L-18,24 L-18,25 L-19,25 L-19,24 L-20,24 L-20,25 L-21,25 L-21,26 L-23,26 L-23,25 L-26,25 L-26,26 L-27,26 L-27,29 L-29,29 L-29,30 L-33,30 L-33,31 L-34,31 L-34,32 L-36,32 L-36,31 L-35,31 L-35,30 L-34,30 L-34,29 L-33,29 L-33,28 L-32,28 L-32,27 L-31,27 L-31,26 L-30,26 L-30,25 L-28,25 L-28,24 L-27,24 L-27,23 L-24,23 L-24,22 L-23,22 L-23,21 L-21,21 L-21,20 L-20,20 L-20,17 L-19,17 L-19,15 L-18,15 L-18,14 L-17,14 L-17,12 L-16,12 L-16,11 L-15,11 L-15,10 L-14,10 L-14,9 L-13,9 L-13,8 L-12,8 L-12,7 L-11,7 L-11,6 L-10,6 L-10,5 L-9,5 L-9,4 L-7,4 L-7,3 L-3,3 L-3,2 L-1,2 L-1,1 L0,1 Z M-15,15 L-15,16 L-14,16 L-14,15 Z " fill="#F7C02C" transform="translate(201,110)"/>
<path d="M0,0 L3,0 L3,1 L4,1 L4,2 L5,2 L5,5 L6,5 L6,10 L7,10 L7,9 L8,9 L8,10 L12,10 L12,12 L13,12 L13,18 L12,18 L12,19 L11,19 L11,20 L10,20 L10,22 L9,22 L9,23 L8,23 L8,24 L7,24 L7,25 L6,25 L6,30 L5,30 L5,39 L3,39 L3,26 L4,26 L4,23 L5,23 L5,22 L4,22 L4,20 L7,20 L7,19 L10,19 L10,13 L9,13 L9,12 L6,12 L6,14 L4,14 L4,15 L3,15 L3,13 L4,13 L4,12 L5,12 L5,6 L4,6 L4,4 L2,4 L2,5 L-2,5 L-2,6 L-3,6 L-3,8 L-4,8 L-4,9 L-5,9 L-5,10 L-6,10 L-6,11 L-7,11 L-7,12 L-11,12 L-11,11 L-10,11 L-10,10 L-9,10 L-9,9 L-8,9 L-8,8 L-7,8 L-7,7 L-6,7 L-6,6 L-5,6 L-5,5 L-4,5 L-4,4 L-3,4 L-3,2 L-2,2 L-2,1 L0,1 Z " fill="#F8E758" transform="translate(214,98)"/>
<path d="M0,0 L2,0 L2,2 L4,2 L4,4 L3,4 L3,16 L-1,16 L-1,17 L-2,17 L-2,15 L-3,15 L-3,17 L-4,17 L-4,18 L-7,18 L-7,14 L-8,14 L-8,7 L-7,7 L-7,3 L-6,3 L-6,1 L-5,1 L-5,2 L-1,2 L-1,1 L0,1 Z " fill="#FA6805" transform="translate(455,208)"/>
<path d="M0,0 L10,0 L10,1 L9,1 L9,2 L8,2 L8,7 L7,7 L7,8 L6,8 L6,9 L5,9 L5,10 L4,10 L4,12 L5,12 L5,14 L1,14 L1,13 L0,13 L0,12 L-5,12 L-5,13 L-6,13 L-6,12 L-7,12 L-7,11 L-8,11 L-8,10 L-10,10 L-10,9 L-9,9 L-9,8 L-6,8 L-6,7 L-4,7 L-4,5 L-5,5 L-5,3 L-3,3 L-3,2 L-2,2 L-2,1 L0,1 Z " fill="#FA3202" transform="translate(44,228)"/>
<path d="M0,0 L2,0 L2,2 L0,2 L0,3 L-2,3 L-2,5 L-5,5 L-5,7 L-7,7 L-7,8 L-8,8 L-8,10 L-9,10 L-9,11 L-11,11 L-11,12 L-13,12 L-13,13 L-15,13 L-15,16 L-18,16 L-18,20 L-21,20 L-21,21 L-23,21 L-23,23 L-25,23 L-25,24 L-26,24 L-26,25 L-27,25 L-27,26 L-28,26 L-28,27 L-30,27 L-30,29 L-32,29 L-32,28 L-40,28 L-40,27 L-38,27 L-38,26 L-36,26 L-36,25 L-35,25 L-35,24 L-32,24 L-32,23 L-30,23 L-30,22 L-28,22 L-28,21 L-26,21 L-26,20 L-27,20 L-27,19 L-26,19 L-26,18 L-25,18 L-25,17 L-24,17 L-24,16 L-22,16 L-22,15 L-21,15 L-21,14 L-19,14 L-19,13 L-17,13 L-17,12 L-15,12 L-15,11 L-13,11 L-13,10 L-11,10 L-11,9 L-10,9 L-10,8 L-9,8 L-9,6 L-8,6 L-8,5 L-7,5 L-7,4 L-5,4 L-5,3 L-4,3 L-4,2 L-2,2 L-2,1 L0,1 Z " fill="#F04F0E" transform="translate(86,200)"/>
<path d="M0,0 L2,0 L2,3 L1,3 L1,5 L0,5 L0,6 L1,6 L1,7 L3,7 L3,6 L4,6 L4,7 L6,7 L6,6 L7,6 L7,7 L9,7 L9,9 L7,9 L7,10 L5,10 L5,9 L3,9 L3,10 L2,10 L2,11 L1,11 L1,12 L0,12 L0,13 L-1,13 L-1,14 L-3,14 L-3,16 L-4,16 L-4,18 L-2,18 L-2,17 L1,17 L1,16 L5,16 L5,18 L4,18 L4,20 L3,20 L3,21 L-2,21 L-2,23 L-3,23 L-3,24 L-4,24 L-4,25 L-8,25 L-8,23 L-9,23 L-9,22 L-8,22 L-8,18 L-7,18 L-7,16 L-6,16 L-6,14 L-5,14 L-5,11 L-4,11 L-4,10 L-3,10 L-3,9 L-2,9 L-2,3 L-1,3 L-1,1 L0,1 Z " fill="#F85904" transform="translate(97,211)"/>
<path d="M0,0 L3,0 L3,2 L1,2 L1,4 L0,4 L0,5 L-1,5 L-1,7 L0,7 L0,8 L1,8 L1,9 L2,9 L2,8 L3,8 L3,7 L4,7 L4,8 L5,8 L5,7 L6,7 L6,11 L5,11 L5,13 L4,13 L4,14 L2,14 L2,15 L1,15 L1,18 L0,18 L0,19 L-2,19 L-2,20 L-5,20 L-5,19 L-7,19 L-7,17 L-9,17 L-9,16 L-8,16 L-8,15 L-5,15 L-5,14 L-3,14 L-3,13 L-2,13 L-2,10 L-3,10 L-3,9 L-7,9 L-7,10 L-11,10 L-11,9 L-10,9 L-10,7 L-9,7 L-9,6 L-7,6 L-7,4 L-4,4 L-4,2 L-2,2 L-2,1 L0,1 Z M-5,18 L-5,19 L-4,19 L-4,18 Z " fill="#FA5107" transform="translate(88,201)"/>
<path d="M0,0 L1,0 L1,2 L0,2 L0,5 L1,5 L1,8 L0,8 L0,9 L-1,9 L-1,10 L-2,10 L-2,11 L-3,11 L-3,12 L-4,12 L-4,13 L-6,13 L-6,15 L-7,15 L-7,19 L-8,19 L-8,20 L-9,20 L-9,18 L-8,18 L-8,17 L-9,17 L-9,15 L-10,15 L-10,16 L-12,16 L-12,20 L-11,20 L-11,25 L-13,25 L-13,28 L-14,28 L-14,21 L-13,21 L-13,15 L-12,15 L-12,12 L-11,12 L-11,8 L-9,8 L-9,1 L-8,1 L-8,2 L-7,2 L-7,4 L-6,4 L-6,3 L-4,3 L-4,2 L-3,2 L-3,3 L-1,3 L-1,1 L0,1 Z " fill="#1772C4" transform="translate(237,199)"/>
<path d="M0,0 L1,0 L1,3 L0,3 L0,4 L-1,4 L-1,5 L-2,5 L-2,6 L-3,6 L-3,7 L-4,7 L-4,9 L-5,9 L-5,10 L-6,10 L-6,14 L-4,14 L-4,12 L-3,12 L-3,16 L-5,16 L-5,18 L-6,18 L-6,19 L-8,19 L-8,20 L-9,20 L-9,21 L-10,21 L-10,22 L-11,22 L-11,26 L-10,26 L-10,28 L-6,28 L-6,29 L-5,29 L-5,30 L-4,30 L-4,32 L-5,32 L-5,31 L-8,31 L-8,30 L-9,30 L-9,29 L-11,29 L-11,28 L-12,28 L-12,25 L-13,25 L-13,21 L-12,21 L-12,19 L-11,19 L-11,18 L-10,18 L-10,17 L-9,17 L-9,12 L-12,12 L-12,13 L-13,13 L-13,15 L-16,15 L-16,14 L-15,14 L-15,13 L-14,13 L-14,9 L-11,9 L-11,7 L-10,7 L-10,8 L-9,8 L-9,6 L-7,6 L-7,5 L-6,5 L-6,4 L-5,4 L-5,3 L-4,3 L-4,2 L-3,2 L-3,1 L-2,1 L-2,2 L-1,2 L-1,1 L0,1 Z " fill="#F9770F" transform="translate(122,218)"/>
<path d="M0,0 L4,0 L4,2 L3,2 L3,3 L2,3 L2,4 L1,4 L1,7 L4,7 L4,8 L3,8 L3,9 L2,9 L2,10 L0,10 L0,11 L-1,11 L-1,12 L-2,12 L-2,11 L-3,11 L-3,12 L-4,12 L-4,13 L-6,13 L-6,12 L-5,12 L-5,11 L-6,11 L-6,10 L-7,10 L-7,11 L-8,11 L-8,12 L-9,12 L-9,13 L-11,13 L-11,14 L-13,14 L-13,13 L-19,13 L-19,12 L-20,12 L-20,9 L-21,9 L-21,8 L-19,8 L-19,7 L-20,7 L-20,6 L-18,6 L-18,7 L-17,7 L-17,8 L-18,8 L-18,9 L-11,9 L-11,8 L-8,8 L-8,7 L-3,7 L-3,6 L-4,6 L-4,2 L-3,2 L-3,1 L0,1 Z " fill="#1972C4" transform="translate(254,205)"/>
<path d="M0,0 L1,0 L1,1 L3,1 L3,2 L4,2 L4,0 L6,0 L6,1 L7,1 L7,2 L8,2 L8,8 L7,8 L7,11 L5,11 L5,12 L4,12 L4,17 L2,17 L2,15 L0,15 L0,14 L-2,14 L-2,12 L-3,12 L-3,13 L-4,13 L-4,15 L-5,15 L-5,12 L-4,12 L-4,10 L-3,10 L-3,3 L-2,3 L-2,2 L-1,2 L-1,1 L0,1 Z " fill="#FB6D04" transform="translate(480,206)"/>
<path d="M0,0 L13,0 L13,1 L18,1 L18,3 L3,3 L3,5 L1,5 L1,7 L0,7 L0,8 L-1,8 L-1,10 L-3,10 L-3,9 L-4,9 L-4,10 L-6,10 L-6,11 L-7,11 L-7,9 L-8,9 L-8,8 L-9,8 L-9,15 L-10,15 L-10,7 L-9,7 L-9,3 L-8,3 L-8,1 L0,1 Z " fill="#499BCF" transform="translate(237,192)"/>
<path d="M0,0 L2,0 L2,4 L1,4 L1,5 L0,5 L0,7 L3,7 L3,8 L1,8 L1,12 L0,12 L0,13 L-1,13 L-1,15 L-3,15 L-3,16 L-6,16 L-6,14 L-7,14 L-7,12 L-6,12 L-6,10 L-5,10 L-5,8 L-9,8 L-9,9 L-12,9 L-12,10 L-14,10 L-14,8 L-13,8 L-13,6 L-11,6 L-11,5 L-10,5 L-10,4 L-9,4 L-9,3 L-8,3 L-8,2 L-7,2 L-7,1 L-5,1 L-5,2 L-3,2 L-3,1 L0,1 Z " fill="#FA810D" transform="translate(107,219)"/>
<path d="M0,0 L1,0 L1,2 L2,2 L2,1 L4,1 L4,2 L5,2 L5,3 L6,3 L6,4 L7,4 L7,6 L9,6 L9,7 L7,7 L7,8 L6,8 L6,14 L-7,14 L-7,13 L-8,13 L-8,12 L-7,12 L-7,11 L-6,11 L-6,9 L-5,9 L-5,7 L-4,7 L-4,6 L-2,6 L-2,4 L-1,4 L-1,3 L0,3 Z " fill="#1661AF" transform="translate(307,221)"/>
<path d="M0,0 L1,0 L1,1 L2,1 L2,2 L1,2 L1,3 L0,3 L0,7 L-1,7 L-1,8 L0,8 L0,9 L-2,9 L-2,12 L-3,12 L-3,13 L-5,13 L-5,15 L-4,15 L-4,19 L-6,19 L-6,22 L-7,22 L-7,24 L-8,24 L-8,25 L-10,25 L-10,29 L-11,29 L-11,30 L-12,30 L-12,31 L-13,31 L-13,32 L-14,32 L-14,33 L-15,33 L-15,34 L-16,34 L-16,36 L-17,36 L-17,37 L-18,37 L-18,38 L-17,38 L-17,40 L-18,40 L-18,42 L-19,42 L-19,45 L-20,45 L-20,36 L-19,36 L-19,34 L-18,34 L-18,33 L-17,33 L-17,30 L-16,30 L-16,27 L-13,27 L-13,26 L-12,26 L-12,25 L-11,25 L-11,20 L-9,20 L-9,19 L-8,19 L-8,18 L-7,18 L-7,13 L-6,13 L-6,12 L-5,12 L-5,11 L-4,11 L-4,8 L-3,8 L-3,7 L-2,7 L-2,6 L-1,6 L-1,1 L0,1 Z " fill="#F6CD48" transform="translate(218,167)"/>
<path d="M0,0 L1,0 L1,3 L0,3 L0,9 L-1,9 L-1,19 L0,19 L0,26 L1,26 L1,32 L2,32 L2,35 L3,35 L3,37 L9,37 L9,38 L11,38 L11,39 L12,39 L12,40 L13,40 L13,41 L14,41 L14,42 L15,42 L15,44 L17,44 L17,45 L30,45 L30,46 L15,46 L15,45 L14,45 L14,44 L13,44 L13,45 L8,45 L8,44 L7,44 L7,40 L3,40 L3,39 L2,39 L2,36 L1,36 L1,33 L0,33 L0,27 L-1,27 L-1,23 L-2,23 L-2,4 L-1,4 L-1,2 L0,2 Z " fill="#F5D04B" transform="translate(197,213)"/>
<path d="M0,0 L1,0 L1,2 L11,2 L11,3 L12,3 L12,2 L14,2 L14,3 L16,3 L16,5 L17,5 L17,7 L18,7 L18,9 L-1,9 L-1,8 L-2,8 L-2,7 L0,7 L0,6 L-1,6 L-1,5 L-2,5 L-2,2 L0,2 Z " fill="#FA7C05" transform="translate(127,250)"/>
<path d="M0,0 L6,0 L6,1 L5,1 L5,3 L4,3 L4,4 L3,4 L3,6 L2,6 L2,8 L4,8 L4,9 L5,9 L5,11 L6,11 L6,12 L30,12 L30,11 L44,11 L44,10 L43,10 L43,8 L41,8 L41,7 L40,7 L40,6 L42,6 L42,7 L44,7 L44,9 L45,9 L45,12 L44,12 L44,13 L27,13 L27,14 L2,14 L2,13 L3,13 L3,9 L1,9 L1,4 L-1,4 L-1,3 L0,3 L0,2 L1,2 L1,1 L0,1 Z " fill="#ED9F5F" transform="translate(78,244)"/>
<path d="M0,0 L13,0 L13,1 L17,1 L17,2 L20,2 L20,3 L21,3 L21,4 L24,4 L24,5 L25,5 L25,6 L26,6 L26,8 L27,8 L27,9 L28,9 L28,11 L29,11 L29,25 L28,25 L28,28 L27,28 L27,30 L26,30 L26,32 L25,32 L25,34 L24,34 L24,35 L23,35 L23,36 L22,36 L22,34 L23,34 L23,31 L25,31 L25,25 L26,25 L26,24 L27,24 L27,12 L26,12 L26,10 L25,10 L25,9 L24,9 L24,7 L22,7 L22,6 L21,6 L21,5 L20,5 L20,4 L17,4 L17,3 L14,3 L14,2 L-7,2 L-7,1 L0,1 Z " fill="#76A4C5" transform="translate(360,192)"/>
<path d="M0,0 L2,0 L2,2 L1,2 L1,9 L0,9 L0,11 L-1,11 L-1,14 L-2,14 L-2,22 L0,22 L0,20 L1,20 L1,23 L-1,23 L-1,24 L0,24 L0,27 L-3,27 L-3,30 L-4,30 L-4,32 L-5,32 L-5,37 L-4,37 L-4,42 L-3,42 L-3,43 L-4,43 L-4,45 L-5,45 L-5,49 L-6,49 L-6,51 L-7,51 L-7,40 L-6,40 L-6,31 L-5,31 L-5,28 L-4,28 L-4,19 L-3,19 L-3,17 L-4,17 L-4,18 L-8,18 L-8,17 L-13,17 L-13,16 L-14,16 L-14,15 L-15,15 L-15,14 L-13,14 L-13,15 L-11,15 L-11,16 L-5,16 L-5,15 L-3,15 L-3,13 L-2,13 L-2,10 L-1,10 L-1,7 L0,7 Z " fill="#F59414" transform="translate(166,200)"/>
<path d="M0,0 L1,0 L1,1 L3,1 L3,4 L4,4 L4,7 L3,7 L3,11 L2,11 L2,4 L1,4 L1,8 L0,8 L0,9 L-1,9 L-1,7 L-5,7 L-5,8 L-8,8 L-8,9 L-9,9 L-9,7 L-10,7 L-10,12 L-12,12 L-12,11 L-11,11 L-11,6 L-19,6 L-19,12 L-20,12 L-20,5 L-21,5 L-21,6 L-22,6 L-22,3 L-10,3 L-10,1 L-9,1 L-9,3 L-7,3 L-7,2 L-4,2 L-4,3 L-6,3 L-6,4 L-7,4 L-7,6 L-4,6 L-4,5 L-3,5 L-3,4 L-2,4 L-2,3 L-3,3 L-3,2 L-2,2 L-2,1 L0,1 Z " fill="#4593CC" transform="translate(259,198)"/>
<path d="M0,0 L1,0 L1,2 L2,2 L2,11 L3,11 L3,19 L4,19 L4,23 L-9,23 L-9,16 L-10,16 L-10,15 L-6,15 L-6,16 L-7,16 L-7,18 L-8,18 L-8,19 L-6,19 L-6,21 L-5,21 L-5,20 L-2,20 L-2,16 L0,16 L0,14 L-1,14 L-1,13 L0,13 L0,10 L-1,10 L-1,11 L-3,11 L-3,9 L-2,9 L-2,8 L-1,8 L-1,7 L0,7 Z " fill="#115BA3" transform="translate(340,212)"/>
<path d="M0,0 L4,0 L4,2 L5,2 L5,3 L6,3 L6,5 L7,5 L7,9 L6,9 L6,8 L5,8 L5,7 L4,7 L4,9 L5,9 L5,11 L6,11 L6,12 L5,12 L5,14 L4,14 L4,15 L2,15 L2,16 L1,16 L1,17 L0,17 L0,11 L-1,11 L-1,10 L-2,10 L-2,8 L-3,8 L-3,6 L-6,6 L-6,5 L-4,5 L-4,4 L-5,4 L-5,3 L-3,3 L-3,2 L-1,2 L-1,1 L0,1 Z " fill="#1D78C3" transform="translate(380,199)"/>
<path d="M0,0 L1,0 L1,2 L2,2 L2,4 L3,4 L3,6 L4,6 L4,18 L3,18 L3,21 L2,21 L2,22 L1,22 L1,26 L0,26 L0,28 L-1,28 L-1,29 L-2,29 L-2,30 L-3,30 L-3,31 L-4,31 L-4,32 L-5,32 L-5,33 L-7,33 L-7,34 L-8,34 L-8,35 L-10,35 L-10,30 L-7,30 L-7,31 L-5,31 L-5,29 L-3,29 L-3,25 L-2,25 L-2,20 L-1,20 L-1,19 L1,19 L1,16 L2,16 L2,8 L1,8 L1,6 L-2,6 L-2,4 L-1,4 L-1,3 L0,3 Z " fill="#EC8036" transform="translate(486,198)"/>
<path d="M0,0 L1,0 L1,1 L2,1 L2,2 L5,2 L5,1 L6,1 L6,3 L7,3 L7,2 L8,2 L8,4 L9,4 L9,3 L11,3 L11,4 L10,4 L10,5 L11,5 L11,6 L13,6 L13,9 L14,9 L14,12 L10,12 L10,11 L9,11 L9,13 L8,13 L8,12 L4,12 L4,10 L3,10 L3,7 L1,7 L1,3 L0,3 Z " fill="#0F58A9" transform="translate(242,221)"/>
<path d="M0,0 L11,0 L11,2 L10,2 L10,4 L9,4 L9,8 L8,8 L8,10 L6,10 L6,11 L5,11 L5,12 L4,12 L4,9 L1,9 L1,8 L2,8 L2,7 L0,7 L0,9 L-1,9 L-1,10 L-3,10 L-3,8 L-1,8 L-1,1 L0,1 Z " fill="#F6920B" transform="translate(438,194)"/>
<path d="M0,0 L4,0 L4,2 L3,2 L3,6 L5,6 L5,16 L7,16 L7,23 L9,23 L9,26 L10,26 L10,27 L11,27 L11,26 L12,26 L12,32 L13,32 L13,35 L16,35 L16,36 L14,36 L14,37 L4,37 L4,36 L11,36 L11,35 L10,35 L10,32 L9,32 L9,30 L8,30 L8,29 L7,29 L7,26 L6,26 L6,18 L4,18 L4,14 L3,14 L3,8 L2,8 L2,2 L0,2 Z " fill="#F3C562" transform="translate(178,220)"/>
<path d="M0,0 L2,0 L2,1 L5,1 L5,2 L4,2 L4,4 L2,4 L2,5 L0,5 L0,6 L-1,6 L-1,5 L-2,5 L-2,4 L-4,4 L-4,6 L-5,6 L-5,8 L-8,8 L-8,9 L-9,9 L-9,10 L-10,10 L-10,11 L-11,11 L-11,15 L-12,15 L-12,18 L-13,18 L-13,19 L-15,19 L-15,21 L-16,21 L-16,30 L-17,30 L-17,20 L-16,20 L-16,16 L-15,16 L-15,13 L-14,13 L-14,11 L-12,11 L-12,9 L-11,9 L-11,7 L-9,7 L-9,6 L-8,6 L-8,5 L-7,5 L-7,4 L-6,4 L-6,3 L-4,3 L-4,2 L-2,2 L-2,1 L0,1 Z " fill="#4092CA" transform="translate(278,193)"/>
<path d="M0,0 L3,0 L3,4 L4,4 L4,6 L3,6 L3,7 L1,7 L1,10 L0,10 L0,11 L-1,11 L-1,13 L1,13 L1,14 L-3,14 L-3,15 L-4,15 L-4,13 L-3,13 L-3,11 L-7,11 L-7,12 L-10,12 L-10,11 L-9,11 L-9,9 L-8,9 L-8,7 L-6,7 L-6,5 L-4,5 L-4,3 L-3,3 L-3,2 L-1,2 L-1,1 L0,1 Z " fill="#FA8A06" transform="translate(171,146)"/>
<path d="M0,0 L1,0 L1,1 L16,1 L16,2 L3,2 L3,4 L38,4 L38,2 L45,2 L45,3 L44,3 L44,4 L45,4 L45,5 L-16,5 L-16,4 L1,4 L1,2 L0,2 Z " fill="#EC8216" transform="translate(144,255)"/>
<path d="M0,0 L1,0 L1,3 L3,3 L3,0 L5,0 L5,1 L6,1 L6,2 L7,2 L7,3 L8,3 L8,4 L7,4 L7,6 L8,6 L8,5 L9,5 L9,6 L10,6 L10,7 L8,7 L8,8 L22,8 L22,6 L23,6 L23,7 L24,7 L24,2 L25,2 L25,8 L24,8 L24,9 L-1,9 L-1,2 L-2,2 L-2,1 L0,1 Z " fill="#E84D0F" transform="translate(490,225)"/>
<path d="M0,0 L4,0 L4,2 L3,2 L3,3 L2,3 L2,6 L1,6 L1,7 L0,7 L0,9 L-1,9 L-1,8 L-2,8 L-2,5 L-6,5 L-6,7 L-4,7 L-4,8 L-6,8 L-6,9 L-8,9 L-8,10 L-9,10 L-9,12 L-11,12 L-11,14 L-12,14 L-12,16 L-14,16 L-14,20 L-15,20 L-15,23 L-16,23 L-16,25 L-17,25 L-17,27 L-18,27 L-18,22 L-17,22 L-17,20 L-16,20 L-16,18 L-15,18 L-15,15 L-14,15 L-14,13 L-13,13 L-13,12 L-12,12 L-12,8 L-11,8 L-11,7 L-8,7 L-8,5 L-7,5 L-7,4 L-3,4 L-3,3 L-2,3 L-2,2 L-1,2 L-1,1 L0,1 Z " fill="#F5AA07" transform="translate(192,204)"/>
<path d="M0,0 L2,0 L2,2 L6,2 L6,3 L10,3 L10,4 L33,4 L33,3 L34,3 L34,6 L14,6 L14,5 L-5,5 L-5,4 L-6,4 L-6,3 L-5,3 L-5,2 L-2,2 L-2,1 L0,1 Z " fill="#F0A911" transform="translate(194,255)"/>
<path d="M0,0 L1,0 L1,1 L3,1 L3,0 L7,0 L7,1 L12,1 L12,0 L13,0 L13,2 L14,2 L14,4 L12,4 L12,5 L11,5 L11,3 L10,3 L10,5 L8,5 L8,6 L6,6 L6,4 L4,4 L4,5 L2,5 L2,7 L-4,7 L-4,8 L-6,8 L-6,6 L-7,6 L-7,3 L-6,3 L-6,4 L-4,4 L-4,3 L-2,3 L-2,2 L-1,2 L-1,1 L0,1 Z " fill="#0F5BAE" transform="translate(277,227)"/>
<path d="M0,0 L1,0 L1,6 L0,6 L0,7 L-1,7 L-1,6 L-2,6 L-2,9 L-1,9 L-1,14 L7,14 L7,15 L6,15 L6,16 L1,16 L1,15 L-2,15 L-2,11 L-3,11 L-3,14 L-4,14 L-4,15 L-5,15 L-5,16 L-6,16 L-6,15 L-29,15 L-29,16 L-30,16 L-30,15 L-32,15 L-32,11 L-31,11 L-31,9 L-32,9 L-32,8 L-31,8 L-31,7 L-30,7 L-30,14 L-5,14 L-5,13 L-4,13 L-4,7 L-5,7 L-5,4 L-2,4 L-2,5 L-1,5 L-1,4 L0,4 Z " fill="#DD8D61" transform="translate(519,220)"/>
<path d="M0,0 L26,0 L26,1 L27,1 L27,7 L26,7 L26,11 L25,11 L25,12 L11,12 L11,14 L10,14 L10,11 L23,11 L23,9 L24,9 L24,8 L25,8 L25,2 L0,2 L0,3 L-1,3 L-1,1 L0,1 Z " fill="#EFC462" transform="translate(526,192)"/>
<path d="M0,0 L1,0 L1,4 L6,4 L6,3 L7,3 L7,2 L8,2 L8,3 L9,3 L9,11 L-3,11 L-3,8 L-2,8 L-2,3 L0,3 Z " fill="#16579E" transform="translate(224,224)"/>
<path d="M0,0 L1,0 L1,2 L3,2 L3,4 L2,4 L2,5 L0,5 L0,7 L-1,7 L-1,8 L-3,8 L-3,9 L-4,9 L-4,10 L-6,10 L-6,11 L-8,11 L-8,12 L-12,12 L-12,13 L-25,13 L-25,11 L-19,11 L-19,9 L-17,9 L-17,8 L-15,8 L-15,10 L-13,10 L-13,9 L-11,9 L-11,7 L-10,7 L-10,9 L-5,9 L-5,7 L-2,7 L-2,6 L-3,6 L-3,5 L-5,5 L-5,4 L-4,4 L-4,3 L-3,3 L-3,4 L0,4 Z " fill="#3770A9" transform="translate(298,223)"/>
<path d="M0,0 L2,0 L2,3 L3,3 L3,2 L5,2 L5,3 L6,3 L6,4 L7,4 L7,7 L8,7 L8,18 L7,18 L7,16 L6,16 L6,17 L5,17 L5,15 L6,15 L6,9 L5,9 L5,10 L3,10 L3,8 L1,8 L1,7 L0,7 L0,8 L-1,8 L-1,9 L-3,9 L-3,8 L-2,8 L-2,6 L-3,6 L-3,4 L-2,4 L-2,3 L-3,3 L-3,1 L0,1 Z " fill="#297FC3" transform="translate(298,197)"/>
<path d="M0,0 L1,0 L1,4 L2,4 L2,18 L12,18 L12,17 L14,17 L14,16 L16,16 L16,13 L17,13 L17,11 L19,11 L19,13 L18,13 L18,16 L17,16 L17,18 L16,18 L16,19 L15,19 L15,20 L7,20 L7,21 L2,21 L2,20 L0,20 Z " fill="#DD7446" transform="translate(393,215)"/>
<path d="M0,0 L1,0 L1,3 L2,3 L2,6 L4,6 L4,10 L3,10 L3,22 L1,22 L1,25 L0,25 L0,29 L-1,29 L-1,26 L-2,26 L-2,20 L-1,20 L-1,19 L0,19 L0,16 L-1,16 L-1,11 L0,11 L0,10 L1,10 L1,6 L0,6 Z " fill="#F9E553" transform="translate(219,137)"/>
<path d="M0,0 L8,0 L8,1 L7,1 L7,3 L13,3 L13,2 L16,2 L16,1 L19,1 L19,0 L25,0 L25,2 L21,2 L21,1 L20,1 L20,2 L18,2 L18,3 L17,3 L17,4 L13,4 L13,5 L8,5 L8,6 L2,6 L2,5 L-1,5 L-1,2 L0,2 Z " fill="#EE4A19" transform="translate(42,243)"/>
<path d="M0,0 L3,0 L3,4 L4,4 L4,6 L3,6 L3,8 L2,8 L2,10 L1,10 L1,14 L0,14 L0,15 L-1,15 L-1,14 L-2,14 L-2,13 L-7,13 L-7,12 L-8,12 L-8,11 L-7,11 L-7,9 L-6,9 L-6,7 L-2,7 L-2,4 L-1,4 L-1,1 L0,1 Z M1,1 L1,3 L0,3 L0,5 L-1,5 L-1,7 L0,7 L0,6 L1,6 L1,5 L2,5 L2,1 Z M-2,7 L-2,8 L-1,8 L-1,7 Z " fill="#F07D37" transform="translate(88,219)"/>
<path d="M0,0 L1,0 L1,1 L2,1 L2,0 L4,0 L4,1 L10,1 L10,4 L11,4 L11,5 L12,5 L12,6 L10,6 L10,5 L8,5 L8,4 L2,4 L2,5 L-1,5 L-1,6 L1,6 L1,8 L0,8 L0,9 L-1,9 L-1,10 L-2,10 L-2,12 L-3,12 L-3,13 L-6,13 L-6,10 L-5,10 L-5,9 L-4,9 L-4,6 L-3,6 L-3,5 L-2,5 L-2,4 L-1,4 L-1,1 L0,1 Z " fill="#F56B08" transform="translate(129,207)"/>
<path d="M0,0 L1,0 L1,3 L21,3 L21,5 L-14,5 L-14,3 L-1,3 L-1,2 L0,2 Z " fill="#F78403" transform="translate(161,254)"/>
<path d="M0,0 L4,0 L4,2 L2,2 L2,3 L-1,3 L-1,4 L-2,4 L-2,5 L0,5 L0,6 L1,6 L1,7 L2,7 L2,8 L3,8 L3,11 L0,11 L0,10 L-2,10 L-2,8 L-4,8 L-4,7 L-5,7 L-5,6 L-6,6 L-6,5 L-8,5 L-8,4 L-9,4 L-9,3 L-10,3 L-10,2 L-9,2 L-9,1 L0,1 Z " fill="#E1522F" transform="translate(36,233)"/>
<path d="M0,0 L2,0 L2,1 L1,1 L1,3 L3,3 L3,2 L6,2 L6,1 L10,1 L10,3 L9,3 L9,5 L8,5 L8,6 L3,6 L3,8 L2,8 L2,9 L1,9 L1,10 L-3,10 L-3,8 L-4,8 L-4,7 L-3,7 L-3,3 L-2,3 L-2,2 L0,2 Z " fill="#F96E03" transform="translate(92,226)"/>
<path d="M0,0 L1,0 L1,8 L0,8 L0,15 L1,15 L1,19 L2,19 L2,22 L3,22 L3,20 L5,20 L5,21 L6,21 L6,22 L5,22 L5,24 L6,24 L6,26 L11,26 L11,27 L9,27 L9,28 L7,28 L7,27 L5,27 L5,26 L4,26 L4,25 L3,25 L3,24 L2,24 L2,23 L1,23 L1,22 L0,22 L0,20 L-1,20 L-1,17 L-2,17 L-2,15 L-3,15 L-3,13 L-2,13 L-2,10 L-3,10 L-3,9 L-2,9 L-2,6 L-1,6 L-1,3 L0,3 Z " fill="#E98742" transform="translate(447,207)"/>
<path d="M0,0 L9,0 L9,4 L8,4 L8,2 L7,2 L7,5 L4,5 L4,3 L3,3 L3,4 L2,4 L2,6 L1,6 L1,7 L0,7 L0,8 L1,8 L1,12 L0,12 L0,13 L1,13 L1,17 L0,17 L0,16 L-1,16 L-1,20 L-2,20 L-2,7 L-1,7 L-1,6 L0,6 L0,3 L-1,3 L-1,1 L0,1 Z " fill="#FB9005" transform="translate(395,195)"/>
<path d="M0,0 L3,0 L3,1 L4,1 L4,0 L8,0 L8,1 L9,1 L9,2 L10,2 L10,6 L2,6 L2,7 L-2,7 L-2,6 L-3,6 L-3,4 L-4,4 L-4,3 L-1,3 L-1,2 L-2,2 L-2,1 L0,1 Z " fill="#FC4703" transform="translate(464,227)"/>
<path d="M0,0 L11,0 L11,1 L12,1 L12,19 L13,19 L13,20 L12,20 L12,22 L13,22 L13,21 L14,21 L14,24 L13,24 L13,28 L11,28 L11,23 L9,23 L9,22 L10,22 L10,18 L11,18 L11,2 L0,2 L0,3 L-1,3 L-1,6 L-3,6 L-3,5 L-2,5 L-2,2 L-1,2 L-1,1 L0,1 Z " fill="#EFA75B" transform="translate(416,192)"/>
<path d="M0,0 L1,0 L1,3 L12,3 L12,4 L13,4 L13,7 L12,7 L12,11 L11,11 L11,14 L9,14 L9,15 L1,15 L1,14 L-2,14 L-2,20 L-3,20 L-3,24 L-4,24 L-4,15 L-3,15 L-3,13 L9,13 L9,8 L11,8 L11,4 L0,4 Z " fill="#F0A05C" transform="translate(535,206)"/>
<path d="M0,0 L1,0 L1,2 L2,2 L2,1 L5,1 L5,2 L4,2 L4,3 L3,3 L3,4 L4,4 L4,5 L5,5 L5,6 L6,6 L6,8 L-2,8 L-2,9 L-4,9 L-4,10 L-5,10 L-5,11 L-6,11 L-6,12 L-7,12 L-7,14 L-8,14 L-8,16 L-9,16 L-9,11 L-8,11 L-8,9 L-7,9 L-7,7 L-4,7 L-4,6 L-2,6 L-2,3 L-1,3 L-1,2 L0,2 Z " fill="#257FC6" transform="translate(284,196)"/>
<path d="M0,0 L15,0 L15,1 L17,1 L17,2 L12,2 L12,1 L7,1 L7,2 L5,2 L5,3 L0,3 L0,4 L-4,4 L-4,5 L-5,5 L-5,7 L-8,7 L-8,8 L-10,8 L-10,9 L-11,9 L-11,11 L-12,11 L-12,14 L-13,14 L-13,15 L-15,15 L-15,13 L-14,13 L-14,11 L-13,11 L-13,10 L-12,10 L-12,8 L-11,8 L-11,7 L-9,7 L-9,5 L-7,5 L-7,4 L-5,4 L-5,3 L-4,3 L-4,2 L-2,2 L-2,1 L0,1 Z " fill="#F2BC61" transform="translate(463,192)"/>
<path d="M0,0 L1,0 L1,12 L3,12 L3,18 L4,18 L4,22 L3,22 L3,23 L2,23 L2,28 L3,28 L3,31 L2,31 L2,32 L0,32 L0,31 L-2,31 L-2,28 L-1,28 L-1,27 L0,27 L0,29 L1,29 L1,25 L0,25 L0,20 L2,20 L2,21 L3,21 L3,19 L2,19 L2,16 L1,16 L1,14 L0,14 L0,12 L-1,12 L-1,3 L0,3 Z " fill="#FBD812" transform="translate(216,125)"/>
<path d="M0,0 L2,0 L2,1 L3,1 L3,3 L0,3 L0,10 L-1,10 L-1,13 L-2,13 L-2,15 L-3,15 L-3,16 L-4,16 L-4,18 L-5,18 L-5,19 L-6,19 L-6,20 L-7,20 L-7,21 L-8,21 L-8,22 L-9,22 L-9,23 L-11,23 L-11,24 L-12,24 L-12,25 L-13,25 L-13,26 L-14,26 L-14,22 L-11,22 L-11,20 L-9,20 L-9,19 L-8,19 L-8,16 L-5,16 L-5,15 L-4,15 L-4,13 L-3,13 L-3,12 L-2,12 L-2,1 L0,1 Z " fill="#EE9E5B" transform="translate(141,212)"/>
<path d="M0,0 L14,0 L14,1 L9,1 L9,2 L10,2 L10,3 L26,3 L26,4 L-2,4 L-2,3 L-3,3 L-3,1 L0,1 Z " fill="#E3BEA1" transform="translate(34,259)"/>
<path d="M0,0 L2,0 L2,1 L6,1 L6,9 L7,9 L7,10 L6,10 L6,11 L5,11 L5,12 L4,12 L4,13 L3,13 L3,17 L4,17 L4,19 L8,19 L8,20 L9,20 L9,21 L10,21 L10,23 L9,23 L9,22 L6,22 L6,21 L5,21 L5,20 L3,20 L3,19 L2,19 L2,16 L1,16 L1,12 L2,12 L2,10 L3,10 L3,9 L4,9 L4,8 L5,8 L5,3 L2,3 L2,4 L1,4 L1,6 L-2,6 L-2,5 L-1,5 L-1,4 L0,4 Z " fill="#EAA55A" transform="translate(108,227)"/>
<path d="M0,0 L11,0 L11,1 L12,1 L12,5 L11,5 L11,7 L10,7 L10,10 L9,10 L9,11 L8,11 L8,14 L7,14 L7,16 L6,16 L6,19 L5,19 L5,20 L4,20 L4,13 L5,13 L5,12 L7,12 L7,10 L8,10 L8,6 L9,6 L9,4 L10,4 L10,2 L-1,2 L-1,3 L-2,3 L-2,1 L0,1 Z " fill="#EEBF6A" transform="translate(439,192)"/>
<path d="M0,0 L1,0 L1,1 L0,1 Z M-2,1 L0,1 L0,2 L-1,2 L-1,3 L-2,3 L-2,4 L-3,4 L-3,5 L-5,5 L-5,6 L-6,6 L-6,8 L-7,8 L-7,10 L-8,10 L-8,11 L-11,11 L-11,10 L-12,10 L-12,11 L-13,11 L-13,9 L-14,9 L-14,8 L-13,8 L-13,7 L-14,7 L-14,5 L-13,5 L-13,4 L-12,4 L-12,3 L-11,3 L-11,2 L-10,2 L-10,3 L-3,3 L-3,2 L-2,2 Z " fill="#FCC102" transform="translate(205,115)"/>
<path d="M0,0 L20,0 L20,1 L21,1 L21,2 L23,2 L23,3 L-1,3 L-1,1 L0,1 Z " fill="#F1660B" transform="translate(105,257)"/>
<path d="M0,0 L1,0 L1,2 L0,2 L0,4 L-1,4 L-1,5 L-2,5 L-2,6 L-3,6 L-3,8 L-4,8 L-4,9 L-5,9 L-5,10 L-6,10 L-6,11 L-7,11 L-7,12 L-8,12 L-8,13 L-10,13 L-10,14 L-12,14 L-12,13 L-11,13 L-11,12 L-10,12 L-10,10 L-13,10 L-13,9 L-12,9 L-12,8 L-11,8 L-11,7 L-10,7 L-10,5 L-6,5 L-6,4 L-3,4 L-3,2 L-2,2 L-2,1 L0,1 Z " fill="#F33801" transform="translate(79,215)"/>
<path d="M0,0 L10,0 L10,1 L9,1 L9,2 L8,2 L8,7 L7,7 L7,6 L6,6 L6,5 L0,5 L0,6 L-4,6 L-4,5 L-5,5 L-5,3 L-3,3 L-3,2 L-2,2 L-2,1 L0,1 Z " fill="#F23E06" transform="translate(44,228)"/>
<path d="M0,0 L1,0 L1,3 L0,3 L0,7 L5,7 L5,6 L12,6 L12,8 L7,8 L7,9 L6,9 L6,11 L4,11 L4,12 L-1,12 L-1,11 L-2,11 L-2,9 L-3,9 L-3,6 L-2,6 L-2,5 L-1,5 L-1,2 L0,2 Z " fill="#EF5912" transform="translate(502,218)"/>
<path d="M0,0 L5,0 L5,2 L4,2 L4,3 L3,3 L3,4 L2,4 L2,6 L1,6 L1,5 L0,5 L0,6 L-1,6 L-1,7 L-2,7 L-2,6 L-5,6 L-5,7 L-6,7 L-6,6 L-8,6 L-8,7 L-9,7 L-9,6 L-11,6 L-11,4 L-8,4 L-8,3 L-7,3 L-7,2 L-4,2 L-4,1 L0,1 Z " fill="#F94C02" transform="translate(118,185)"/>
<path d="M0,0 L1,0 L1,2 L0,2 L0,4 L-1,4 L-1,5 L2,5 L2,4 L6,4 L6,6 L4,6 L4,7 L2,7 L2,8 L0,8 L0,9 L-1,9 L-1,10 L-2,10 L-2,11 L-1,11 L-1,13 L-2,13 L-2,14 L-3,14 L-3,15 L-4,15 L-4,13 L-5,13 L-5,5 L-4,5 L-4,4 L-3,4 L-3,3 L-1,3 L-1,1 L0,1 Z " fill="#EE862D" transform="translate(162,153)"/>
<path d="M0,0 L1,0 L1,4 L5,4 L5,3 L6,3 L6,5 L4,5 L4,6 L3,6 L3,7 L2,7 L2,9 L0,9 L0,8 L-1,8 L-1,6 L-2,6 L-2,8 L-3,8 L-3,7 L-4,7 L-4,8 L-5,8 L-5,9 L-7,9 L-7,10 L-8,10 L-8,11 L-9,11 L-9,12 L-10,12 L-10,10 L-11,10 L-11,8 L-10,8 L-10,7 L-9,7 L-9,6 L-5,6 L-5,4 L-2,4 L-2,3 L0,3 Z " fill="#F86F03" transform="translate(157,167)"/>
<path d="M0,0 L5,0 L5,1 L6,1 L6,2 L10,2 L10,1 L11,1 L11,0 L17,0 L17,2 L16,2 L16,3 L15,3 L15,4 L16,4 L16,6 L10,6 L10,4 L11,4 L11,3 L3,3 L3,5 L0,5 Z " fill="#F3480E" transform="translate(39,240)"/>
<path d="M0,0 L1,0 L1,4 L3,4 L3,7 L4,7 L4,9 L8,9 L8,10 L9,10 L9,8 L10,8 L10,9 L14,9 L14,6 L13,6 L13,3 L14,3 L14,4 L15,4 L15,5 L17,5 L17,7 L16,7 L16,9 L15,9 L15,10 L14,10 L14,11 L1,11 L1,8 L0,8 Z " fill="#216199" transform="translate(242,224)"/>
<path d="M0,0 L5,0 L5,6 L2,6 L2,4 L1,4 L1,6 L0,6 L0,4 L-1,4 L-1,6 L-2,6 L-2,5 L-4,5 L-4,6 L-5,6 L-5,7 L-11,7 L-11,6 L-8,6 L-8,4 L-5,4 L-5,2 L-3,2 L-3,1 L0,1 Z " fill="#1263B4" transform="translate(297,219)"/>
<path d="M0,0 L9,0 L9,1 L12,1 L12,3 L9,3 L9,4 L-16,4 L-16,3 L0,3 Z " fill="#E9D19E" transform="translate(228,259)"/>
<path d="M0,0 L2,0 L2,2 L3,2 L3,1 L4,1 L4,3 L3,3 L3,5 L2,5 L2,7 L1,7 L1,8 L0,8 L0,7 L-1,7 L-1,8 L-2,8 L-2,9 L-7,9 L-7,5 L-6,5 L-6,2 L-3,2 L-3,3 L-4,3 L-4,4 L-3,4 L-3,5 L-2,5 L-2,3 L0,3 L0,2 L-1,2 L-1,1 L0,1 Z " fill="#115FB1" transform="translate(232,219)"/>
<path d="M0,0 L11,0 L11,14 L10,14 L10,8 L9,8 L9,2 L6,2 L6,1 L5,1 L5,2 L2,2 L2,3 L1,3 L1,4 L0,4 L0,5 L-1,5 L-1,7 L-2,7 L-2,6 L-3,6 L-3,9 L-4,9 L-4,10 L-5,10 L-5,7 L-4,7 L-4,5 L-3,5 L-3,4 L-1,4 L-1,1 L0,1 Z " fill="#F2951E" transform="translate(416,194)"/>
<path d="M0,0 L2,0 L2,1 L3,1 L3,2 L5,2 L5,3 L6,3 L6,5 L5,5 L5,4 L4,4 L4,5 L2,5 L2,6 L1,6 L1,7 L2,7 L2,8 L1,8 L1,9 L0,9 L0,10 L-3,10 L-3,8 L-2,8 L-2,7 L0,7 L0,6 L-3,6 L-3,7 L-5,7 L-5,4 L-4,4 L-4,3 L-3,3 L-3,1 L0,1 Z " fill="#328ED0" transform="translate(255,194)"/>
<path d="M0,0 L1,0 L1,2 L2,2 L2,4 L3,4 L3,7 L2,7 L2,9 L3,9 L3,11 L4,11 L4,12 L5,12 L5,13 L3,13 L3,12 L2,12 L2,11 L-4,11 L-4,9 L-5,9 L-5,7 L-4,7 L-4,6 L-1,6 L-1,5 L0,5 L0,4 L-1,4 L-1,1 L0,1 Z " fill="#F77A03" transform="translate(148,204)"/>
<path d="M0,0 L1,0 L1,2 L11,2 L11,3 L12,3 L12,2 L14,2 L14,3 L15,3 L15,5 L13,5 L13,6 L12,6 L12,5 L8,5 L8,4 L5,4 L5,5 L4,5 L4,6 L-1,6 L-1,5 L-2,5 L-2,2 L0,2 Z " fill="#FB8908" transform="translate(127,250)"/>
<path d="M0,0 L2,0 L2,1 L1,1 L1,3 L0,3 L0,4 L-5,4 L-5,5 L-6,5 L-6,7 L-7,7 L-7,8 L-8,8 L-8,9 L-9,9 L-9,10 L-10,10 L-10,11 L-14,11 L-14,12 L-15,12 L-15,14 L-17,14 L-17,12 L-16,12 L-16,11 L-15,11 L-15,10 L-14,10 L-14,9 L-13,9 L-13,8 L-12,8 L-12,7 L-11,7 L-11,6 L-10,6 L-10,5 L-9,5 L-9,4 L-7,4 L-7,3 L-3,3 L-3,2 L-1,2 L-1,1 L0,1 Z " fill="#F3C63E" transform="translate(201,110)"/>
<path d="M0,0 L2,0 L2,2 L4,2 L4,13 L3,13 L3,15 L2,15 L2,19 L1,19 L1,21 L-5,21 L-5,20 L-2,20 L-2,18 L-1,18 L-1,17 L0,17 L0,15 L1,15 L1,13 L2,13 L2,4 L1,4 L1,2 L-1,2 L-1,1 L0,1 Z " fill="#EFA753" transform="translate(473,203)"/>
<path d="M0,0 L1,0 L1,3 L0,3 L0,4 L-1,4 L-1,5 L-2,5 L-2,8 L-1,8 L-1,9 L-2,9 L-2,15 L-3,15 L-3,16 L-4,16 L-4,17 L-5,17 L-5,18 L-6,18 L-6,14 L-8,14 L-8,11 L-7,11 L-7,10 L-5,10 L-5,9 L-4,9 L-4,7 L-3,7 L-3,3 L-1,3 L-1,1 L0,1 Z " fill="#F35411" transform="translate(97,205)"/>
<path d="M0,0 L4,0 L4,1 L5,1 L5,4 L4,4 L4,5 L2,5 L2,4 L-5,4 L-5,5 L-7,5 L-7,6 L-10,6 L-10,3 L-8,3 L-8,2 L-6,2 L-6,1 L0,1 Z " fill="#F83601" transform="translate(81,210)"/>
<path d="M0,0 L1,0 L1,1 L2,1 L2,21 L1,21 L1,13 L0,13 L0,3 L-1,3 L-1,7 L-2,7 L-2,8 L-3,8 L-3,10 L-4,10 L-4,12 L-5,12 L-5,7 L-3,7 L-3,5 L-2,5 L-2,1 L0,1 Z " fill="#F0935A" transform="translate(417,213)"/>
<path d="M0,0 L11,0 L11,1 L12,1 L12,7 L11,7 L11,11 L10,11 L10,2 L-1,2 L-1,5 L-2,5 L-2,12 L-3,12 L-3,13 L-4,13 L-4,11 L-3,11 L-3,4 L-2,4 L-2,1 L0,1 Z " fill="#EFC679" transform="translate(497,192)"/>
<path d="M0,0 L1,0 L1,10 L9,10 L9,9 L11,9 L11,10 L12,10 L12,9 L14,9 L14,8 L15,8 L15,7 L16,7 L16,10 L15,10 L15,12 L13,12 L13,13 L12,13 L12,12 L0,12 Z " fill="#DB602D" transform="translate(419,223)"/>
<path d="M0,0 L1,0 L1,9 L0,9 L0,11 L-1,11 L-1,13 L-2,13 L-2,14 L-4,14 L-4,15 L-5,15 L-5,16 L-6,16 L-6,17 L-8,17 L-8,16 L-7,16 L-7,14 L-6,14 L-6,13 L-4,13 L-4,12 L-3,12 L-3,11 L-2,11 L-2,10 L-5,10 L-5,7 L-4,7 L-4,6 L-3,6 L-3,5 L-1,5 L-1,4 L0,4 Z " fill="#2678BB" transform="translate(260,202)"/>
<path d="M0,0 L2,0 L2,3 L3,3 L3,4 L4,4 L4,3 L5,3 L5,9 L6,9 L6,12 L9,12 L9,13 L7,13 L7,14 L-3,14 L-3,13 L4,13 L4,12 L3,12 L3,9 L2,9 L2,7 L1,7 L1,1 L0,1 Z " fill="#F5C240" transform="translate(185,243)"/>
<path d="M0,0 L1,0 L1,2 L2,2 L2,3 L1,3 L1,5 L0,5 L0,6 L-2,6 L-2,7 L-3,7 L-3,8 L-6,8 L-6,9 L-9,9 L-9,10 L-14,10 L-14,9 L-16,9 L-16,8 L-13,8 L-13,7 L-4,7 L-4,6 L-5,6 L-5,4 L-2,4 L-2,1 L0,1 Z " fill="#3C76AC" transform="translate(380,225)"/>
<path d="M0,0 L2,0 L2,1 L1,1 L1,3 L9,3 L9,2 L11,2 L11,4 L8,4 L8,5 L7,5 L7,6 L5,6 L5,7 L4,7 L4,9 L2,9 L2,11 L0,11 L0,10 L1,10 L1,7 L2,7 L2,6 L3,6 L3,5 L0,5 L0,4 L-3,4 L-3,1 L0,1 Z M3,4 L3,5 L4,5 L4,4 Z " fill="#EC9D45" transform="translate(163,142)"/>
<path d="M0,0 L2,0 L2,1 L1,1 L1,2 L0,2 L0,8 L1,8 L1,9 L2,9 L2,10 L1,10 L1,11 L0,11 L0,12 L-1,12 L-1,10 L-3,10 L-3,13 L-5,13 L-5,14 L-6,14 L-6,15 L-8,15 L-8,17 L-9,17 L-9,14 L-8,14 L-8,13 L-7,13 L-7,12 L-6,12 L-6,11 L-5,11 L-5,10 L-4,10 L-4,9 L-3,9 L-3,7 L-2,7 L-2,4 L-1,4 L-1,2 L-2,2 L-2,3 L-3,3 L-3,1 L0,1 Z " fill="#F09B57" transform="translate(73,239)"/>
<path d="M0,0 L1,0 L1,2 L2,2 L2,4 L3,4 L3,6 L4,6 L4,18 L3,18 L3,21 L2,21 L2,22 L1,22 L1,20 L2,20 L2,8 L1,8 L1,6 L-2,6 L-2,4 L-1,4 L-1,3 L0,3 Z " fill="#EC9C52" transform="translate(486,198)"/>
<path d="M0,0 L1,0 L1,1 L2,1 L2,2 L3,2 L3,1 L4,1 L4,4 L2,4 L2,5 L0,5 L0,7 L-1,7 L-1,6 L-3,6 L-3,7 L-2,7 L-2,8 L-4,8 L-4,9 L-3,9 L-3,10 L-5,10 L-5,8 L-6,8 L-6,7 L-4,7 L-4,6 L-6,6 L-6,2 L-4,2 L-4,1 L-2,1 L-2,3 L-1,3 L-1,1 L0,1 Z M1,2 L1,3 L2,3 L2,2 Z M-3,3 L-3,4 L-2,4 L-2,3 Z " fill="#1161B4" transform="translate(355,220)"/>
<path d="M0,0 L2,0 L2,1 L3,1 L3,2 L4,2 L4,3 L5,3 L5,4 L4,4 L4,6 L5,6 L5,5 L6,5 L6,6 L7,6 L7,7 L5,7 L5,8 L-3,8 L-3,7 L-2,7 L-2,3 L0,3 Z " fill="#FA4D04" transform="translate(493,225)"/>
<path d="M0,0 L10,0 L10,1 L8,1 L8,2 L3,2 L3,3 L2,3 L2,4 L0,4 L0,6 L-2,6 L-2,12 L-3,12 L-3,13 L-4,13 L-4,9 L-3,9 L-3,4 L-2,4 L-2,1 L0,1 Z " fill="#F3A117" transform="translate(526,194)"/>
<path d="M0,0 L1,0 L1,1 L2,1 L2,2 L1,2 L1,3 L0,3 L0,7 L-1,7 L-1,8 L0,8 L0,9 L-2,9 L-2,12 L-3,12 L-3,13 L-5,13 L-5,15 L-4,15 L-4,19 L-6,19 L-6,21 L-7,21 L-7,13 L-6,13 L-6,12 L-5,12 L-5,11 L-4,11 L-4,8 L-3,8 L-3,7 L-2,7 L-2,6 L-1,6 L-1,1 L0,1 Z " fill="#F9DD6B" transform="translate(218,167)"/>
<path d="M0,0 L3,0 L3,1 L2,1 L2,2 L1,2 L1,3 L0,3 L0,4 L-1,4 L-1,6 L-2,6 L-2,9 L-3,9 L-3,16 L-2,16 L-2,17 L-1,17 L-1,18 L1,18 L1,19 L5,19 L5,20 L0,20 L0,19 L-4,19 L-4,7 L-3,7 L-3,5 L-4,5 L-4,3 L-1,3 L-1,1 L0,1 Z " fill="#E88B51" transform="translate(462,205)"/>
<path d="M0,0 L4,0 L4,3 L5,3 L5,4 L4,4 L4,5 L2,5 L2,7 L1,7 L1,6 L0,6 L0,7 L-1,7 L-1,8 L-2,8 L-2,9 L-3,9 L-3,12 L-4,12 L-4,11 L-6,11 L-6,9 L-5,9 L-5,7 L-3,7 L-3,5 L-2,5 L-2,4 L0,4 L0,3 L2,3 L2,2 L0,2 Z " fill="#F7A40B" transform="translate(186,209)"/>
<path d="M0,0 L1,0 L1,6 L2,6 L2,7 L-3,7 L-3,8 L-6,8 L-6,9 L-13,9 L-13,8 L-12,8 L-12,4 L-11,4 L-11,3 L-10,3 L-10,6 L-3,6 L-3,5 L0,5 Z " fill="#2A71AF" transform="translate(249,205)"/>
<path d="M0,0 L2,0 L2,2 L0,2 L0,3 L-2,3 L-2,5 L-5,5 L-5,7 L-7,7 L-7,8 L-8,8 L-8,10 L-9,10 L-9,11 L-11,11 L-11,12 L-13,12 L-13,13 L-17,13 L-17,12 L-15,12 L-15,11 L-13,11 L-13,10 L-11,10 L-11,9 L-10,9 L-10,8 L-9,8 L-9,6 L-8,6 L-8,5 L-7,5 L-7,4 L-5,4 L-5,3 L-4,3 L-4,2 L-2,2 L-2,1 L0,1 Z " fill="#DE6943" transform="translate(86,200)"/>
<path d="M0,0 L2,0 L2,1 L3,1 L3,3 L2,3 L2,5 L0,5 L0,6 L-8,6 L-8,4 L-7,4 L-7,3 L-5,3 L-5,2 L-4,2 L-4,1 L0,1 Z " fill="#FA7D01" transform="translate(172,139)"/>
<path d="M0,0 L1,0 L1,1 L2,1 L2,3 L18,3 L18,4 L20,4 L20,5 L0,5 Z " fill="#134B85" transform="translate(346,230)"/>
<path d="M0,0 L3,0 L3,1 L4,1 L4,0 L8,0 L8,2 L5,2 L5,4 L7,4 L7,5 L-6,5 L-6,4 L-2,4 L-2,1 L-1,1 L-1,2 L0,2 Z " fill="#1662AF" transform="translate(322,222)"/>
<path d="M0,0 L2,0 L2,2 L1,2 L1,9 L0,9 L0,18 L-2,18 L-2,8 L-3,8 L-3,6 L-2,6 L-2,5 L-1,5 L-1,2 L0,2 Z " fill="#F2B644" transform="translate(172,231)"/>
<path d="M0,0 L2,0 L2,1 L1,1 L1,5 L0,5 L0,8 L-1,8 L-1,9 L-3,9 L-3,11 L-4,11 L-4,20 L-5,20 L-5,10 L-4,10 L-4,6 L-3,6 L-3,3 L-2,3 L-2,1 L0,1 Z " fill="#518DBE" transform="translate(266,203)"/>
<path d="M0,0 L7,0 L7,1 L6,1 L6,2 L7,2 L7,3 L-21,3 L-21,2 L0,2 Z " fill="#F18C10" transform="translate(182,257)"/>
<path d="M0,0 L2,0 L2,1 L1,1 L1,2 L0,2 L0,4 L-3,4 L-3,5 L-4,5 L-4,8 L-6,8 L-6,9 L-10,9 L-10,10 L-11,10 L-11,11 L-13,11 L-13,10 L-12,10 L-12,9 L-11,9 L-11,8 L-10,8 L-10,7 L-9,7 L-9,6 L-8,6 L-8,5 L-7,5 L-7,4 L-5,4 L-5,3 L-4,3 L-4,2 L-1,2 L-1,1 L0,1 Z " fill="#F2BE5D" transform="translate(178,131)"/>
<path d="M0,0 L14,0 L14,1 L15,1 L15,8 L14,8 L14,6 L13,6 L13,1 L1,1 L1,2 L0,2 L0,4 L-1,4 L-1,5 L-2,5 L-2,8 L-3,8 L-3,2 L-2,2 L-2,1 L0,1 Z " fill="#5382AD" transform="translate(316,227)"/>
<path d="M0,0 L5,0 L5,1 L3,1 L3,3 L0,3 L0,5 L-11,5 L-11,6 L-10,6 L-10,7 L-9,7 L-9,8 L-11,8 L-11,7 L-13,7 L-13,3 L-11,3 L-11,4 L-4,4 L-4,3 L-2,3 L-2,2 L-1,2 L-1,1 L0,1 Z " fill="#2B6FAB" transform="translate(289,220)"/>
<path d="M0,0 L3,0 L3,1 L2,1 L2,2 L1,2 L1,4 L0,4 L0,7 L-1,7 L-1,9 L-3,9 L-3,13 L-4,13 L-4,16 L-5,16 L-5,18 L-6,18 L-6,20 L-7,20 L-7,15 L-6,15 L-6,13 L-5,13 L-5,11 L-4,11 L-4,8 L-3,8 L-3,6 L-2,6 L-2,5 L-1,5 L-1,1 L0,1 Z " fill="#F7AC0F" transform="translate(181,211)"/>
<path d="M0,0 L1,0 L1,4 L0,4 L0,10 L-1,10 L-1,15 L-2,15 L-2,19 L-3,19 L-3,21 L1,21 L1,22 L-4,22 L-4,18 L-3,18 L-3,8 L-2,8 L-2,7 L-1,7 L-1,1 L0,1 Z " fill="#EE9F5B" transform="translate(506,203)"/>
<path d="M0,0 L1,0 L1,1 L3,1 L3,2 L1,2 L1,3 L-1,3 L-1,4 L0,4 L0,5 L-2,5 L-2,4 L-12,4 L-12,3 L-14,3 L-14,2 L-13,2 L-13,1 L-10,1 L-10,2 L-9,2 L-9,1 L-8,1 L-8,2 L-7,2 L-7,1 L-6,1 L-6,2 L-5,2 L-5,1 L-4,1 L-4,2 L-3,2 L-3,1 L-2,1 L-2,2 L-1,2 L-1,1 L0,1 Z " fill="#2081C9" transform="translate(376,199)"/>
<path d="M0,0 L12,0 L12,1 L13,1 L13,2 L1,2 L1,9 L-1,9 L-1,1 L0,1 Z " fill="#E8C264" transform="translate(392,192)"/>
<path d="M0,0 L1,0 L1,1 L2,1 L2,2 L1,2 L1,3 L2,3 L2,4 L4,4 L4,5 L3,5 L3,6 L2,6 L2,7 L1,7 L1,8 L0,8 L0,9 L-1,9 L-1,10 L-2,10 L-2,8 L-1,8 L-1,5 L-2,5 L-2,6 L-3,6 L-3,8 L-4,8 L-4,9 L-7,9 L-7,8 L-6,8 L-6,6 L-4,6 L-4,5 L-3,5 L-3,4 L-1,4 L-1,1 L0,1 Z " fill="#F15B05" transform="translate(79,228)"/>
<path d="M0,0 L1,0 L1,8 L0,8 L0,13 L-1,13 L-1,14 L-2,14 L-2,20 L-3,20 L-3,21 L-4,21 L-4,17 L-3,17 L-3,11 L-2,11 L-2,7 L-1,7 L-1,2 L0,2 Z " fill="#E99647" transform="translate(493,205)"/>
<path d="M0,0 L3,0 L3,2 L2,2 L2,3 L1,3 L1,4 L0,4 L0,5 L-1,5 L-1,4 L-2,4 L-2,5 L-3,5 L-3,6 L-4,6 L-4,7 L-6,7 L-6,8 L-7,8 L-7,9 L-8,9 L-8,5 L-7,5 L-7,3 L-6,3 L-6,4 L-4,4 L-4,2 L-3,2 L-3,1 L0,1 Z " fill="#F7580C" transform="translate(106,196)"/>
<path d="M0,0 L1,0 L1,1 L2,1 L2,2 L4,2 L4,3 L6,3 L6,4 L7,4 L7,3 L12,3 L12,4 L13,4 L13,5 L14,5 L14,6 L15,6 L15,7 L16,7 L16,9 L15,9 L15,8 L13,8 L13,6 L11,6 L11,5 L9,5 L9,6 L8,6 L8,5 L3,5 L3,4 L0,4 Z " fill="#EE9A46" transform="translate(130,247)"/>
<path d="M0,0 L1,0 L1,3 L0,3 L0,5 L1,5 L1,6 L0,6 L0,7 L-1,7 L-1,8 L-2,8 L-2,11 L-4,11 L-4,8 L-3,8 L-3,7 L-2,7 L-2,6 L-4,6 L-4,7 L-7,7 L-7,9 L-8,9 L-8,10 L-10,10 L-10,9 L-11,9 L-11,8 L-8,8 L-8,6 L-6,6 L-6,5 L-2,5 L-2,3 L-1,3 L-1,1 L0,1 Z " fill="#EC712C" transform="translate(77,233)"/>
<path d="M0,0 L1,0 L1,2 L0,2 L0,13 L-1,13 L-1,16 L-2,16 L-2,20 L-3,20 L-3,9 L-2,9 L-2,4 L-1,4 L-1,1 L0,1 Z " fill="#E87E27" transform="translate(523,206)"/>
<path d="M0,0 L4,0 L4,1 L3,1 L3,3 L2,3 L2,4 L4,4 L4,6 L11,6 L11,7 L12,7 L12,8 L1,8 L1,1 L0,1 Z " fill="#114D8F" transform="translate(330,227)"/>
<path d="M0,0 L1,0 L1,9 L2,9 L2,17 L3,17 L3,21 L1,21 L1,20 L0,20 Z " fill="#4E7FAE" transform="translate(341,214)"/>
<path d="M0,0 L1,0 L1,5 L4,5 L4,8 L5,8 L5,10 L3,10 L3,13 L0,13 Z " fill="#F74F04" transform="translate(395,220)"/>
<path d="M0,0 L2,0 L2,1 L4,1 L4,2 L1,2 L1,4 L0,4 L0,11 L-1,11 L-1,16 L-3,16 L-3,7 L-2,7 L-2,5 L-1,5 L-1,3 L0,3 Z " fill="#4D80B0" transform="translate(236,219)"/>
<path d="M0,0 L2,0 L2,1 L1,1 L1,3 L0,3 L0,4 L-1,4 L-1,1 L0,1 Z M-4,1 L-3,1 L-3,4 L-1,4 L-1,6 L0,6 L0,8 L2,8 L2,7 L3,7 L3,9 L2,9 L2,11 L3,11 L3,12 L1,12 L1,11 L-1,11 L-1,9 L-2,9 L-2,8 L-3,8 L-3,5 L-4,5 Z " fill="#F78610" transform="translate(119,239)"/>
<path d="M0,0 L10,0 L10,1 L9,1 L9,2 L4,2 L4,3 L-9,3 L-9,2 L-3,2 L-3,1 L0,1 Z " fill="#E6774D" transform="translate(466,233)"/>
<path d="M0,0 L1,0 L1,2 L3,2 L3,4 L2,4 L2,5 L0,5 L0,7 L-1,7 L-1,8 L-3,8 L-3,9 L-4,9 L-4,10 L-6,10 L-6,11 L-8,11 L-8,10 L-10,10 L-10,9 L-5,9 L-5,7 L-2,7 L-2,6 L-3,6 L-3,5 L-5,5 L-5,4 L-4,4 L-4,3 L-3,3 L-3,4 L0,4 Z " fill="#4E80B1" transform="translate(298,223)"/>
<path d="M0,0 L1,0 L1,1 L2,1 L2,2 L5,2 L5,1 L6,1 L6,3 L7,3 L7,2 L8,2 L8,4 L9,4 L9,3 L11,3 L11,4 L10,4 L10,5 L8,5 L8,6 L5,6 L5,5 L2,5 L2,6 L3,6 L3,7 L1,7 L1,3 L0,3 Z " fill="#1260B2" transform="translate(242,221)"/>
<path d="M0,0 L2,0 L2,3 L1,3 L1,5 L0,5 L0,7 L-1,7 L-1,10 L-2,10 L-2,11 L-3,11 L-3,14 L-4,14 L-4,16 L-5,16 L-5,18 L-6,18 L-6,15 L-5,15 L-5,12 L-4,12 L-4,8 L-2,8 L-2,3 L0,3 Z " fill="#EC9455" transform="translate(441,212)"/>
<path d="M0,0 L1,0 L1,2 L0,2 L0,5 L1,5 L1,8 L0,8 L0,6 L-1,6 L-1,7 L-3,7 L-3,9 L-4,9 L-4,8 L-5,8 L-5,6 L-6,6 L-6,7 L-7,7 L-7,5 L-6,5 L-6,3 L-4,3 L-4,2 L-3,2 L-3,3 L-1,3 L-1,1 L0,1 Z " fill="#1C7BC6" transform="translate(237,199)"/>
<path d="M0,0 L1,0 L1,8 L-1,8 L-1,12 L0,12 L0,17 L-2,17 L-2,20 L-3,20 L-3,13 L-2,13 L-2,7 L-1,7 L-1,4 L0,4 Z " fill="#5D91C2" transform="translate(226,207)"/>
<path d="M0,0 L1,0 L1,2 L2,2 L2,7 L0,7 L0,10 L-1,10 L-1,14 L-2,14 L-2,11 L-3,11 L-3,5 L-2,5 L-2,4 L0,4 Z " fill="#FBE46D" transform="translate(220,152)"/>
<path d="M0,0 L1,0 L1,4 L2,4 L2,10 L3,10 L3,13 L4,13 L4,15 L3,15 L3,14 L2,14 L2,12 L-1,12 L-1,5 L0,5 Z " fill="#F4BE1A" transform="translate(195,236)"/>
<path d="M0,0 L5,0 L5,1 L1,1 L1,2 L0,2 L0,4 L-3,4 L-3,5 L-5,5 L-5,6 L-6,6 L-6,8 L-7,8 L-7,11 L-8,11 L-8,12 L-10,12 L-10,10 L-9,10 L-9,8 L-8,8 L-8,7 L-7,7 L-7,5 L-6,5 L-6,4 L-4,4 L-4,2 L-2,2 L-2,1 L0,1 Z " fill="#EEA64C" transform="translate(458,195)"/>
<path d="M0,0 L6,0 L6,1 L5,1 L5,3 L4,3 L4,4 L3,4 L3,6 L2,6 L2,8 L4,8 L4,9 L5,9 L5,11 L4,11 L4,10 L3,10 L3,9 L1,9 L1,4 L-1,4 L-1,3 L0,3 L0,2 L1,2 L1,1 L0,1 Z " fill="#F39B46" transform="translate(78,244)"/>
<path d="M0,0 L1,0 L1,2 L10,2 L10,1 L11,1 L11,4 L-2,4 L-2,3 L-3,3 L-3,2 L-2,2 L-2,1 L0,1 Z " fill="#215390" transform="translate(302,231)"/>
<path d="M0,0 L1,0 L1,12 L0,12 L0,13 L-1,13 L-1,14 L-4,14 L-4,13 L-3,13 L-3,11 L-2,11 L-2,10 L-3,10 L-3,8 L-1,8 L-1,5 L0,5 Z " fill="#FAC107" transform="translate(210,173)"/>
<path d="M0,0 L1,0 L1,5 L2,5 L2,6 L1,6 L1,8 L0,8 L0,12 L-1,12 L-1,14 L-2,14 L-2,3 L-1,3 L-1,1 L0,1 Z " fill="#F08E10" transform="translate(161,237)"/>
<path d="M0,0 L2,0 L2,1 L1,1 L1,2 L-1,2 L-1,3 L-2,3 L-2,4 L-3,4 L-3,5 L-4,5 L-4,7 L-5,7 L-5,9 L-7,9 L-7,10 L-8,10 L-8,11 L-9,11 L-9,10 L-11,10 L-11,9 L-9,9 L-9,8 L-7,8 L-7,7 L-8,7 L-8,6 L-7,6 L-7,5 L-6,5 L-6,4 L-5,4 L-5,3 L-3,3 L-3,2 L-2,2 L-2,1 L0,1 Z " fill="#DE6B4C" transform="translate(67,213)"/>
<path d="M0,0 L1,0 L1,2 L4,2 L4,3 L3,3 L3,4 L2,4 L2,5 L0,5 L0,6 L-1,6 L-1,7 L-2,7 L-2,6 L-3,6 L-3,7 L-4,7 L-4,8 L-6,8 L-6,7 L-5,7 L-5,6 L-6,6 L-6,5 L-5,5 L-5,4 L-2,4 L-2,3 L-1,3 L-1,1 L0,1 Z " fill="#1B6FBC" transform="translate(254,210)"/>
<path d="M0,0 L10,0 L10,1 L5,1 L5,2 L3,2 L3,3 L2,3 L2,4 L1,4 L1,5 L0,5 L0,7 L-1,7 L-1,9 L-2,9 L-2,4 L-1,4 L-1,2 L0,2 Z " fill="#5693C7" transform="translate(277,203)"/>
<path d="M0,0 L13,0 L13,1 L15,1 L15,2 L18,2 L18,3 L19,3 L19,4 L17,4 L17,3 L12,3 L12,2 L11,2 L11,3 L8,3 L8,1 L0,1 Z " fill="#75B0D5" transform="translate(280,192)"/>
<path d="M0,0 L6,0 L6,2 L2,2 L2,1 L1,1 L1,2 L-1,2 L-1,3 L-2,3 L-2,4 L-6,4 L-6,5 L-11,5 L-11,4 L-8,4 L-8,3 L-6,3 L-6,2 L-3,2 L-3,1 L0,1 Z " fill="#E48755" transform="translate(61,243)"/>
<path d="M0,0 L3,0 L3,3 L2,3 L2,4 L1,4 L1,5 L0,5 L0,6 L-1,6 L-1,7 L-3,7 L-3,8 L-4,8 L-4,9 L-5,9 L-5,10 L-6,10 L-6,6 L-3,6 L-3,4 L-1,4 L-1,3 L0,3 Z " fill="#E89A44" transform="translate(133,228)"/>
<path d="M0,0 L2,0 L2,3 L3,3 L3,14 L2,14 L2,12 L1,12 L1,13 L0,13 L0,11 L1,11 L1,5 L0,5 Z " fill="#679BC9" transform="translate(303,201)"/>
<path d="M0,0 L2,0 L2,1 L3,1 L3,5 L2,5 L2,6 L3,6 L3,10 L2,10 L2,9 L1,9 L1,13 L0,13 Z " fill="#F07B12" transform="translate(393,202)"/>
<path d="M0,0 L1,0 L1,1 L2,1 L2,2 L1,2 L1,3 L2,3 L2,4 L1,4 L1,5 L-1,5 L-1,6 L-3,6 L-3,7 L-4,7 L-4,8 L-5,8 L-5,9 L-6,9 L-6,6 L-4,6 L-4,3 L-3,3 L-3,2 L-2,2 L-2,1 L0,1 Z " fill="#F66202" transform="translate(79,238)"/>
<path d="M0,0 L1,0 L1,2 L0,2 L0,3 L4,3 L4,5 L0,5 L0,6 L-4,6 L-4,5 L-5,5 L-5,3 L-3,3 L-3,2 L-2,2 L-2,1 L0,1 Z " fill="#E94723" transform="translate(44,228)"/>
<path d="M0,0 L1,0 L1,3 L0,3 L0,4 L-1,4 L-1,5 L-2,5 L-2,6 L-3,6 L-3,7 L-4,7 L-4,8 L-7,8 L-7,9 L-10,9 L-10,7 L-7,7 L-7,6 L-6,6 L-6,5 L-4,5 L-4,4 L-3,4 L-3,3 L-2,3 L-2,2 L-1,2 L-1,1 L0,1 Z " fill="#FEA00A" transform="translate(180,150)"/>
<path d="M0,0 L5,0 L5,1 L1,1 L1,4 L0,4 L0,8 L-2,8 L-2,7 L-3,7 L-3,5 L-4,5 L-4,6 L-5,6 L-5,2 L-3,2 L-3,4 L-1,4 L-1,2 L0,2 Z " fill="#F68914" transform="translate(535,202)"/>
<path d="M0,0 L4,0 L4,2 L3,2 L3,5 L1,5 L1,6 L2,6 L2,7 L-3,7 L-3,6 L-2,6 L-2,5 L-1,5 L-1,2 L0,2 Z " fill="#2389D6" transform="translate(324,195)"/>
<path d="M0,0 L2,0 L2,4 L4,4 L4,2 L5,2 L5,6 L3,6 L3,8 L2,8 L2,9 L1,9 L1,8 L0,8 Z " fill="#F39216" transform="translate(114,228)"/>
<path d="M0,0 L1,0 L1,2 L2,2 L2,3 L1,3 L1,4 L3,4 L3,5 L-2,5 L-2,6 L-4,6 L-4,4 L-5,4 L-5,1 L-4,1 L-4,2 L-2,2 L-2,1 L0,1 Z " fill="#185BA6" transform="translate(275,229)"/>
<path d="M0,0 L1,0 L1,2 L2,2 L2,0 L4,0 L4,1 L5,1 L5,2 L4,2 L4,4 L5,4 L5,6 L10,6 L10,7 L8,7 L8,8 L6,8 L6,7 L4,7 L4,6 L3,6 L3,5 L2,5 L2,4 L1,4 L1,3 L0,3 Z " fill="#E87134" transform="translate(448,227)"/>
<path d="M0,0 L2,0 L2,1 L1,1 L1,5 L-8,5 L-8,4 L-6,4 L-6,3 L-4,3 L-4,2 L-3,2 L-3,1 L0,1 Z " fill="#E6603B" transform="translate(54,223)"/>
<path d="M0,0 L1,0 L1,1 L2,1 L2,2 L1,2 L1,9 L7,9 L7,10 L-1,10 L-1,2 L-2,2 L-2,1 L0,1 Z " fill="#5C93C6" transform="translate(360,215)"/>
<path d="M0,0 L2,0 L2,2 L3,2 L3,3 L2,3 L2,4 L3,4 L3,5 L2,5 L2,6 L-1,6 L-1,7 L-4,7 L-4,6 L-3,6 L-3,4 L-2,4 L-2,2 L0,2 Z " fill="#F2710A" transform="translate(165,151)"/>
<path d="M0,0 L2,0 L2,2 L6,2 L6,3 L10,3 L10,4 L-2,4 L-2,1 L0,1 Z " fill="#FCA703" transform="translate(194,255)"/>
<path d="M0,0 L1,0 L1,1 L3,1 L3,0 L4,0 L4,1 L6,1 L6,2 L8,2 L8,3 L9,3 L9,5 L10,5 L10,7 L7,7 L7,5 L5,5 L5,3 L4,3 L4,2 L0,2 Z " fill="#F3C956" transform="translate(172,249)"/>
<path d="M0,0 L2,0 L2,1 L9,1 L9,0 L12,0 L12,2 L13,2 L13,4 L9,4 L9,3 L8,3 L8,2 L3,2 L3,3 L2,3 L2,2 L1,2 L1,1 L0,1 Z " fill="#F93D07" transform="translate(36,238)"/>
<path d="M0,0 L2,0 L2,1 L10,1 L10,0 L14,0 L14,1 L11,1 L11,3 L4,3 L4,4 L3,4 L3,3 L2,3 L2,2 L1,2 L1,1 L0,1 Z " fill="#135A9D" transform="translate(357,224)"/>
<path d="M0,0 L1,0 L1,2 L2,2 L2,3 L1,3 L1,5 L0,5 L0,7 L-1,7 L-1,10 L-3,10 L-3,11 L-4,11 L-4,12 L-5,12 L-5,13 L-6,13 L-6,11 L-5,11 L-5,10 L-4,10 L-4,9 L-3,9 L-3,6 L-2,6 L-2,4 L-1,4 L-1,3 L0,3 Z " fill="#67A3CB" transform="translate(320,195)"/>
<path d="M0,0 L2,0 L2,1 L1,1 L1,3 L0,3 L0,4 L-3,4 L-3,5 L-5,5 L-5,6 L-8,6 L-8,8 L-12,8 L-12,7 L-10,7 L-10,6 L-9,6 L-9,5 L-7,5 L-7,4 L-4,4 L-4,3 L-3,3 L-3,2 L-1,2 L-1,1 L0,1 Z " fill="#E17E4E" transform="translate(100,192)"/>
<path d="M0,0 L1,0 L1,1 L13,1 L13,4 L12,4 L12,2 L3,2 L3,3 L-4,3 L-4,2 L-3,2 L-3,1 L0,1 Z " fill="#4D92BC" transform="translate(325,192)"/>
<path d="M0,0 L4,0 L4,1 L1,1 L1,3 L0,3 L0,2 L-1,2 L-1,6 L-2,6 L-2,5 L-4,5 L-4,6 L-5,6 L-5,5 L-7,5 L-7,3 L-4,3 L-4,2 L-3,2 L-3,1 L0,1 Z " fill="#F35511" transform="translate(114,186)"/>
<path d="M0,0 L1,0 L1,1 L2,1 L2,2 L4,2 L4,4 L3,4 L3,6 L2,6 L2,7 L1,7 L1,8 L-3,8 L-3,7 L-4,7 L-4,5 L-3,5 L-3,6 L1,6 L1,3 L0,3 Z " fill="#4678A6" transform="translate(255,227)"/>
<path d="M0,0 L5,0 L5,6 L2,6 L2,3 L-1,3 L-1,2 L0,2 Z " fill="#1C65AC" transform="translate(297,219)"/>
<path d="M0,0 L4,0 L4,1 L7,1 L7,2 L8,2 L8,3 L9,3 L9,5 L10,5 L10,6 L11,6 L11,8 L10,8 L10,7 L8,7 L8,6 L7,6 L7,4 L5,4 L5,3 L4,3 L4,2 L3,2 L3,1 L0,1 Z " fill="#5B9BC2" transform="translate(377,195)"/>
<path d="M0,0 L1,0 L1,3 L2,3 L2,5 L1,5 L1,7 L0,7 L0,8 L-1,8 L-1,7 L-7,7 L-7,5 L0,5 Z " fill="#1969AD" transform="translate(329,213)"/>
<path d="M0,0 L1,0 L1,2 L2,2 L2,4 L1,4 L1,6 L0,6 L0,8 L-1,8 L-1,10 L-2,10 L-2,11 L-3,11 L-3,12 L-4,12 L-4,10 L-3,10 L-3,7 L-1,7 L-1,1 L0,1 Z " fill="#6292BA" transform="translate(386,216)"/>
<path d="M0,0 L1,0 L1,1 L2,1 L2,3 L3,3 L3,4 L2,4 L2,9 L1,9 L1,10 L0,10 L0,12 L-1,12 L-1,7 L0,7 Z " fill="#1D73B9" transform="translate(228,200)"/>
<path d="M0,0 L3,0 L3,2 L2,2 L2,5 L1,5 L1,6 L0,6 L0,7 L2,7 L2,9 L0,9 L0,10 L-2,10 L-2,7 L-1,7 L-1,5 L0,5 L0,3 L1,3 L1,2 L0,2 Z " fill="#2782C6" transform="translate(321,195)"/>
<path d="M0,0 L7,0 L7,1 L8,1 L8,2 L10,2 L10,3 L11,3 L11,4 L8,4 L8,5 L7,5 L7,4 L5,4 L5,3 L4,3 L4,1 L0,1 Z " fill="#F3A238" transform="translate(475,194)"/>
<path d="M0,0 L1,0 L1,1 L2,1 L2,2 L1,2 L1,3 L3,3 L3,7 L2,7 L2,9 L0,9 L0,5 L-1,5 L-1,1 L0,1 Z " fill="#FCB317" transform="translate(192,167)"/>
<path d="M0,0 L5,0 L5,6 L4,6 L4,2 L2,2 L2,3 L1,3 L1,5 L-2,5 L-2,4 L-1,4 L-1,1 L0,1 Z " fill="#FA4F04" transform="translate(509,226)"/>
<path d="M0,0 L1,0 L1,4 L0,4 L0,7 L-1,7 L-1,10 L-2,10 L-2,11 L-3,11 L-3,12 L-4,12 L-4,9 L-3,9 L-3,7 L-4,7 L-4,5 L-3,5 L-3,6 L-2,6 L-2,5 L-1,5 L-1,3 L0,3 Z " fill="#EF5B0A" transform="translate(436,220)"/>
<path d="M0,0 L1,0 L1,2 L2,2 L2,4 L3,4 L3,6 L4,6 L4,8 L1,8 L1,6 L-2,6 L-2,4 L-1,4 L-1,3 L0,3 Z " fill="#EF9E3D" transform="translate(486,198)"/>
<path d="M0,0 L1,0 L1,2 L0,2 L0,3 L4,3 L4,4 L3,4 L3,5 L-2,5 L-2,12 L-3,12 L-3,4 L-2,4 L-2,3 L-1,3 L-1,1 L0,1 Z " fill="#4A90C2" transform="translate(230,195)"/>
<path d="M0,0 L3,0 L3,1 L2,1 L2,2 L1,2 L1,3 L0,3 L0,4 L1,4 L1,5 L2,5 L2,7 L1,7 L1,8 L0,8 L0,6 L-2,6 L-2,7 L-3,7 L-3,3 L-1,3 L-1,1 L0,1 Z M-1,4 L-1,5 L0,5 L0,4 Z " fill="#F8B60D" transform="translate(187,121)"/>
<path d="M0,0 L2,0 L2,1 L1,1 L1,3 L0,3 L0,4 L-5,4 L-5,5 L-6,5 L-6,6 L-10,6 L-10,5 L-9,5 L-9,4 L-7,4 L-7,3 L-3,3 L-3,2 L-1,2 L-1,1 L0,1 Z " fill="#F6E170" transform="translate(201,110)"/>
<path d="M0,0 L4,0 L4,1 L6,1 L6,2 L7,2 L7,3 L-2,3 L-2,2 L-3,2 L-3,1 L0,1 Z " fill="#F7D43F" transform="translate(202,250)"/>
<path d="M0,0 L2,0 L2,2 L1,2 L1,7 L0,7 L0,9 L-1,9 L-1,11 L-2,11 L-2,5 L-1,5 L-1,2 L0,2 Z " fill="#F88905" transform="translate(166,209)"/>
<path d="M0,0 L2,0 L2,2 L3,2 L3,3 L4,3 L4,4 L3,4 L3,5 L1,5 L1,4 L-2,4 L-2,5 L-3,5 L-3,3 L-2,3 L-2,1 L0,1 Z M4,2 L5,2 L5,3 L4,3 Z " fill="#1668B2" transform="translate(294,214)"/>
<path d="M0,0 L1,0 L1,2 L0,2 L0,3 L-1,3 L-1,5 L-2,5 L-2,6 L-3,6 L-3,11 L-5,11 L-5,5 L-4,5 L-4,4 L-2,4 L-2,2 L-1,2 L-1,1 L0,1 Z " fill="#FDB903" transform="translate(203,122)"/>
<path d="M0,0 L2,0 L2,1 L6,1 L6,3 L2,3 L2,4 L1,4 L1,6 L-2,6 L-2,5 L-1,5 L-1,4 L0,4 Z " fill="#EF9544" transform="translate(108,227)"/>
<path d="M0,0 L2,0 L2,6 L3,6 L3,7 L2,7 L2,8 L-1,8 L-1,4 L0,4 Z " fill="#2F70AA" transform="translate(349,212)"/>
<path d="M0,0 L3,0 L3,2 L1,2 L1,4 L0,4 L0,5 L-1,5 L-1,4 L-2,4 L-2,5 L-4,5 L-4,2 L-2,2 L-2,1 L0,1 Z " fill="#F64502" transform="translate(88,201)"/>
<path d="M0,0 L3,0 L3,1 L7,1 L7,2 L8,2 L8,4 L7,4 L7,5 L6,5 L6,2 L4,2 L4,3 L1,3 L1,5 L0,5 Z " fill="#4293CB" transform="translate(294,195)"/>
<path d="M0,0 L7,0 L7,1 L6,1 L6,2 L7,2 L7,3 L0,3 Z " fill="#ED931D" transform="translate(182,257)"/>
<path d="M0,0 L3,0 L3,1 L2,1 L2,2 L1,2 L1,3 L0,3 L0,7 L-1,7 L-1,6 L-2,6 L-2,5 L-3,5 L-3,6 L-4,6 L-4,4 L-3,4 L-3,3 L-2,3 L-2,2 L-1,2 L-1,1 L0,1 Z " fill="#FE7211" transform="translate(82,233)"/>
<path d="M0,0 L2,0 L2,1 L3,1 L3,4 L0,4 L0,5 L-3,5 L-3,3 L-2,3 L-2,2 L-1,2 L-1,1 L0,1 Z " fill="#EF7F23" transform="translate(98,232)"/>
<path d="M0,0 L2,0 L2,3 L-1,3 L-1,5 L-3,5 L-3,6 L-6,6 L-6,5 L-5,5 L-5,4 L-4,4 L-4,3 L-3,3 L-3,2 L-1,2 L-1,1 L0,1 Z " fill="#E63C0D" transform="translate(69,213)"/>
<path d="M0,0 L1,0 L1,3 L0,3 Z M-1,3 L0,3 L0,5 L1,5 L1,7 L2,7 L2,8 L3,8 L3,9 L1,9 L1,8 L0,8 L0,7 L-4,7 L-4,5 L-2,5 L-2,4 L-1,4 Z " fill="#F8850B" transform="translate(150,208)"/>
<path d="M0,0 L3,0 L3,1 L2,1 L2,2 L1,2 L1,3 L0,3 L0,4 L-1,4 L-1,6 L-2,6 L-2,9 L-3,9 L-3,5 L-4,5 L-4,3 L-1,3 L-1,1 L0,1 Z " fill="#F0AE68" transform="translate(462,205)"/>
<path d="M0,0 L1,0 L1,2 L2,2 L2,1 L4,1 L4,2 L5,2 L5,4 L2,4 L2,5 L1,5 L1,6 L-1,6 L-1,5 L0,5 L0,3 L-1,3 L-1,1 L0,1 Z " fill="#1F7ECD" transform="translate(296,200)"/>
<path d="M0,0 L1,0 L1,1 L2,1 L2,2 L5,2 L5,3 L4,3 L4,4 L3,4 L3,5 L2,5 L2,6 L1,6 L1,9 L0,9 Z " fill="#1B80CC" transform="translate(353,198)"/>
<path d="M0,0 L1,0 L1,4 L4,4 L4,5 L-4,5 L-4,3 L-3,3 L-3,2 L-1,2 L-1,1 L0,1 Z " fill="#E96B0C" transform="translate(168,140)"/>
<path d="M0,0 L3,0 L3,2 L12,2 L12,3 L0,3 L0,2 L-1,2 L-1,1 L0,1 Z " fill="#F39D11" transform="translate(189,257)"/>
<path d="M0,0 L1,0 L1,6 L2,6 L2,7 L3,7 L3,8 L4,8 L4,9 L2,9 L2,8 L-2,8 L-2,4 L-1,4 L-1,6 L0,6 Z " fill="#F5A048" transform="translate(126,238)"/>
<path d="M0,0 L1,0 L1,2 L2,2 L2,7 L0,7 L0,9 L-1,9 L-1,5 L0,5 L0,4 L-1,4 L-1,1 L0,1 Z " fill="#F15D0A" transform="translate(410,219)"/>
<path d="M0,0 L4,0 L4,6 L3,6 L3,7 L2,7 L2,3 L0,3 Z " fill="#E16C2E" transform="translate(89,216)"/>
<path d="M0,0 L3,0 L3,1 L1,1 L1,3 L3,3 L3,4 L1,4 L1,5 L-1,5 L-1,6 L-2,6 L-2,8 L-4,8 L-4,7 L-3,7 L-3,5 L-2,5 L-2,4 L-1,4 L-1,1 L0,1 Z " fill="#FAAF17" transform="translate(185,208)"/>
<path d="M0,0 L2,0 L2,3 L3,3 L3,5 L2,5 L2,6 L1,6 L1,7 L0,7 L0,5 L-1,5 L-1,6 L-2,6 L-2,4 L0,4 L0,3 L-1,3 L-1,2 L0,2 Z " fill="#1975C0" transform="translate(320,207)"/>
<path d="M0,0 L2,0 L2,1 L3,1 L3,2 L2,2 L2,4 L1,4 L1,7 L0,7 L0,8 L-1,8 L-1,1 L0,1 Z " fill="#EBA549" transform="translate(444,204)"/>
<path d="M0,0 L3,0 L3,1 L2,1 L2,2 L0,2 L0,6 L-1,6 L-1,8 L-2,8 L-2,6 L-3,6 L-3,3 L-2,3 L-2,2 L-1,2 L-1,1 L0,1 Z " fill="#2F87CB" transform="translate(293,200)"/>
<path d="M0,0 L5,0 L5,1 L4,1 L4,2 L3,2 L3,3 L2,3 L2,4 L1,4 L1,5 L-2,5 L-2,4 L-1,4 L-1,2 L0,2 Z " fill="#ED6114" transform="translate(102,191)"/>
<path d="M0,0 L3,0 L3,2 L6,2 L6,3 L9,3 L9,4 L3,4 L3,3 L0,3 Z " fill="#E58E6C" transform="translate(41,245)"/>
<path d="M0,0 L2,0 L2,1 L5,1 L5,2 L6,2 L6,3 L7,3 L7,5 L8,5 L8,6 L6,6 L6,5 L4,5 L4,3 L2,3 L2,2 L1,2 L1,1 L0,1 Z " fill="#DD7E56" transform="translate(30,238)"/>
<path d="M0,0 L3,0 L3,1 L5,1 L5,3 L3,3 L3,4 L2,4 L2,5 L0,5 Z " fill="#E66A36" transform="translate(476,228)"/>
<path d="M0,0 L2,0 L2,3 L1,3 L1,5 L-5,5 L-5,4 L-2,4 L-2,2 L-1,2 L-1,1 L0,1 Z " fill="#E87D41" transform="translate(473,219)"/>
<path d="M0,0 L2,0 L2,1 L3,1 L3,4 L4,4 L4,7 L2,7 L2,6 L1,6 L1,5 L2,5 L2,4 L0,4 Z " fill="#4278B0" transform="translate(251,220)"/>
<path d="M0,0 L1,0 L1,2 L2,2 L2,3 L1,3 L1,4 L2,4 L2,6 L1,6 L1,7 L0,7 L0,9 L-1,9 L-1,1 L0,1 Z " fill="#F15F08" transform="translate(492,218)"/>
<path d="M0,0 L1,0 L1,4 L2,4 L2,5 L3,5 L3,7 L1,7 L1,13 L0,13 Z " fill="#F65505" transform="translate(420,220)"/>
<path d="M0,0 L1,0 L1,4 L0,4 L0,5 L-2,5 L-2,6 L-3,6 L-3,7 L-4,7 L-4,8 L-6,8 L-6,7 L-5,7 L-5,5 L-4,5 L-4,4 L-2,4 L-2,3 L-1,3 L-1,2 L0,2 Z " fill="#5591BE" transform="translate(258,211)"/>
<path d="M0,0 L1,0 L1,2 L2,2 L2,4 L0,4 L0,10 L-1,10 L-1,11 L-2,11 L-2,7 L-1,7 L-1,2 L0,2 Z " fill="#EFB46E" transform="translate(524,196)"/>
<path d="M0,0 L1,0 L1,2 L2,2 L2,6 L1,6 L1,7 L0,7 L0,4 L-3,4 L-3,3 L-2,3 L-2,1 L0,1 Z " fill="#FC8603" transform="translate(442,199)"/>
<path d="M0,0 L2,0 L2,1 L4,1 L4,0 L5,0 L5,2 L3,2 L3,3 L-1,3 L-1,4 L-2,4 L-2,5 L-4,5 L-4,4 L-3,4 L-3,3 L-2,3 L-2,2 L-1,2 L-1,1 L0,1 Z " fill="#EC9B3C" transform="translate(169,137)"/>
<path d="M0,0 L1,0 L1,1 L0,1 Z M-2,1 L0,1 L0,3 L-1,3 L-1,5 L-2,5 L-2,6 L-5,6 L-5,3 L-4,3 L-4,2 L-2,2 Z " fill="#FDAF05" transform="translate(199,120)"/>
<path d="M0,0 L2,0 L2,1 L1,1 L1,2 L2,2 L2,4 L-4,4 L-4,2 L-2,2 L-2,1 L0,1 Z " fill="#F34204" transform="translate(53,242)"/>
<path d="M0,0 L2,0 L2,1 L8,1 L8,2 L2,2 L2,3 L3,3 L3,4 L4,4 L4,5 L2,5 L2,4 L0,4 Z " fill="#5390CA" transform="translate(276,223)"/>
<path d="M0,0 L2,0 L2,2 L1,2 L1,5 L0,5 L0,7 L-1,7 L-1,9 L-2,9 L-2,4 L-1,4 L-1,2 L0,2 Z " fill="#F2B952" transform="translate(176,222)"/>
<path d="M0,0 L1,0 L1,8 L2,8 L2,10 L0,10 L0,9 L-1,9 L-1,4 L0,4 Z " fill="#3D72A8" transform="translate(274,213)"/>
<path d="M0,0 L6,0 L6,1 L5,1 L5,2 L2,2 L2,3 L-3,3 L-3,2 L-1,2 L-1,1 L0,1 Z " fill="#E88832" transform="translate(140,177)"/>
<path d="M0,0 L1,0 L1,1 L3,1 L3,3 L2,3 L2,4 L1,4 L1,5 L0,5 L0,6 L-1,6 L-1,4 L-2,4 L-2,2 L-1,2 L-1,1 L0,1 Z " fill="#F06B13" transform="translate(148,173)"/>
<path d="M0,0 L1,0 L1,3 L0,3 L0,4 L-1,4 L-1,6 L-2,6 L-2,7 L-4,7 L-4,6 L-3,6 L-3,5 L-2,5 L-2,4 L-3,4 L-3,1 L0,1 Z " fill="#E4A368" transform="translate(156,163)"/>
<path d="M0,0 L1,0 L1,1 L0,1 Z " fill="#FFFFFF" transform="translate(413,225)"/>
</svg>
